<?xml version="1.0" encoding="utf-8"?>
<!-- Generator: Adobe Illustrator 17.0.0, SVG Export Plug-In . SVG Version: 6.00 Build 0)  -->
<!DOCTYPE svg PUBLIC "-//W3C//DTD SVG 1.1//EN" "http://www.w3.org/Graphics/SVG/1.1/DTD/svg11.dtd">
<svg version="1.1" id="Layer_1" xmlns="http://www.w3.org/2000/svg" xmlns:xlink="http://www.w3.org/1999/xlink" x="0px" y="0px"
	 width="48px" height="45.104px" viewBox="0 0 48 45.104" enable-background="new 0 0 48 45.104" xml:space="preserve">
<path fill="#3C6FB6" d="M13.26,4.624l-2.808-2.821C8.067-0.591,4.192-0.595,1.799,1.79s-2.398,6.26-0.013,8.653l2.812,2.817
	L13.26,4.624"/>
<path fill="#3C6FB6" d="M43.38,13.26l2.821-2.808c2.394-2.385,2.398-6.26,0.013-8.653s-6.26-2.398-8.653-0.013l-2.817,2.812
	L43.38,13.26z"/>
<polyline fill="#3C6FB6" points="47.489,23.002 43.623,8.19 31.522,0.071 16.901,0.071 5.382,8.19 0.511,23.002 5.008,36.526 
	16.83,45.104 31.452,45.104 43.301,36.526 47.489,23.002 "/>
<path fill="#1364AE" d="M47.489,23.002h-23.5v11.611c0.004,0,0.004,0,0.009,0c0.696,0,1.314-0.282,1.702-0.516h0.004l0,0
	c-0.163,0.176-0.864,1.04-1.706,1.04c-0.004,0-0.004,0-0.009,0v9.711l-7.163,0.256L5.008,36.526l0,0l11.818,8.578h14.626
	l11.845-8.578L47.489,23.002"/>
<polyline fill="#3C6FB6" points="3.932,12.594 0.511,23.002 5.008,36.526 0.511,23.002 3.932,12.594 3.932,12.594 "/>
<polyline fill="#1364AE" points="5.382,8.19 5.382,8.19 3.932,12.594 3.932,12.594 5.382,8.19 "/>
<path fill="#1364AE" d="M19.299,17.857c-0.229-0.335-0.37-0.749-0.37-1.203c0-1.084,0.767-1.962,1.715-1.962
	s1.715,0.877,1.715,1.962c0,0.287-0.057,0.56-0.154,0.807C21.102,17.531,20.11,17.668,19.299,17.857 M23.989,0.071h-7.093
	L5.378,8.195l-1.446,4.404L0.511,23.006h23.478V10.068l-0.009-0.004l-6.846,1.754c0,0,4.188-2.31,6.828-2.31h0.004
	c0.009,0,0.018,0,0.026,0V0.071"/>
<path fill="#145FAB" d="M23.989,23.002H0.511l4.496,13.524l11.818,8.578l7.163-0.256v-9.711c-0.833-0.004-1.53-0.864-1.693-1.04
	h0.004c0.384,0.234,1.001,0.516,1.693,0.516V23.002"/>
<path fill="#020202" d="M23.469,23.888l0.004,8.093c0,0.291,0.238,0.529,0.529,0.529s0.529-0.238,0.529-0.529l-0.004-8.093
	c0-0.291-0.238-0.529-0.529-0.529S23.469,23.597,23.469,23.888"/>
<polygon fill="#020202" points="30.469,22.19 23.998,27.674 17.531,22.19 "/>
<path fill="#214F9F" d="M27.357,14.688c-0.948,0-1.715,0.877-1.715,1.962c0,0.287,0.057,0.56,0.154,0.807
	c1.102,0.075,2.089,0.212,2.905,0.397c0.229-0.335,0.37-0.749,0.37-1.203C29.076,15.569,28.305,14.688,27.357,14.688"/>
<path fill="#214C9B" d="M20.643,14.688c-0.948,0-1.715,0.877-1.715,1.962c0,0.458,0.141,0.873,0.37,1.203
	c0.816-0.185,1.807-0.326,2.905-0.397c0.097-0.247,0.154-0.52,0.154-0.807C22.358,15.569,21.591,14.688,20.643,14.688"/>
<path fill="#FFFFFF" d="M27.295,15.137c-0.93,0-1.684,0.754-1.684,1.684c0,0.247,0.057,0.48,0.154,0.692
	c1.08,0.062,2.05,0.181,2.852,0.344c0.225-0.287,0.366-0.644,0.366-1.036C28.979,15.891,28.225,15.137,27.295,15.137z
	 M20.705,15.137c-0.93,0-1.684,0.754-1.684,1.684c0,0.392,0.141,0.749,0.366,1.036c0.798-0.159,1.772-0.278,2.852-0.344
	c0.097-0.212,0.154-0.445,0.154-0.692C22.389,15.891,21.635,15.137,20.705,15.137z"/>
<path fill="#214C9B" d="M25.704,34.097L25.704,34.097c-0.392,0.234-1.009,0.516-1.706,0.516c-0.004,0-0.004,0-0.009,0v0.525
	c0.004,0,0.004,0,0.009,0C24.84,35.137,25.541,34.273,25.704,34.097"/>
<path fill="#21499A" d="M22.301,34.097L22.301,34.097c0.163,0.176,0.855,1.031,1.693,1.04v-0.525
	C23.297,34.608,22.684,34.33,22.301,34.097"/>
<path fill="#020202" d="M24.002,31.968c-1.318,0-2.482-0.419-3.214-0.771h-0.004c0.313,0.264,1.635,1.552,3.222,1.552
	c1.587,0,2.909-1.287,3.222-1.552h-0.004C26.484,31.544,25.316,31.968,24.002,31.968z"/>
<path fill="#214F9F" d="M23.989,9.508v0.56l6.841,1.754C30.835,11.818,26.647,9.522,23.989,9.508"/>
<path fill="#214C9B" d="M23.967,9.508h-0.004c-2.636,0.004-6.828,2.31-6.828,2.31l6.846-1.754l0.009,0.004v-0.56
	C23.98,9.508,23.976,9.508,23.967,9.508"/>
</svg>
