<?xml version="1.0" encoding="utf-8"?>
<!-- Generator: Adobe Illustrator 17.0.0, SVG Export Plug-In . SVG Version: 6.00 Build 0)  -->
<!DOCTYPE svg PUBLIC "-//W3C//DTD SVG 1.1//EN" "http://www.w3.org/Graphics/SVG/1.1/DTD/svg11.dtd">
<svg version="1.1" id="Layer_1" xmlns="http://www.w3.org/2000/svg" xmlns:xlink="http://www.w3.org/1999/xlink" x="0px" y="0px"
	 width="37.889px" height="48px" viewBox="0 0 37.889 48" enable-background="new 0 0 37.889 48" xml:space="preserve">
<path fill="#F495BE" d="M17.634,46.154c0,1.015-0.483,1.846-1.074,1.846s-1.075-0.83-1.075-1.846V24.019
	c0-1.015,0.484-1.846,1.075-1.846s1.074,0.831,1.074,1.846V46.154z"/>
<path fill="#F495BE" d="M21.885,46.154c0,1.015-0.484,1.846-1.074,1.846c-0.591,0-1.075-0.83-1.075-1.846V24.019
	c0-1.015,0.483-1.846,1.075-1.846c0.591,0,1.074,0.831,1.074,1.846V46.154z"/>
<path fill="#F495BE" d="M37.889,2.265c0,0-3.309-2.265-18.945-2.265S0,2.265,0,2.265s1.858,33.738,18.809,33.738
	S37.889,2.265,37.889,2.265"/>
<path opacity="0.1" fill="#010101" enable-background="new    " d="M18.74,0C3.281,0.02,0,2.265,0,2.265S1.853,35.91,18.74,36.002V0
	z"/>
<path opacity="0.1" fill="#010101" enable-background="new    " d="M25.228,18.069c0,3.536-2.866,6.402-6.402,6.402
	s-6.402-2.867-6.402-6.402c0-3.536,2.866-6.402,6.402-6.402S25.228,14.533,25.228,18.069"/>
<path fill="#FFFFFF" d="M24.439,17.193c0,3.1-2.513,5.614-5.614,5.614c-3.1,0-5.613-2.513-5.613-5.614s2.513-5.614,5.613-5.614
	C21.926,11.579,24.439,14.093,24.439,17.193"/>
<path fill="#F495BE" d="M20.232,14.049c0,0.777-0.63,1.407-1.407,1.407c-0.777,0-1.407-0.63-1.407-1.407
	c0-0.777,0.63-1.407,1.407-1.407C19.602,12.642,20.232,13.272,20.232,14.049"/>
<path fill="#9C4B84" d="M35.042,2.769c0,0.514-7.126,0.932-15.917,0.932S3.207,3.283,3.207,2.769s7.127-1.37,15.917-1.37
	S35.042,2.254,35.042,2.769"/>
<path fill="#9C4B84" d="M19.792,27.148c0.006,0.325,0.018,1.174-0.396,1.475c-0.405,0.318-1.03,0.318-1.436,0
	c-0.414-0.301-0.402-1.15-0.396-1.475c-0.006-0.336-0.018-0.024,0.396,0.277c0.405,0.317,1.031,0.317,1.436,0
	C19.811,27.125,19.799,26.812,19.792,27.148"/>
<path fill="#FFFFFF" d="M18.196,27.735c-0.014,0.047-0.024,0.096-0.024,0.147c0,0.281,0.228,0.51,0.51,0.51
	c0.281,0,0.51-0.229,0.51-0.51c0-0.051-0.01-0.1-0.024-0.147C18.863,27.869,18.501,27.869,18.196,27.735"/>
<path opacity="0.2" fill="#FFFFFF" enable-background="new    " d="M1.465,5.794c0.278,2.781,0.992,8.303,2.681,13.791
	c1.349,4.375,3.035,7.863,5.075,10.378c0.321,0.396,0.903,0.456,1.298,0.135c0.395-0.322,0.456-0.903,0.134-1.298
	c-1.827-2.247-3.445-5.533-4.744-9.757C4.278,13.746,3.571,8.318,3.302,5.611c-0.051-0.507-0.503-0.877-1.01-0.827
	C1.785,4.835,1.415,5.287,1.465,5.794z"/>
</svg>
