<?xml version="1.0" encoding="utf-8"?>
<!-- Generator: Adobe Illustrator 17.0.0, SVG Export Plug-In . SVG Version: 6.00 Build 0)  -->
<!DOCTYPE svg PUBLIC "-//W3C//DTD SVG 1.1//EN" "http://www.w3.org/Graphics/SVG/1.1/DTD/svg11.dtd">
<svg version="1.1" id="Layer_1" xmlns="http://www.w3.org/2000/svg" xmlns:xlink="http://www.w3.org/1999/xlink" x="0px" y="0px"
	 width="22px" height="22px" viewBox="0 0 22 22" enable-background="new 0 0 22 22" xml:space="preserve">
<g>
	<circle fill="#FFF200" cx="11" cy="11" r="11"/>
	<g>
		<path fill="#F37021" d="M19.791,11h-0.497c0,2.292-0.928,4.362-2.429,5.865c-1.502,1.502-3.573,2.429-5.864,2.429
			c-2.292,0-4.362-0.928-5.864-2.429C3.634,15.362,2.707,13.292,2.706,11c0-2.292,0.928-4.362,2.429-5.864
			C6.638,3.634,8.708,2.707,11,2.706c2.292,0,4.362,0.928,5.864,2.429c1.502,1.502,2.429,3.573,2.429,5.864L19.791,11h0.497
			c0-2.563-1.04-4.888-2.72-6.567c-1.679-1.68-4.004-2.721-6.567-2.72c-2.563,0-4.888,1.04-6.567,2.72
			C2.753,6.112,1.712,8.437,1.712,11c0,2.563,1.04,4.888,2.72,6.567c1.679,1.68,4.004,2.721,6.567,2.72
			c2.563,0,4.888-1.04,6.567-2.72c1.68-1.679,2.721-4.004,2.72-6.567L19.791,11z"/>
	</g>
	<g>
		<path fill="#F37021" d="M10.574,14.484c-0.462-0.057-0.908-0.172-1.338-0.346c-0.429-0.174-0.822-0.396-1.176-0.666l0.831-1.215
			c0.291,0.22,0.574,0.403,0.847,0.549c0.273,0.146,0.57,0.25,0.889,0.314v-1.694c-0.383-0.107-0.719-0.224-1.007-0.352
			c-0.288-0.128-0.525-0.28-0.714-0.458c-0.189-0.177-0.33-0.385-0.427-0.623C8.384,9.756,8.336,9.48,8.336,9.168V9.147
			c0-0.298,0.054-0.568,0.16-0.81c0.107-0.241,0.257-0.451,0.453-0.629C9.144,7.531,9.38,7.387,9.658,7.277
			c0.277-0.11,0.582-0.183,0.916-0.218V6.44h1.108V7.08c0.383,0.057,0.736,0.151,1.059,0.282c0.323,0.132,0.63,0.3,0.922,0.506
			l-0.714,1.246c-0.213-0.142-0.43-0.268-0.65-0.378c-0.22-0.11-0.444-0.194-0.671-0.251v1.609c0.81,0.22,1.398,0.508,1.763,0.863
			c0.366,0.355,0.549,0.831,0.549,1.427v0.021c0,0.298-0.055,0.568-0.166,0.81c-0.11,0.241-0.263,0.451-0.458,0.629
			c-0.196,0.177-0.432,0.323-0.708,0.437c-0.277,0.114-0.586,0.189-0.927,0.224v1.055h-1.108V14.484z M10.627,8.39
			c-0.256,0.036-0.442,0.112-0.559,0.229C9.951,8.737,9.892,8.88,9.892,9.051v0.021c0,0.163,0.049,0.303,0.149,0.42
			c0.1,0.117,0.295,0.229,0.586,0.336V8.39z M11.628,13.173c0.505-0.078,0.757-0.305,0.757-0.681V12.47
			c0-0.184-0.054-0.336-0.16-0.453c-0.107-0.117-0.305-0.229-0.596-0.336V13.173z"/>
	</g>
</g>
</svg>
