<?xml version="1.0" encoding="utf-8"?>
<!-- Generator: Adobe Illustrator 17.0.0, SVG Export Plug-In . SVG Version: 6.00 Build 0)  -->
<!DOCTYPE svg PUBLIC "-//W3C//DTD SVG 1.1//EN" "http://www.w3.org/Graphics/SVG/1.1/DTD/svg11.dtd">
<svg version="1.1" id="Layer_1" xmlns="http://www.w3.org/2000/svg" xmlns:xlink="http://www.w3.org/1999/xlink" x="0px" y="0px"
	 width="54px" height="33.071px" viewBox="0 0 54 33.071" enable-background="new 0 0 54 33.071" xml:space="preserve">
<path opacity="0.15" fill="#483B57" enable-background="new    " d="M19.84,26.312l-0.052-0.076
	c-0.009-0.012-0.016-0.024-0.025-0.036l-1.632-2.364c0.34-0.224,0.639-0.48,0.895-0.77c0.534-0.604,0.8-1.401,0.8-2.389V20.63
	c0-0.565-0.094-1.059-0.283-1.483c-0.065-0.146-0.138-0.281-0.216-0.411l0.008,0.005l-1.902-3.092
	c-0.086-0.164-0.181-0.319-0.285-0.463l-0.023-0.038l0.001,0.009c-0.046-0.064-0.093-0.126-0.143-0.186l0.001-0.001
	c-0.063-0.076-0.129-0.148-0.198-0.216c-0.509-0.51-1.156-0.897-1.936-1.16c-0.778-0.261-1.765-0.394-2.958-0.395l-0.001,0.002
	c-0.004,0-0.009,0-0.014,0H2.204v14.684v0.001v2.588l0,0v0.001l2.699,2.586h9.148c1.037,0,1.953-0.113,2.746-0.341
	c0.794-0.227,1.458-0.545,1.993-0.954c0.535-0.408,0.935-0.891,1.202-1.447c0.267-0.557,0.401-1.165,0.401-1.824v-0.048
	C20.391,27.584,20.207,26.873,19.84,26.312L19.84,26.312z M3.616,5.292v2.889H3.317c-0.144,0-0.26,0.117-0.26,0.26v2.837
	c0,0.59,0.478,1.068,1.068,1.068h1.11c0.59,0,1.068-0.478,1.068-1.068V8.441c0-0.144-0.117-0.26-0.26-0.26H5.745V5.308
	c0.2,0.021,0.4,0.043,0.598,0.075l1.822,0.666h0.995V2.635H0.037v3.414h0.982l1.835-0.667C3.108,5.343,3.362,5.314,3.616,5.292z
	 M4.511,5.25C4.625,5.249,4.737,5.251,4.85,5.253V8.18H4.511V5.25z M13.17,11.832h-1.44v-0.001h1.106v-0.415H11.73V11.15h0.383
	v-1.116h0.604V7.981h-0.419V7.468H11.73V7.311h0.699V6.798h-0.315V6.402h0.315v-0.16h0.19V6.006h-0.19V5.889h-0.315V5.534h0.315
	V5.021H11.73V4.725h1.047V3.797H11.73V3.54h0.77V3.344h0.403V3.146h0.267V2.633H9.923v0.513h0.267v0.198h0.403V3.54h0.77v0.257
	h-1.047v0.928h1.047v0.296h-0.699v0.513h0.314v0.069h0.002v0.286h-0.315v0.117h-0.19v0.237h0.19v0.16h0.315v0.324h-0.002v0.069
	h0.002v0.002h-0.315v0.513h0.699v0.158h-0.568v0.513h-0.419v2.053h0.603v0.069h0.002v1.047h0.383v0.267h-1.106v0.415h1.106v0.001
	h-1.44v0.513h3.246v-0.513H13.17z M15.083,12.345h1.669c0.429,0,0.775-0.347,0.775-0.775V7.865l3.259,4.05
	c0.219,0.272,0.55,0.43,0.899,0.43h1.558c0.429,0,0.775-0.347,0.775-0.775v-8.16c0-0.429-0.347-0.775-0.775-0.775h-1.668
	c-0.429,0-0.775,0.347-0.775,0.775v3.512l-3.108-3.858c-0.219-0.272-0.55-0.43-0.899-0.43h-1.711c-0.429,0-0.775,0.347-0.775,0.775
	v8.16C14.308,11.999,14.656,12.345,15.083,12.345z M25.734,12.347h2.022c0.337,0,0.612-0.274,0.612-0.612V9.857l0.23-0.298v0.442
	l0.603-0.733l0.178-0.186l0.107,0.178l-0.178,0.183l1.617,2.62c0.109,0.176,0.301,0.284,0.508,0.284h2.969
	c0.247,0,0.397-0.272,0.267-0.482l-3.03-4.819l-0.176,0.181l-0.122-0.19l0.177-0.185l2.974-3.707
	c0.166-0.205,0.019-0.511-0.245-0.511h-2.821c-0.187,0-0.363,0.087-0.476,0.235l-2.351,3.097v0.376l-0.23,0.271V3.248
	c0-0.339-0.274-0.612-0.612-0.612h-2.022c-0.339,0-0.612,0.273-0.612,0.612v8.487C25.122,12.071,25.395,12.347,25.734,12.347z
	 M47.73,9.567h0.136v0.004h0.556l0.001,0.002c0.147,0.002,0.417,0.001,0.758-0.019H49.18l0.066,0.114c-0.001,0-0.002,0-0.003,0
	l0.244,0.437c0.002,0,0.005,0,0.008,0l0.065,0.114c-0.286,0.018-0.528,0.024-0.692,0.024l1.387,2.102h3.704l-1.826-2.668
	c-0.232,0.102-0.478,0.184-0.728,0.252l-0.069-0.103h0.001L51.209,9.64l-0.238-0.355c0.248-0.065,0.494-0.145,0.726-0.242
	c0.591-0.286,1.058-0.675,1.401-1.165s0.513-1.091,0.513-1.803V6.047c0-0.5-0.073-0.934-0.221-1.304s-0.37-0.702-0.665-0.998
	c-0.343-0.342-0.794-0.613-1.353-0.812c-0.559-0.199-1.273-0.298-2.143-0.298h-4.746v9.711h3.248L47.73,9.567L47.73,9.567z
	 M47.73,5.356h0.136V5.354h1.278c0.379,0,0.68,0.077,0.903,0.23c0.221,0.152,0.333,0.387,0.333,0.7v0.028
	c0,0.296-0.111,0.527-0.333,0.693c-0.222,0.167-0.527,0.249-0.916,0.249H47.73L47.73,5.356L47.73,5.356z M53.079,13.2l0.001-0.001
	h-6.263L46.816,13.2h-8.757l-1.761,3.891v4.52H41v11.46h5.342l2.575-2.597v-8.862h2.128L54,18.086V13.2L53.079,13.2L53.079,13.2z
	 M39.145,4.96c0,0.158,0.127,0.285,0.285,0.285h3.54c0.158,0,0.285-0.127,0.285-0.285V4.767h0.252V4.214h-0.252V3.666h0.252V3.113
	h-0.252V2.865c0-0.158-0.127-0.285-0.285-0.285h-3.54c-0.05,0-0.095,0.014-0.136,0.036h-0.314v0.829h0.165v0.298h-0.165v0.829h0.165
	V4.96L39.145,4.96z M39.43,12.293h3.606c0.158,0,0.285-0.127,0.285-0.285v-0.134h0.186v-0.553h-0.186v-0.549h0.186v-0.553h-0.186
	V9.914c0-0.158-0.127-0.285-0.285-0.285H39.43c-0.158,0-0.285,0.127-0.285,0.285v0.388h-0.165v0.829h0.165v0.288h-0.165v0.829h0.299
	C39.323,12.275,39.375,12.293,39.43,12.293z M39.43,8.574h3.215c0.158,0,0.285-0.127,0.285-0.285V8.263h0.22V7.71h-0.22V7.161h0.22
	V6.609h-0.22V6.514c0-0.158-0.127-0.285-0.285-0.285H39.43c-0.12,0-0.222,0.075-0.265,0.179h-0.186v0.829h0.165v0.335h-0.165v0.829
	h0.188C39.212,8.503,39.313,8.574,39.43,8.574z M35.897,11.757l0.089-0.09c0.333,0.356,0.804,0.581,1.328,0.581h1.665v-0.829h-1.665
	c-0.297,0-0.563-0.132-0.744-0.339l0.213-0.215c0.229,0.166,0.511,0.266,0.815,0.266h1.381v-0.829h-1.381
	c-0.076,0-0.148-0.015-0.214-0.043l0.889-0.895c0.11-0.111,0.172-0.261,0.172-0.418V8.4h0.535V7.571h-0.535V7.236h0.535V6.407
	h-0.535V5.926c0-0.157-0.062-0.307-0.172-0.418l-0.91-0.917c0.04-0.012,0.082-0.021,0.126-0.021h1.49V3.741h-1.49
	c-0.274,0-0.528,0.087-0.737,0.234l-0.244-0.246c0.145-0.173,0.363-0.284,0.606-0.284h1.865V2.616h-1.865
	c-0.471,0-0.893,0.203-1.189,0.525l-0.028-0.028c-0.254-0.213-0.64-0.031-0.64,0.299v8.043
	C35.257,11.789,35.643,11.97,35.897,11.757z M36.073,21.731h-0.125l-0.022-1.409c0.027-0.05,0.033-0.11,0.011-0.167l-0.433-1.109
	c-0.04-0.103-0.156-0.153-0.258-0.113l-0.717,0.28c-0.042-0.081-0.086-0.161-0.132-0.241V17.41l0,0
	c0.002-0.053-0.017-0.108-0.058-0.148l-0.825-0.825l0,0l-0.018-0.018c-0.078-0.078-0.204-0.078-0.282,0l-0.522,0.522
	c-0.183-0.149-0.373-0.289-0.569-0.421v-0.934v-0.001c0.001-0.078-0.043-0.152-0.119-0.186l-1.092-0.478
	c-0.102-0.044-0.219,0.002-0.262,0.104l-0.28,0.638c-0.431-0.141-0.88-0.244-1.342-0.302v-0.675c0-0.11-0.09-0.2-0.2-0.2h-1.191
	c-0.11,0-0.2,0.09-0.2,0.2v0.651c-0.372,0.035-0.735,0.097-1.088,0.186l-0.23-0.589c-0.04-0.103-0.156-0.153-0.258-0.113
	l-1.109,0.433c-0.08,0.031-0.127,0.108-0.126,0.188l-0.001-0.001v0.764c-0.336,0.186-0.656,0.396-0.956,0.631l-0.417-0.417
	c-0.078-0.078-0.204-0.078-0.282,0l-0.842,0.842c-0.064,0.064-0.075,0.16-0.033,0.235l-0.025-0.033v1.116
	c-0.064,0.098-0.126,0.197-0.186,0.298l-0.513-0.225c-0.102-0.044-0.219,0.002-0.264,0.103l-0.478,1.091
	c-0.016,0.038-0.021,0.079-0.013,0.117l-0.003-0.001l0.001,1.704l0,0c-0.001,0.023,0.002,0.044,0.009,0.066h-0.23
	c-0.11,0-0.2,0.09-0.2,0.2v2.938c0,0.11,0.09,0.2,0.2,0.2h0.121v1.498l0,0c-0.001,0.026,0.003,0.053,0.014,0.079l0.433,1.109
	c0.04,0.103,0.156,0.153,0.258,0.113l0.518-0.203c0.102,0.191,0.213,0.376,0.33,0.556v1.121l0.01-0.006
	c-0.022,0.069-0.006,0.147,0.049,0.201l0.842,0.842c0.078,0.078,0.204,0.078,0.282,0l0.416-0.416l0.001-0.001
	c0.215,0.168,0.44,0.325,0.674,0.469v0.782c-0.001,0.078,0.043,0.153,0.12,0.186l1.091,0.478c0.102,0.044,0.219-0.002,0.264-0.103
	l0.252-0.575c0.441,0.13,0.899,0.219,1.371,0.264v0.651c0,0.11,0.09,0.2,0.2,0.2h1.191c0.11,0,0.2-0.09,0.2-0.2v-0.678
	c0.364-0.046,0.72-0.119,1.065-0.217l0.253,0.647c0.04,0.103,0.156,0.153,0.258,0.113l1.109-0.433
	c0.078-0.03,0.125-0.104,0.126-0.181l0,0v-0.905c0.298-0.18,0.583-0.381,0.851-0.602l0.522,0.522c0.078,0.078,0.204,0.078,0.282,0
	l0.842-0.842c0.055-0.055,0.07-0.134,0.048-0.203l0.011,0.008v-1.5l0.698,0.306c0.102,0.044,0.219-0.002,0.264-0.103l0.478-1.091
	c0.014-0.031,0.017-0.064,0.015-0.095h0.001v-1.72l-0.001,0.002c0.002-0.025-0.001-0.049-0.009-0.072h0.23c0.11,0,0.2-0.09,0.2-0.2
	v-2.938C36.273,21.82,36.183,21.731,36.073,21.731z M22.126,17.545L22.126,17.545L22.126,17.545L22.126,17.545L22.126,17.545z"/>
<polygon fill="#76C69B" points="28.718,3.576 28.234,4.146 28.185,7.465 28.718,6.773 "/>
<polygon fill="#76C69B" points="29.252,6.349 29.577,6.893 31.621,4.952 31.166,4.242 "/>
<rect x="38.942" y="0.036" fill="#76C69B" width="0.514" height="0.829"/>
<rect x="38.942" y="1.163" fill="#76C69B" width="0.514" height="0.829"/>
<rect x="38.942" y="3.828" fill="#76C69B" width="0.514" height="0.829"/>
<rect x="38.942" y="4.992" fill="#76C69B" width="0.514" height="0.829"/>
<rect x="38.942" y="7.721" fill="#76C69B" width="0.514" height="0.829"/>
<rect x="38.942" y="8.839" fill="#76C69B" width="0.514" height="0.829"/>
<path fill="#76C69B" d="M49.142,6.974l0.383,0.675c0,0,1.497,0.3,1.512,0.306c0.015,0.005,0.395-0.49,0.395-0.49l-0.067-0.113
	l-0.475-0.71L49.142,6.974z"/>
<path fill="#483B57" d="M24.586,12.861v1.085c0,0,0.486-0.454,0.463-0.475C25.027,13.448,24.586,12.861,24.586,12.861z"/>
<polygon fill="#483B57" points="32.086,13.003 32.086,14.385 31.598,13.73 "/>
<polygon fill="#483B57" points="34.359,14.829 34.359,16.673 33.538,15.492 34.333,14.829 "/>
<polyline fill="#483B57" points="22.03,14.882 22.03,16.161 22.685,15.313 22.088,14.963 "/>
<polygon fill="#483B57" points="35.888,17.74 35.914,19.412 34.861,18.114 "/>
<polygon fill="#483B57" points="17.088,12.568 19.297,16.161 17.441,14.717 "/>
<polygon fill="#483B57" points="17.995,21.114 19.802,23.731 18.317,23.075 "/>
<path fill="#483B57" d="M3.019,5.86v2.837c0,0.59,0.478,1.068,1.068,1.068h1.11c0.59,0,1.068-0.478,1.068-1.068V5.86
	c0-0.144-0.117-0.26-0.26-0.26H3.279C3.135,5.6,3.019,5.716,3.019,5.86z M4.561,9.127c-0.508,0-0.92-0.414-0.92-0.921
	c0-0.51,0.413-0.921,0.92-0.921c0.51,0,0.921,0.413,0.921,0.921C5.482,8.713,5.071,9.127,4.561,9.127z M0,0.053v3.414h0.982
	l1.835-0.667C3.972,2.622,5.149,2.622,6.305,2.8l1.822,0.666h0.995V0.053L0,0.053L0,0.053z"/>
<path fill="#76C69B" d="M11.326,0.053v9.711h0.184V0.053H11.326z"/>
<path fill="#FFFFFF" d="M11.508,0.053v9.711h0.184V0.053H11.508z"/>
<path fill="#483B57" d="M9.885,0.053v0.513h3.246V0.053H9.885z"/>
<path fill="#483B57" d="M9.885,9.251v0.513h3.246V9.251H9.885z"/>
<path fill="#483B57" d="M10.555,0.765v0.197h1.907V0.765H10.555z"/>
<path fill="#483B57" d="M10.278,1.217v0.928h2.46V1.217H10.278z"/>
<path fill="#483B57" d="M10.153,0.567v0.198h2.713V0.567H10.153z"/>
<path fill="#483B57" d="M10.626,2.441v0.513h1.765V2.441H10.626z"/>
<path fill="#483B57" d="M10.437,3.427v0.237h2.145V3.427H10.437z"/>
<path fill="#483B57" d="M10.626,3.309v0.513h1.765V3.309H10.626z"/>
<path fill="#483B57" d="M10.943,2.954v1.264h1.133V2.954H10.943z"/>
<path fill="#483B57" d="M10.626,4.217V4.73h1.765V4.217H10.626z"/>
<path fill="#483B57" d="M10.757,4.889v0.513h1.503V4.889H10.757z"/>
<path fill="#483B57" d="M10.943,7.198V8.57h1.133V7.198H10.943z"/>
<path fill="#483B57" d="M10.22,8.837v0.415h2.579V8.837H10.22z"/>
<path fill="#483B57" d="M10.338,5.402v2.053h2.341V5.402H10.338z"/>
<path fill="#483B57" d="M20.763,0.828v3.512l-3.108-3.858c-0.219-0.272-0.55-0.43-0.899-0.43h-1.711
	c-0.429,0-0.775,0.347-0.775,0.775v8.16c0,0.429,0.347,0.775,0.775,0.775h1.669c0.429,0,0.775-0.347,0.775-0.775V5.283l3.259,4.05
	c0.219,0.272,0.55,0.43,0.899,0.43h1.558c0.429,0,0.775-0.347,0.775-0.775v-8.16c0-0.429-0.347-0.775-0.775-0.775h-1.669
	C21.11,0.053,20.763,0.401,20.763,0.828z"/>
<path fill="#483B57" d="M20.763,0.828v3.512l-3.108-3.858c-0.219-0.272-0.55-0.43-0.899-0.43h-1.711
	c-0.429,0-0.775,0.347-0.775,0.775v8.16c0,0.429,0.347,0.775,0.775,0.775h1.669c0.429,0,0.775-0.347,0.775-0.775V5.283l3.259,4.05
	c0.219,0.272,0.55,0.43,0.899,0.43h1.558c0.429,0,0.775-0.347,0.775-0.775v-8.16c0-0.429-0.347-0.775-0.775-0.775h-1.669
	C21.11,0.053,20.763,0.401,20.763,0.828z"/>
<path fill="#76C69B" d="M21.76,8.581c-0.062,0-0.12-0.028-0.159-0.077l-5.296-6.58v6.623c0,0.018-0.015,0.035-0.035,0.035h-0.782
	c-0.018,0-0.035-0.015-0.035-0.035V1.271c0-0.018,0.015-0.035,0.035-0.035h1.155c0.062,0,0.12,0.028,0.159,0.076l5.145,6.385V1.271
	c0-0.018,0.015-0.035,0.035-0.035h0.783c0.018,0,0.035,0.015,0.035,0.035v7.275c0,0.018-0.015,0.035-0.035,0.035L21.76,8.581
	L21.76,8.581z"/>
<path fill="#483B57" d="M17.181,1.14h-2.112c0.01-0.029,0.024-0.058,0.041-0.085h2c0.005,0.005,0.012,0.012,0.016,0.017L17.181,1.14
	z"/>
<path fill="#483B57" d="M23.185,1.14H21.56c0.01-0.029,0.024-0.058,0.041-0.085h1.542C23.161,1.082,23.176,1.111,23.185,1.14z"/>
<polygon fill="#483B57" points="17.487,1.521 15.04,1.521 15.04,1.436 17.418,1.436 "/>
<rect x="21.533" y="1.436" fill="#483B57" width="1.679" height="0.084"/>
<polygon fill="#483B57" points="17.794,1.902 15.04,1.902 15.04,1.817 17.725,1.817 "/>
<rect x="21.533" y="1.817" fill="#483B57" width="1.679" height="0.085"/>
<polygon fill="#483B57" points="18.101,2.283 15.04,2.283 15.04,2.198 18.032,2.198 "/>
<rect x="21.533" y="2.198" fill="#483B57" width="1.679" height="0.085"/>
<polygon fill="#483B57" points="18.409,2.664 15.04,2.664 15.04,2.579 18.339,2.579 "/>
<rect x="21.533" y="2.579" fill="#483B57" width="1.679" height="0.085"/>
<rect x="15.04" y="3.343" fill="#483B57" width="1.679" height="0.084"/>
<rect x="15.04" y="3.723" fill="#483B57" width="1.679" height="0.085"/>
<rect x="15.04" y="4.104" fill="#483B57" width="1.679" height="0.085"/>
<rect x="15.04" y="4.485" fill="#483B57" width="1.679" height="0.085"/>
<rect x="15.04" y="4.867" fill="#483B57" width="1.679" height="0.085"/>
<rect x="15.04" y="5.248" fill="#483B57" width="1.679" height="0.085"/>
<rect x="15.04" y="5.629" fill="#483B57" width="1.679" height="0.084"/>
<rect x="15.04" y="6.009" fill="#483B57" width="1.679" height="0.085"/>
<rect x="15.04" y="6.39" fill="#483B57" width="1.679" height="0.085"/>
<rect x="15.04" y="6.773" fill="#483B57" width="1.679" height="0.085"/>
<rect x="15.04" y="7.154" fill="#483B57" width="1.679" height="0.085"/>
<rect x="15.04" y="7.535" fill="#483B57" width="1.679" height="0.085"/>
<rect x="15.04" y="7.916" fill="#483B57" width="1.679" height="0.084"/>
<path fill="#483B57" d="M16.705,8.678c-0.008,0.029-0.017,0.058-0.032,0.085h-1.587c-0.014-0.027-0.025-0.056-0.032-0.085H16.705z"
	/>
<rect x="15.04" y="8.297" fill="#483B57" width="1.679" height="0.085"/>
<polygon fill="#483B57" points="18.715,3.046 15.04,3.046 15.04,2.961 18.646,2.961 "/>
<rect x="21.533" y="2.961" fill="#483B57" width="1.679" height="0.085"/>
<polygon fill="#483B57" points="19.022,3.427 16.966,3.427 16.899,3.343 18.954,3.343 "/>
<rect x="21.533" y="3.343" fill="#483B57" width="1.679" height="0.084"/>
<polygon fill="#483B57" points="19.33,3.808 17.274,3.808 17.205,3.723 19.26,3.723 "/>
<rect x="21.533" y="3.723" fill="#483B57" width="1.679" height="0.085"/>
<polygon fill="#483B57" points="19.637,4.189 17.58,4.189 17.512,4.104 19.567,4.104 "/>
<rect x="21.533" y="4.104" fill="#483B57" width="1.679" height="0.085"/>
<polygon fill="#483B57" points="19.943,4.571 17.887,4.571 17.819,4.485 19.874,4.485 "/>
<rect x="21.533" y="4.485" fill="#483B57" width="1.679" height="0.085"/>
<polygon fill="#483B57" points="20.251,4.952 18.194,4.952 18.126,4.866 20.183,4.866 "/>
<rect x="21.533" y="4.867" fill="#483B57" width="1.679" height="0.085"/>
<polygon fill="#483B57" points="20.558,5.333 18.5,5.333 18.432,5.248 20.49,5.248 "/>
<rect x="21.533" y="5.248" fill="#483B57" width="1.679" height="0.085"/>
<polygon fill="#483B57" points="20.865,5.713 18.806,5.713 18.739,5.629 20.798,5.629 "/>
<rect x="21.533" y="5.629" fill="#483B57" width="1.679" height="0.084"/>
<polygon fill="#483B57" points="21.171,6.094 19.113,6.094 19.046,6.009 21.103,6.009 "/>
<rect x="21.533" y="6.009" fill="#483B57" width="1.679" height="0.085"/>
<polygon fill="#483B57" points="21.479,6.476 19.421,6.476 19.353,6.39 21.411,6.39 "/>
<rect x="21.533" y="6.39" fill="#483B57" width="1.679" height="0.085"/>
<polygon fill="#483B57" points="23.212,6.773 23.212,6.857 19.727,6.857 19.659,6.773 "/>
<polygon fill="#483B57" points="23.212,7.154 23.212,7.239 20.034,7.239 19.966,7.154 "/>
<polygon fill="#483B57" points="23.212,7.535 23.212,7.62 20.341,7.62 20.273,7.535 "/>
<polygon fill="#483B57" points="23.212,7.916 23.212,8.001 20.646,8.001 20.579,7.916 "/>
<path fill="#483B57" d="M23.198,8.678c-0.008,0.029-0.017,0.058-0.032,0.085h-1.904l-0.069-0.085H23.198z"/>
<polygon fill="#483B57" points="23.212,8.297 23.212,8.382 20.953,8.382 20.885,8.297 "/>
<path fill="#483B57" d="M34.208,0.054h-2.821c-0.187,0-0.363,0.087-0.476,0.235L28.56,3.387V7.42l0.603-0.733l2.317-2.415
	l2.974-3.707C34.619,0.36,34.473,0.054,34.208,0.054z M27.718,0.054h-2.022c-0.339,0-0.612,0.273-0.612,0.612v8.487
	c0,0.337,0.273,0.612,0.612,0.612h2.022c0.337,0,0.612-0.274,0.612-0.612V0.666C28.331,0.327,28.055,0.054,27.718,0.054z
	 M34.631,9.284l-3.03-4.819l-2.33,2.398l1.617,2.62c0.109,0.176,0.301,0.284,0.508,0.284h2.969
	C34.612,9.765,34.763,9.493,34.631,9.284z"/>
<path fill="#483B57" d="M51.002,6.81c-0.634,0.17-1.286,0.245-1.797,0.279l0.244,0.437c0.513-0.028,1.191-0.102,1.849-0.279
	L51.002,6.81z M52.094,7.098c-1.173,0.51-2.687,0.564-3.265,0.565l1.387,2.102h3.704L52.094,7.098z M53.352,2.162
	c-0.148-0.369-0.37-0.702-0.665-0.998c-0.343-0.342-0.794-0.613-1.353-0.812c-0.559-0.199-1.273-0.298-2.143-0.298h-1.362v2.719
	h1.278c0.379,0,0.679,0.077,0.903,0.23c0.221,0.152,0.333,0.387,0.333,0.7v0.028c0,0.296-0.111,0.527-0.333,0.693
	c-0.222,0.167-0.527,0.249-0.916,0.249h-1.265v2.317h0.556l0.001,0.002c0.446,0.005,2.04-0.014,3.273-0.529
	c0.591-0.286,1.058-0.675,1.401-1.165c0.342-0.49,0.513-1.091,0.513-1.803V3.468C53.573,2.967,53.5,2.533,53.352,2.162z
	 M44.444,9.765h3.248V0.054h-3.248V9.765z"/>
<path fill="#483B57" d="M40.962,19.031H36.26v-4.52l1.761-3.891l12.986,3.891l2.956,0.995l-2.956,3.525h-4.702l2.575,8.862
	l-2.575,2.597h-5.342L40.962,19.031L40.962,19.031z"/>
<path fill="#483B57" d="M4.864,14.001h9.228c1.146,0,2.091,0.126,2.836,0.377c0.745,0.252,1.361,0.62,1.848,1.106
	c0.298,0.298,0.541,0.659,0.73,1.083c0.188,0.423,0.283,0.918,0.283,1.483v0.048c0,0.988-0.267,1.785-0.8,2.389
	c-0.534,0.605-1.247,1.064-2.142,1.377c1.074,0.314,1.928,0.777,2.56,1.389c0.632,0.612,0.948,1.483,0.948,2.613v0.048
	c0,0.659-0.134,1.268-0.401,1.824c-0.267,0.557-0.667,1.04-1.202,1.447c-0.535,0.408-1.199,0.726-1.993,0.954
	c-0.794,0.228-1.71,0.341-2.746,0.341H4.865l-2.699-2.586L4.864,14.001z M12.633,20.475c1.161,0,1.742-0.377,1.742-1.13v-0.048
	c0-0.753-0.589-1.13-1.766-1.13h-2.377v2.307L12.633,20.475L12.633,20.475z M12.986,26.312c0.596,0,1.048-0.109,1.353-0.329
	c0.306-0.219,0.459-0.51,0.459-0.87v-0.048c0-0.361-0.149-0.651-0.447-0.87c-0.298-0.219-0.809-0.076-1.405-0.076h-2.778
	l0.063,2.193H12.986L12.986,26.312z"/>
<path fill="#FFFFFF" d="M2.165,10.62h9.674c1.201,0,2.192,0.132,2.973,0.395s1.427,0.65,1.938,1.16
	c0.312,0.313,0.567,0.691,0.765,1.135c0.198,0.444,0.296,0.962,0.296,1.554v0.05c0,1.037-0.28,1.872-0.839,2.505
	c-0.559,0.634-1.308,1.115-2.245,1.444c1.125,0.329,2.021,0.814,2.683,1.456c0.662,0.642,0.994,1.555,0.994,2.739v0.05
	c0,0.691-0.14,1.328-0.42,1.913s-0.7,1.09-1.26,1.517c-0.561,0.428-1.256,0.761-2.089,0.999c-0.832,0.239-1.792,0.357-2.879,0.357
	H2.164V10.62H2.165z M10.309,17.405c1.217,0,1.826-0.395,1.826-1.185v-0.05c0-0.789-0.617-1.185-1.851-1.185H7.791v2.418h2.517
	V17.405z M10.679,23.526c0.625,0,1.098-0.114,1.419-0.346c0.321-0.23,0.482-0.535,0.482-0.913v-0.05
	c0-0.378-0.157-0.683-0.469-0.913c-0.313-0.23-0.782-0.346-1.406-0.346H7.793v2.566L10.679,23.526L10.679,23.526z"/>
<path fill="none" stroke="#E7E7E7" stroke-miterlimit="10" d="M2.849,27.21V11.302h8.99c1.12,0,2.048,0.121,2.756,0.36
	c0.677,0.228,1.24,0.563,1.672,0.996c0.252,0.252,0.461,0.565,0.623,0.93c0.158,0.354,0.238,0.784,0.238,1.278v0.05
	c0,0.872-0.218,1.543-0.667,2.052c-0.478,0.542-1.138,0.963-1.959,1.251l-2.007,0.704l2.041,0.597
	c1.014,0.297,1.821,0.731,2.4,1.291c0.529,0.512,0.786,1.247,0.786,2.249v0.05c0,0.584-0.119,1.129-0.353,1.617
	c-0.231,0.483-0.588,0.91-1.059,1.27c-0.49,0.374-1.117,0.672-1.862,0.886c-0.767,0.22-1.672,0.332-2.691,0.332L2.849,27.21
	L2.849,27.21z M7.109,24.208h3.57c0.78,0,1.374-0.154,1.818-0.474c0.501-0.36,0.766-0.867,0.766-1.468v-0.05
	c0-0.596-0.258-1.103-0.746-1.462c-0.438-0.323-1.03-0.48-1.812-0.48H7.109L7.109,24.208L7.109,24.208z M7.109,18.089h3.2
	c0.754,0,2.509-0.183,2.509-1.867v-0.05c0-1.686-1.772-1.867-2.534-1.867H7.109V18.089z"/>
<path fill="#FFFFFF" d="M43.104,15.506H38.02V10.62h15.941v4.886h-5.084v12.388h-5.775V15.506H43.104z"/>
<rect x="3.578" y="2.441" fill="#483B57" width="0.895" height="3.159"/>
<rect x="4.811" y="2.441" fill="#483B57" width="0.895" height="3.159"/>
<rect x="15.04" y="4.104" fill="#483B57" width="1.679" height="0.085"/>
<rect x="15.04" y="4.104" fill="#483B57" width="1.679" height="0.085"/>
<rect x="15.04" y="5.248" fill="#483B57" width="1.679" height="0.085"/>
<rect x="15.04" y="5.248" fill="#483B57" width="1.679" height="0.085"/>
<rect x="15.04" y="7.535" fill="#483B57" width="1.679" height="0.085"/>
<rect x="15.04" y="7.535" fill="#483B57" width="1.679" height="0.085"/>
<rect x="15.04" y="7.916" fill="#483B57" width="1.679" height="0.084"/>
<rect x="15.04" y="7.916" fill="#483B57" width="1.679" height="0.084"/>
<polygon fill="#483B57" points="19.33,3.808 17.274,3.808 17.205,3.723 19.26,3.723 "/>
<polygon fill="#483B57" points="19.33,3.808 17.274,3.808 17.205,3.723 19.26,3.723 "/>
<rect x="15.04" y="3.723" fill="#483B57" width="1.679" height="0.085"/>
<rect x="15.04" y="3.723" fill="#483B57" width="1.679" height="0.085"/>
<rect x="15.04" y="4.867" fill="#483B57" width="1.679" height="0.085"/>
<rect x="15.04" y="4.867" fill="#483B57" width="1.679" height="0.085"/>
<rect x="15.04" y="5.629" fill="#483B57" width="1.679" height="0.084"/>
<rect x="15.04" y="5.629" fill="#483B57" width="1.679" height="0.084"/>
<polygon fill="#483B57" points="19.637,4.189 17.58,4.189 17.512,4.104 19.567,4.104 "/>
<polygon fill="#483B57" points="19.637,4.189 17.58,4.189 17.512,4.104 19.567,4.104 "/>
<rect x="15.04" y="6.773" fill="#483B57" width="1.679" height="0.085"/>
<rect x="15.04" y="6.773" fill="#483B57" width="1.679" height="0.085"/>
<rect x="15.04" y="6.009" fill="#483B57" width="1.679" height="0.085"/>
<rect x="15.04" y="6.009" fill="#483B57" width="1.679" height="0.085"/>
<rect x="15.04" y="6.39" fill="#483B57" width="1.679" height="0.085"/>
<rect x="15.04" y="6.39" fill="#483B57" width="1.679" height="0.085"/>
<rect x="15.04" y="4.485" fill="#483B57" width="1.679" height="0.085"/>
<rect x="15.04" y="4.485" fill="#483B57" width="1.679" height="0.085"/>
<polygon fill="#483B57" points="18.409,2.664 15.04,2.664 15.04,2.579 18.339,2.579 "/>
<polygon fill="#483B57" points="18.409,2.664 15.04,2.664 15.04,2.579 18.339,2.579 "/>
<polygon fill="#483B57" points="17.487,1.521 15.04,1.521 15.04,1.436 17.418,1.436 "/>
<polygon fill="#483B57" points="17.487,1.521 15.04,1.521 15.04,1.436 17.418,1.436 "/>
<polygon fill="#483B57" points="18.101,2.283 15.04,2.283 15.04,2.198 18.032,2.198 "/>
<polygon fill="#483B57" points="18.101,2.283 15.04,2.283 15.04,2.198 18.032,2.198 "/>
<polygon fill="#483B57" points="17.794,1.902 15.04,1.902 15.04,1.817 17.725,1.817 "/>
<polygon fill="#483B57" points="17.794,1.902 15.04,1.902 15.04,1.817 17.725,1.817 "/>
<path fill="#483B57" d="M23.198,8.678c-0.008,0.029-0.017,0.058-0.032,0.085h-1.904l-0.069-0.085H23.198z"/>
<path fill="#483B57" d="M23.198,8.678c-0.008,0.029-0.017,0.058-0.032,0.085h-1.904l-0.069-0.085H23.198z"/>
<path fill="#483B57" d="M17.181,1.14h-2.112c0.01-0.029,0.024-0.058,0.041-0.085h2c0.005,0.005,0.012,0.012,0.016,0.017L17.181,1.14
	z"/>
<path fill="#483B57" d="M17.181,1.14h-2.112c0.01-0.029,0.024-0.058,0.041-0.085h2c0.005,0.005,0.012,0.012,0.016,0.017L17.181,1.14
	z"/>
<polygon fill="#483B57" points="20.558,5.333 18.5,5.333 18.432,5.248 20.49,5.248 "/>
<polygon fill="#483B57" points="20.558,5.333 18.5,5.333 18.432,5.248 20.49,5.248 "/>
<polygon fill="#483B57" points="18.715,3.046 15.04,3.046 15.04,2.961 18.646,2.961 "/>
<polygon fill="#483B57" points="18.715,3.046 15.04,3.046 15.04,2.961 18.646,2.961 "/>
<polygon fill="#483B57" points="20.865,5.713 18.806,5.713 18.739,5.629 20.798,5.629 "/>
<polygon fill="#483B57" points="20.865,5.713 18.806,5.713 18.739,5.629 20.798,5.629 "/>
<polygon fill="#483B57" points="20.251,4.952 18.194,4.952 18.126,4.866 20.183,4.866 "/>
<polygon fill="#483B57" points="20.251,4.952 18.194,4.952 18.126,4.866 20.183,4.866 "/>
<polygon fill="#483B57" points="19.943,4.571 17.887,4.571 17.819,4.485 19.874,4.485 "/>
<polygon fill="#483B57" points="19.943,4.571 17.887,4.571 17.819,4.485 19.874,4.485 "/>
<rect x="15.04" y="3.343" fill="#483B57" width="1.679" height="0.084"/>
<polygon fill="#483B57" points="19.022,3.427 16.966,3.427 16.899,3.343 18.954,3.343 "/>
<rect x="15.04" y="3.343" fill="#483B57" width="1.679" height="0.084"/>
<polygon fill="#483B57" points="19.022,3.427 16.966,3.427 16.899,3.343 18.954,3.343 "/>
<rect x="15.04" y="7.154" fill="#483B57" width="1.679" height="0.085"/>
<rect x="15.04" y="7.154" fill="#483B57" width="1.679" height="0.085"/>
<rect x="15.04" y="8.297" fill="#483B57" width="1.679" height="0.085"/>
<rect x="15.04" y="8.297" fill="#483B57" width="1.679" height="0.085"/>
<rect x="21.533" y="2.961" fill="#483B57" width="1.679" height="0.085"/>
<rect x="21.533" y="2.961" fill="#483B57" width="1.679" height="0.085"/>
<rect x="21.533" y="2.198" fill="#483B57" width="1.679" height="0.085"/>
<rect x="21.533" y="2.198" fill="#483B57" width="1.679" height="0.085"/>
<rect x="21.533" y="2.579" fill="#483B57" width="1.679" height="0.085"/>
<rect x="21.533" y="2.579" fill="#483B57" width="1.679" height="0.085"/>
<rect x="21.533" y="3.343" fill="#483B57" width="1.679" height="0.084"/>
<rect x="21.533" y="3.343" fill="#483B57" width="1.679" height="0.084"/>
<rect x="21.533" y="3.723" fill="#483B57" width="1.679" height="0.085"/>
<rect x="21.533" y="3.723" fill="#483B57" width="1.679" height="0.085"/>
<rect x="21.533" y="1.436" fill="#483B57" width="1.679" height="0.084"/>
<rect x="21.533" y="1.436" fill="#483B57" width="1.679" height="0.084"/>
<rect x="21.533" y="4.104" fill="#483B57" width="1.679" height="0.085"/>
<rect x="21.533" y="4.104" fill="#483B57" width="1.679" height="0.085"/>
<path fill="#483B57" d="M23.185,1.14H21.56c0.01-0.029,0.024-0.058,0.041-0.085h1.542C23.161,1.082,23.176,1.111,23.185,1.14z"/>
<path fill="#483B57" d="M23.185,1.14H21.56c0.01-0.029,0.024-0.058,0.041-0.085h1.542C23.161,1.082,23.176,1.111,23.185,1.14z"/>
<rect x="21.533" y="1.817" fill="#483B57" width="1.679" height="0.085"/>
<rect x="21.533" y="1.817" fill="#483B57" width="1.679" height="0.085"/>
<polygon fill="#483B57" points="23.212,7.916 23.212,8.001 20.646,8.001 20.579,7.916 "/>
<polygon fill="#483B57" points="23.212,7.916 23.212,8.001 20.646,8.001 20.579,7.916 "/>
<polygon fill="#483B57" points="23.212,7.535 23.212,7.62 20.341,7.62 20.273,7.535 "/>
<polygon fill="#483B57" points="23.212,7.535 23.212,7.62 20.341,7.62 20.273,7.535 "/>
<polygon fill="#483B57" points="23.212,6.773 23.212,6.857 19.727,6.857 19.659,6.773 "/>
<polygon fill="#483B57" points="23.212,6.773 23.212,6.857 19.727,6.857 19.659,6.773 "/>
<polygon fill="#483B57" points="23.212,7.154 23.212,7.239 20.034,7.239 19.966,7.154 "/>
<polygon fill="#483B57" points="23.212,7.154 23.212,7.239 20.034,7.239 19.966,7.154 "/>
<polygon fill="#483B57" points="23.212,8.297 23.212,8.382 20.953,8.382 20.885,8.297 "/>
<polygon fill="#483B57" points="23.212,8.297 23.212,8.382 20.953,8.382 20.885,8.297 "/>
<path fill="#483B57" d="M16.705,8.678c-0.008,0.029-0.017,0.058-0.032,0.085h-1.587c-0.014-0.027-0.025-0.056-0.032-0.085H16.705z"
	/>
<path fill="#483B57" d="M16.705,8.678c-0.008,0.029-0.017,0.058-0.032,0.085h-1.587c-0.014-0.027-0.025-0.056-0.032-0.085H16.705z"
	/>
<rect x="21.533" y="4.485" fill="#483B57" width="1.679" height="0.085"/>
<rect x="21.533" y="4.485" fill="#483B57" width="1.679" height="0.085"/>
<rect x="21.533" y="4.867" fill="#483B57" width="1.679" height="0.085"/>
<rect x="21.533" y="4.867" fill="#483B57" width="1.679" height="0.085"/>
<rect x="21.533" y="5.248" fill="#483B57" width="1.679" height="0.085"/>
<rect x="21.533" y="5.248" fill="#483B57" width="1.679" height="0.085"/>
<polygon fill="#483B57" points="21.171,6.094 19.113,6.094 19.046,6.009 21.103,6.009 "/>
<rect x="21.533" y="6.009" fill="#483B57" width="1.679" height="0.085"/>
<path fill="#483B57" d="M21.533,6.009v0.085h1.679V6.009H21.533z M21.103,6.009h-2.057l0.068,0.085h2.058L21.103,6.009z"/>
<rect x="21.533" y="5.629" fill="#483B57" width="1.679" height="0.084"/>
<rect x="21.533" y="5.629" fill="#483B57" width="1.679" height="0.084"/>
<polygon fill="#483B57" points="21.479,6.476 19.421,6.476 19.353,6.39 21.411,6.39 "/>
<rect x="21.533" y="6.39" fill="#483B57" width="1.679" height="0.085"/>
<polygon fill="#483B57" points="21.479,6.476 19.421,6.476 19.353,6.39 21.411,6.39 "/>
<rect x="21.533" y="6.39" fill="#483B57" width="1.679" height="0.085"/>
<rect x="43.114" y="0.531" fill="#76C69B" width="0.355" height="0.553"/>
<rect x="43.114" y="1.633" fill="#76C69B" width="0.355" height="0.553"/>
<rect x="43.114" y="7.638" fill="#76C69B" width="0.355" height="0.553"/>
<rect x="43.114" y="8.739" fill="#76C69B" width="0.355" height="0.553"/>
<path fill="#483B57" d="M43.217,0.285v2.094c0,0.158-0.127,0.285-0.285,0.285h-3.54c-0.158,0-0.285-0.127-0.285-0.285V0.285
	C39.107,0.127,39.234,0,39.392,0h3.54C43.09,0,43.217,0.127,43.217,0.285z"/>
<rect x="42.758" y="4.028" fill="#76C69B" width="0.355" height="0.553"/>
<rect x="42.758" y="5.13" fill="#76C69B" width="0.355" height="0.553"/>
<path fill="#483B57" d="M43.283,7.333v2.093c0,0.158-0.127,0.285-0.285,0.285h-3.606c-0.158,0-0.285-0.127-0.285-0.285V7.333
	c0-0.158,0.127-0.285,0.285-0.285h3.606C43.156,7.048,43.283,7.176,43.283,7.333z"/>
<path fill="#483B57" d="M42.893,3.933v1.774c0,0.158-0.127,0.285-0.285,0.285h-3.215c-0.158,0-0.285-0.127-0.285-0.285V3.933
	c0-0.158,0.127-0.285,0.285-0.285h3.215C42.765,3.648,42.893,3.777,42.893,3.933z"/>
<path fill="#483B57" d="M38.408,6.364c0,0.157-0.062,0.307-0.172,0.418L35.86,9.176c-0.254,0.213-0.64,0.031-0.64-0.299V0.834
	c0-0.332,0.387-0.512,0.64-0.299l2.376,2.394c0.11,0.111,0.172,0.261,0.172,0.418V6.364L38.408,6.364z"/>
<path fill="#483B57" d="M36.287,2.416h-0.829V1.657c0-0.893,0.726-1.619,1.619-1.619h1.865v0.829h-1.865
	c-0.435,0-0.789,0.354-0.789,0.789L36.287,2.416L36.287,2.416z"/>
<path fill="#483B57" d="M36.998,3.541h-0.829V2.446c0-0.707,0.576-1.283,1.283-1.283h1.49v0.829h-1.49
	c-0.251,0-0.455,0.204-0.455,0.455v1.094H36.998z"/>
<path fill="#483B57" d="M38.942,9.667h-1.665c-1.003,0-1.819-0.816-1.819-1.819V7.289h0.829v0.559c0,0.545,0.444,0.99,0.989,0.99
	h1.665V9.667z"/>
<path fill="#483B57" d="M38.942,8.55H37.56c-0.768,0-1.392-0.624-1.392-1.392V6.172h0.829v0.986c0,0.31,0.253,0.563,0.563,0.563
	h1.381V8.55z"/>
<rect x="37.836" y="3.828" fill="#483B57" width="1.107" height="0.829"/>
<rect x="37.836" y="4.992" fill="#483B57" width="1.107" height="0.829"/>
<path fill="#483B57" d="M39.392,9.475c-0.027,0-0.049-0.022-0.049-0.049V7.332c0-0.027,0.022-0.049,0.049-0.049h3.623
	c0.027,0,0.049,0.022,0.049,0.049v2.094c0,0.027-0.022,0.049-0.049,0.049H39.392z"/>
<path fill="#483B57" d="M39.392,5.806c-0.027,0-0.049-0.022-0.049-0.049V3.983c0-0.027,0.022-0.049,0.049-0.049h3.215
	c0.027,0,0.049,0.022,0.049,0.049v1.774c0,0.027-0.022,0.049-0.049,0.049C42.608,5.806,39.392,5.806,39.392,5.806z"/>
<path fill="#483B57" d="M39.392,2.478c-0.027,0-0.049-0.022-0.049-0.049V0.335c0-0.027,0.022-0.049,0.049-0.049h3.54
	c0.027,0,0.049,0.022,0.049,0.049v2.094c0,0.027-0.022,0.049-0.049,0.049H39.392z"/>
<path fill="#9076B3" d="M35.786,1.52c-0.104,0-0.188-0.084-0.188-0.188c0-0.104,0.084-0.188,0.188-0.188s0.188,0.084,0.188,0.188
	C35.974,1.435,35.889,1.52,35.786,1.52z M35.786,1.263c-0.038,0-0.069,0.031-0.069,0.069c0,0.038,0.031,0.069,0.069,0.069
	c0.038,0,0.069-0.031,0.069-0.069S35.824,1.263,35.786,1.263z"/>
<path fill="#9076B3" d="M44.856,0.631c-0.104,0-0.188-0.084-0.188-0.188s0.084-0.188,0.188-0.188s0.188,0.084,0.188,0.188
	C45.042,0.546,44.958,0.631,44.856,0.631z M44.856,0.374c-0.038,0-0.069,0.031-0.069,0.069c0,0.038,0.031,0.069,0.069,0.069
	c0.038,0,0.069-0.031,0.069-0.069S44.893,0.374,44.856,0.374z"/>
<path fill="#9076B3" d="M44.856,9.55c-0.104,0-0.188-0.084-0.188-0.188c0-0.104,0.084-0.188,0.188-0.188s0.188,0.084,0.188,0.188
	C45.042,9.466,44.958,9.55,44.856,9.55z M44.856,9.293c-0.038,0-0.069,0.031-0.069,0.069s0.031,0.069,0.069,0.069
	c0.038,0,0.069-0.031,0.069-0.069S44.893,9.293,44.856,9.293z"/>
<path fill="#9076B3" d="M47.251,0.631c-0.104,0-0.188-0.084-0.188-0.188s0.084-0.188,0.188-0.188s0.188,0.084,0.188,0.188
	S47.355,0.631,47.251,0.631z M47.251,0.374c-0.038,0-0.069,0.031-0.069,0.069c0,0.038,0.031,0.069,0.069,0.069
	c0.038,0,0.069-0.031,0.069-0.069S47.289,0.374,47.251,0.374z"/>
<path fill="#9076B3" d="M53.061,3.953c-0.104,0-0.188-0.084-0.188-0.188c0-0.104,0.084-0.188,0.188-0.188
	c0.104,0,0.188,0.084,0.188,0.188C53.249,3.869,53.165,3.953,53.061,3.953z M53.061,3.696c-0.038,0-0.069,0.031-0.069,0.069
	s0.031,0.069,0.069,0.069c0.038,0,0.069-0.031,0.069-0.069S53.099,3.696,53.061,3.696z"/>
<path fill="#9076B3" d="M47.251,9.55c-0.104,0-0.188-0.084-0.188-0.188c0-0.104,0.084-0.188,0.188-0.188s0.188,0.084,0.188,0.188
	C47.439,9.466,47.355,9.55,47.251,9.55z M47.251,9.293c-0.038,0-0.069,0.031-0.069,0.069s0.031,0.069,0.069,0.069
	c0.038,0,0.069-0.031,0.069-0.069S47.289,9.293,47.251,9.293z"/>
<path fill="#9076B3" d="M50.537,9.55c-0.104,0-0.188-0.084-0.188-0.188c0-0.104,0.084-0.188,0.188-0.188
	c0.104,0,0.188,0.084,0.188,0.188C50.724,9.466,50.64,9.55,50.537,9.55z M50.537,9.293c-0.038,0-0.069,0.031-0.069,0.069
	s0.031,0.069,0.069,0.069s0.069-0.031,0.069-0.069S50.575,9.293,50.537,9.293z"/>
<path fill="#9076B3" d="M52.933,9.55c-0.104,0-0.188-0.084-0.188-0.188c0-0.104,0.084-0.188,0.188-0.188
	c0.104,0,0.188,0.084,0.188,0.188C53.121,9.466,53.037,9.55,52.933,9.55z M52.933,9.293c-0.038,0-0.069,0.031-0.069,0.069
	s0.031,0.069,0.069,0.069s0.069-0.031,0.069-0.069S52.971,9.293,52.933,9.293z"/>
<path fill="#9076B3" d="M0.39,3.234c-0.104,0-0.188-0.084-0.188-0.188c0-0.104,0.084-0.188,0.188-0.188s0.188,0.084,0.188,0.188
	C0.578,3.149,0.494,3.234,0.39,3.234z M0.39,2.976c-0.038,0-0.069,0.031-0.069,0.069c0,0.038,0.031,0.069,0.069,0.069
	s0.069-0.031,0.069-0.069C0.459,3.008,0.429,2.976,0.39,2.976z"/>
<path fill="#9076B3" d="M8.7,3.234c-0.104,0-0.188-0.084-0.188-0.188c0-0.104,0.084-0.188,0.188-0.188
	c0.104,0,0.188,0.084,0.188,0.188C8.888,3.149,8.804,3.234,8.7,3.234z M8.7,2.976c-0.038,0-0.069,0.031-0.069,0.069
	c0,0.038,0.031,0.069,0.069,0.069S8.77,3.083,8.77,3.046C8.77,3.008,8.738,2.976,8.7,2.976z"/>
<path fill="#9076B3" d="M4.562,6.322c-0.104,0-0.188-0.084-0.188-0.188s0.084-0.188,0.188-0.188c0.104,0,0.188,0.084,0.188,0.188
	C4.749,6.238,4.665,6.322,4.562,6.322z M4.562,6.065c-0.038,0-0.069,0.031-0.069,0.069c0,0.038,0.031,0.069,0.069,0.069
	c0.038,0,0.069-0.031,0.069-0.069C4.631,6.097,4.6,6.065,4.562,6.065z"/>
<path fill="#9076B3" d="M35.786,8.568c-0.104,0-0.188-0.084-0.188-0.188c0-0.104,0.084-0.188,0.188-0.188s0.188,0.084,0.188,0.188
	C35.974,8.483,35.889,8.568,35.786,8.568z M35.786,8.311c-0.038,0-0.069,0.031-0.069,0.069c0,0.038,0.031,0.069,0.069,0.069
	c0.038,0,0.069-0.031,0.069-0.069C35.855,8.341,35.824,8.311,35.786,8.311z"/>
<path fill="#9076B3" d="M34.119,9.534c-0.104,0-0.188-0.084-0.188-0.188s0.084-0.188,0.188-0.188s0.188,0.084,0.188,0.188
	S34.223,9.534,34.119,9.534z M34.119,9.277c-0.038,0-0.069,0.031-0.069,0.069s0.031,0.069,0.069,0.069
	c0.038,0,0.069-0.031,0.069-0.069S34.157,9.277,34.119,9.277z"/>
<path fill="#9076B3" d="M25.663,9.432c-0.104,0-0.188-0.084-0.188-0.188c0-0.104,0.084-0.188,0.188-0.188s0.188,0.084,0.188,0.188
	C25.851,9.347,25.767,9.432,25.663,9.432z M25.663,9.175c-0.038,0-0.069,0.031-0.069,0.069c0,0.038,0.031,0.069,0.069,0.069
	c0.038,0,0.069-0.031,0.069-0.069C25.732,9.206,25.701,9.175,25.663,9.175z"/>
<path fill="#9076B3" d="M23.39,9.432c-0.104,0-0.188-0.084-0.188-0.188c0-0.104,0.084-0.188,0.188-0.188s0.188,0.084,0.188,0.188
	C23.577,9.347,23.493,9.432,23.39,9.432z M23.39,9.175c-0.038,0-0.069,0.031-0.069,0.069c0,0.038,0.031,0.069,0.069,0.069
	c0.038,0,0.069-0.031,0.069-0.069C23.459,9.206,23.428,9.175,23.39,9.175z"/>
<path fill="#9076B3" d="M21.479,9.432c-0.104,0-0.188-0.084-0.188-0.188c0-0.104,0.084-0.188,0.188-0.188s0.188,0.084,0.188,0.188
	C21.667,9.347,21.583,9.432,21.479,9.432z M21.479,9.175c-0.038,0-0.069,0.031-0.069,0.069c0,0.038,0.031,0.069,0.069,0.069
	c0.038,0,0.069-0.031,0.069-0.069C21.548,9.206,21.518,9.175,21.479,9.175z"/>
<path fill="#9076B3" d="M16.77,9.432c-0.104,0-0.188-0.084-0.188-0.188c0-0.104,0.084-0.188,0.188-0.188s0.188,0.084,0.188,0.188
	C16.957,9.347,16.873,9.432,16.77,9.432z M16.77,9.175c-0.038,0-0.069,0.031-0.069,0.069c0,0.038,0.031,0.069,0.069,0.069
	c0.038,0,0.069-0.031,0.069-0.069C16.839,9.206,16.808,9.175,16.77,9.175z"/>
<path fill="#9076B3" d="M14.86,9.432c-0.104,0-0.188-0.084-0.188-0.188c0-0.104,0.084-0.188,0.188-0.188s0.188,0.084,0.188,0.188
	C15.048,9.347,14.963,9.432,14.86,9.432z M14.86,9.175c-0.038,0-0.069,0.031-0.069,0.069c0,0.038,0.031,0.069,0.069,0.069
	c0.038,0,0.069-0.031,0.069-0.069C14.929,9.206,14.898,9.175,14.86,9.175z"/>
<path fill="#9076B3" d="M23.39,0.759c-0.104,0-0.188-0.084-0.188-0.188s0.084-0.188,0.188-0.188s0.188,0.084,0.188,0.188
	S23.493,0.759,23.39,0.759z M23.39,0.502c-0.038,0-0.069,0.031-0.069,0.069c0,0.038,0.031,0.069,0.069,0.069
	c0.038,0,0.069-0.031,0.069-0.069C23.459,0.534,23.428,0.502,23.39,0.502z"/>
<path fill="#9076B3" d="M21.479,0.759c-0.104,0-0.188-0.084-0.188-0.188s0.084-0.188,0.188-0.188s0.188,0.084,0.188,0.188
	C21.667,0.675,21.583,0.759,21.479,0.759z M21.479,0.502c-0.038,0-0.069,0.031-0.069,0.069c0,0.038,0.031,0.069,0.069,0.069
	c0.038,0,0.069-0.031,0.069-0.069C21.548,0.534,21.518,0.502,21.479,0.502z"/>
<path fill="#9076B3" d="M16.77,0.759c-0.104,0-0.188-0.084-0.188-0.188s0.084-0.188,0.188-0.188s0.188,0.084,0.188,0.188
	C16.957,0.675,16.873,0.759,16.77,0.759z M16.77,0.502c-0.038,0-0.069,0.031-0.069,0.069c0,0.038,0.031,0.069,0.069,0.069
	c0.038,0,0.069-0.031,0.069-0.069C16.839,0.534,16.808,0.502,16.77,0.502z"/>
<path fill="#9076B3" d="M14.86,0.759c-0.104,0-0.188-0.084-0.188-0.188s0.084-0.188,0.188-0.188s0.188,0.084,0.188,0.188
	S14.963,0.759,14.86,0.759z M14.86,0.502c-0.038,0-0.069,0.031-0.069,0.069c0,0.038,0.031,0.069,0.069,0.069
	c0.038,0,0.069-0.031,0.069-0.069C14.929,0.534,14.898,0.502,14.86,0.502z"/>
<path fill="#9076B3" d="M34.119,0.566c-0.104,0-0.188-0.084-0.188-0.188s0.084-0.188,0.188-0.188s0.188,0.084,0.188,0.188
	S34.223,0.566,34.119,0.566z M34.119,0.309c-0.038,0-0.069,0.031-0.069,0.069c0,0.038,0.031,0.069,0.069,0.069
	c0.038,0,0.069-0.031,0.069-0.069S34.157,0.309,34.119,0.309z"/>
<path fill="#9076B3" d="M25.663,0.759c-0.104,0-0.188-0.084-0.188-0.188s0.084-0.188,0.188-0.188s0.188,0.084,0.188,0.188
	S25.767,0.759,25.663,0.759z M25.663,0.502c-0.038,0-0.069,0.031-0.069,0.069c0,0.038,0.031,0.069,0.069,0.069
	c0.038,0,0.069-0.031,0.069-0.069C25.732,0.534,25.701,0.502,25.663,0.502z"/>
<path fill="#9076B3" d="M37.836,6.583c-0.104,0-0.188-0.084-0.188-0.188s0.084-0.188,0.188-0.188s0.188,0.084,0.188,0.188
	C38.022,6.498,37.939,6.583,37.836,6.583z M37.836,6.326c-0.038,0-0.069,0.031-0.069,0.069c0,0.038,0.031,0.069,0.069,0.069
	c0.038,0,0.069-0.031,0.069-0.069C37.905,6.356,37.873,6.326,37.836,6.326z"/>
<path fill="#9076B3" d="M37.836,3.558c-0.104,0-0.188-0.084-0.188-0.188c0-0.104,0.084-0.188,0.188-0.188s0.188,0.084,0.188,0.188
	C38.024,3.473,37.939,3.558,37.836,3.558z M37.836,3.3c-0.038,0-0.069,0.031-0.069,0.069c0,0.038,0.031,0.069,0.069,0.069
	c0.038,0,0.069-0.031,0.069-0.069C37.905,3.332,37.873,3.3,37.836,3.3z"/>
<rect x="0" y="0.582" fill="#FFFFFF" width="9.123" height="0.137"/>
<rect x="0" y="1.105" fill="#FFFFFF" width="9.123" height="0.137"/>
<polygon fill="#76C69B" points="47.827,0.782 47.827,0.625 48.641,0.703 "/>
<polygon fill="#76C69B" points="47.827,0.977 47.827,0.821 48.641,0.9 "/>
<polygon fill="#76C69B" points="47.827,1.176 47.827,1.02 48.641,1.097 "/>
<polygon fill="#76C69B" points="47.827,1.345 47.827,1.188 48.641,1.267 "/>
<polygon fill="#76C69B" points="47.827,1.53 47.827,1.374 48.641,1.452 "/>
<polygon fill="#76C69B" points="47.827,1.715 47.827,1.558 48.641,1.636 "/>
<polygon fill="#76C69B" points="47.827,1.892 47.827,1.736 48.641,1.814 "/>
<polygon fill="#76C69B" points="47.827,2.07 47.827,1.914 48.641,1.992 "/>
<polygon fill="#76C69B" points="47.827,2.244 47.827,2.088 48.641,2.165 "/>
<polygon fill="#76C69B" points="47.827,5.161 47.827,5.005 48.641,5.082 "/>
<polygon fill="#76C69B" points="47.827,5.357 47.827,5.2 48.641,5.279 "/>
<polygon fill="#76C69B" points="47.827,5.554 47.827,5.398 48.641,5.477 "/>
<polygon fill="#76C69B" points="47.827,5.724 47.827,5.567 48.641,5.646 "/>
<polygon fill="#76C69B" points="47.827,5.909 47.827,5.752 48.641,5.831 "/>
<polygon fill="#76C69B" points="47.827,6.094 47.827,5.938 48.641,6.016 "/>
<polygon fill="#76C69B" points="47.827,6.272 47.827,6.115 48.641,6.194 "/>
<polygon fill="#76C69B" points="47.827,6.45 47.827,6.293 48.641,6.371 "/>
<polygon fill="#76C69B" points="47.827,6.624 47.827,6.467 48.641,6.545 "/>
<rect x="26.646" y="1.584" fill="#FFFFFF" width="0.154" height="6.499"/>
<polygon fill="#FFFFFF" points="28.556,5.567 28.556,5.316 30.283,3.133 31.725,1.426 31.843,1.525 30.403,3.23 "/>
<path fill="none" stroke="#FFFFFF" stroke-width="1.3" stroke-miterlimit="10" d="M30.344,3.181"/>
<polygon fill="#FFFFFF" points="31.94,8.262 30.271,5.828 30.385,5.716 32.067,8.176 "/>
<circle fill="#76C69B" cx="26.722" cy="1.07" r="0.652"/>
<circle fill="#483B57" cx="26.722" cy="1.07" r="0.404"/>
<circle fill="#76C69B" cx="32.12" cy="1.07" r="0.652"/>
<circle fill="#483B57" cx="32.12" cy="1.07" r="0.404"/>
<circle fill="#76C69B" cx="26.722" cy="8.623" r="0.652"/>
<circle fill="#483B57" cx="26.722" cy="8.623" r="0.404"/>
<circle fill="#76C69B" cx="32.274" cy="8.623" r="0.652"/>
<circle fill="#483B57" cx="32.274" cy="8.623" r="0.404"/>
<path fill="#FFFFFF" d="M26.722,8.811c-0.104,0-0.188-0.084-0.188-0.188c0-0.104,0.084-0.188,0.188-0.188s0.188,0.084,0.188,0.188
	C26.91,8.726,26.826,8.811,26.722,8.811z M26.722,8.554c-0.038,0-0.069,0.031-0.069,0.069s0.031,0.069,0.069,0.069
	c0.038,0,0.069-0.031,0.069-0.069S26.76,8.554,26.722,8.554z"/>
<path fill="#FFFFFF" d="M32.274,8.811c-0.104,0-0.188-0.084-0.188-0.188c0-0.104,0.084-0.188,0.188-0.188
	c0.104,0,0.188,0.084,0.188,0.188C32.462,8.726,32.377,8.811,32.274,8.811z M32.274,8.554c-0.038,0-0.069,0.031-0.069,0.069
	s0.031,0.069,0.069,0.069c0.038,0,0.069-0.031,0.069-0.069S32.313,8.554,32.274,8.554z"/>
<path fill="#FFFFFF" d="M26.722,1.258c-0.104,0-0.188-0.084-0.188-0.188c0-0.104,0.084-0.188,0.188-0.188S26.91,0.967,26.91,1.07
	C26.91,1.174,26.826,1.258,26.722,1.258z M26.722,1.001c-0.038,0-0.069,0.031-0.069,0.069c0,0.038,0.031,0.069,0.069,0.069
	c0.038,0,0.069-0.031,0.069-0.069C26.792,1.033,26.76,1.001,26.722,1.001z"/>
<path fill="#FFFFFF" d="M32.12,1.258c-0.104,0-0.188-0.084-0.188-0.188c0-0.104,0.084-0.188,0.188-0.188s0.188,0.084,0.188,0.188
	C32.308,1.174,32.224,1.258,32.12,1.258z M32.12,1.001c-0.038,0-0.069,0.031-0.069,0.069c0,0.038,0.031,0.069,0.069,0.069
	c0.038,0,0.069-0.031,0.069-0.069C32.189,1.033,32.159,1.001,32.12,1.001z"/>
<circle fill="#76C69B" cx="4.562" cy="8.251" r="0.984"/>
<circle fill="#FFFFFF" cx="4.562" cy="8.251" r="0.47"/>
<circle fill="#483B57" cx="4.562" cy="8.251" r="0.201"/>
<path fill="#76C69B" d="M41.876,1.596c0,0.066-0.053,0.119-0.119,0.119h-1.189c-0.066,0-0.119-0.053-0.119-0.119V1.15
	c0-0.066,0.053-0.119,0.119-0.119h1.189c0.066,0,0.119,0.053,0.119,0.119V1.596z"/>
<path fill="#483B57" d="M41.653,1.457c0,0.025-0.037,0.044-0.082,0.044h-0.82c-0.045,0-0.081-0.019-0.081-0.044V1.29
	c0-0.025,0.037-0.044,0.081-0.044h0.82c0.045,0,0.082,0.019,0.082,0.044V1.457z"/>
<path fill="#76C69B" d="M41.653,5.094c0,0.066-0.053,0.119-0.119,0.119h-1.189c-0.066,0-0.119-0.053-0.119-0.119V4.648
	c0-0.066,0.053-0.119,0.119-0.119h1.189c0.066,0,0.119,0.053,0.119,0.119V5.094z"/>
<path fill="#76C69B" d="M41.876,8.602c0,0.066-0.053,0.119-0.119,0.119h-1.189c-0.066,0-0.119-0.053-0.119-0.119V8.156
	c0-0.066,0.053-0.119,0.119-0.119h1.189c0.066,0,0.119,0.053,0.119,0.119V8.602z"/>
<polygon fill="#483B57" points="20.574,17.38 20.574,19.084 21.378,17.707 "/>
<path fill="#483B57" d="M36.035,20.264h-0.783c-0.039-0.353-0.103-0.067-0.19-0.403l0.725-0.283c0.103-0.04,0.153-0.156,0.113-0.258
	l-0.433-1.109c-0.04-0.103-0.156-0.153-0.258-0.113l-0.717,0.28c-0.207-0.401-0.45-0.779-0.727-1.131l0.537-0.537
	c0.078-0.078,0.078-0.204,0-0.282l-0.842-0.842c-0.078-0.078-0.204-0.078-0.282,0l-0.522,0.522
	c-0.275-0.226-0.568-0.432-0.876-0.616l0.001-0.001l0.289-0.662c0.044-0.1-0.002-0.218-0.103-0.262l-1.092-0.478
	c-0.102-0.044-0.219,0.002-0.262,0.104l-0.28,0.638l-0.001,0.002c-0.431-0.141-0.879-0.243-1.341-0.301v-0.678
	c0-0.11-0.09-0.2-0.2-0.2H27.6c-0.11,0-0.2,0.09-0.2,0.2v0.651c-0.372,0.035-0.735,0.097-1.088,0.186l-0.23-0.589
	c-0.04-0.103-0.156-0.153-0.258-0.113l-1.109,0.433c-0.103,0.04-0.153,0.156-0.113,0.259l0.221,0.567
	c-0.422,0.214-0.821,0.468-1.191,0.757l-0.417-0.417c-0.078-0.078-0.204-0.078-0.282,0l-0.842,0.842
	c-0.078,0.078-0.078,0.204,0,0.282l0.403,0.403c-0.239,0.292-0.455,0.603-0.647,0.929l-0.513-0.225
	c-0.102-0.044-0.219,0.002-0.264,0.103l-0.478,1.091c-0.044,0.102,0.002,0.219,0.103,0.264l0.502,0.219
	c-0.144,0.45-0.244,0.306-0.297,0.789h-0.544c-0.11,0-0.2,0.09-0.2,0.2v1.804c0,0.11,0.09,0.2,0.2,0.2H20.9
	c0.042,0.383,0.114,0.756,0.214,1.119l-0.51,0.199c-0.103,0.04-0.153,0.156-0.113,0.259l0.433,1.109
	c0.04,0.103,0.156,0.153,0.258,0.113l0.518-0.203c0.225,0.422,0.49,0.82,0.792,1.187l-0.403,0.403c-0.078,0.078-0.078,0.204,0,0.282
	l0.842,0.842c0.078,0.078,0.204,0.078,0.282,0l0.416-0.416l0.001-0.001c0.294,0.23,0.605,0.437,0.933,0.62l-0.242,0.553
	c-0.044,0.102,0.002,0.219,0.103,0.264l1.091,0.478c0.102,0.044,0.219-0.002,0.264-0.103l0.252-0.575
	c0.441,0.13,0.899,0.219,1.371,0.264v0.651c0,0.11,0.09,0.2,0.2,0.2h1.191c0.11,0,0.2-0.09,0.2-0.2v-0.678
	c0.364-0.046,0.72-0.119,1.065-0.217l0.253,0.647c0.04,0.103,0.156,0.153,0.258,0.113l1.109-0.433
	c0.103-0.04,0.153-0.156,0.113-0.258l-0.261-0.669c0.4-0.218,0.777-0.473,1.126-0.76l0.522,0.522c0.078,0.078,0.204,0.078,0.282,0
	l0.842-0.842c0.078-0.078,0.078-0.204,0-0.282l-0.537-0.537c0.217-0.278,0.415-0.571,0.59-0.879l0.703,0.308
	c0.102,0.044,0.219-0.002,0.264-0.103l0.478-1.091c0.044-0.102-0.002-0.219-0.103-0.264l-0.711-0.311
	c0.129-0.422,0.219-0.86,0.268-1.31h0.782c0.11,0,0.2-0.09,0.2-0.2v-1.824C36.235,20.354,36.145,20.264,36.035,20.264z"/>
<path fill="#76C69B" d="M28.164,17.65c-1.268,0-2.345,1.027-2.345,2.295c0,1.268,1.027,2.295,2.295,2.295
	c1.268,0,2.295-1.027,2.295-2.295C30.41,18.678,29.432,17.65,28.164,17.65z M28.115,20.871c-0.511,0-0.926-0.415-0.926-0.926
	c0-0.511,0.415-0.926,0.926-0.926c0.511,0,0.926,0.415,0.926,0.926C29.04,20.456,28.625,20.871,28.115,20.871z"/>
<path fill="#76C69B" d="M22.931,26.052l-0.842-0.842c-0.078-0.078-0.078-0.204,0-0.282l1.345-1.345c0.078-0.078,0.204-0.078,0.282,0
	l0.842,0.842c0.078,0.078,0.078,0.204,0,0.282l-1.345,1.345C23.135,26.13,23.008,26.13,22.931,26.052z"/>
<polygon fill="#483B57" points="20.475,22.24 20.475,23.985 21.378,23.758 "/>
<polygon fill="#483B57" points="35.815,22.558 35.815,24.277 34.861,23.965 "/>
<path fill="#76C69B" d="M31.044,14.926l-1.091-0.478c-0.102-0.044-0.147-0.162-0.103-0.264l0.762-1.741
	c0.044-0.102,0.162-0.147,0.264-0.103l1.091,0.478c0.102,0.044,0.147,0.162,0.103,0.264l-0.762,1.741
	C31.262,14.925,31.144,14.97,31.044,14.926z"/>
<path fill="#76C69B" d="M28.989,12.353v1.651c0,0.11-0.09,0.2-0.199,0.2h-1.022l0.958-1.453L28.989,12.353z"/>
<path fill="#76C69B" d="M33.476,13.856l-0.511,0.774l-0.782,1.186l-0.352-0.352c-0.078-0.078-0.078-0.204,0-0.283l0.823-0.822
	l0.522-0.522c0.078-0.078,0.204-0.078,0.282,0L33.476,13.856z"/>
<path fill="#76C69B" d="M22.951,22.847l-1.192,0.467l0.998-1.512l0.308,0.787C23.104,22.692,23.054,22.807,22.951,22.847z"/>
<path fill="#FFFFFF" d="M36.035,19.149h-0.783c-0.039-0.353-0.103-0.699-0.19-1.035l0.725-0.283c0.103-0.04,0.153-0.156,0.113-0.258
	l-0.433-1.109c-0.04-0.103-0.156-0.153-0.258-0.113l-0.717,0.28c-0.207-0.401-0.45-0.779-0.727-1.131l0.537-0.537
	c0.078-0.078,0.078-0.204,0-0.282l-0.842-0.842c-0.078-0.078-0.204-0.078-0.282,0l-0.522,0.522
	c-0.275-0.226-0.568-0.432-0.876-0.616l0.001-0.001l0.289-0.662c0.044-0.1-0.002-0.218-0.103-0.262l-1.092-0.478
	c-0.102-0.044-0.219,0.002-0.262,0.104l-0.28,0.638l-0.001,0.002c-0.431-0.141-0.879-0.243-1.341-0.301v-0.678
	c0-0.11-0.09-0.2-0.2-0.2H27.6c-0.11,0-0.2,0.09-0.2,0.2v0.651c-0.372,0.035-0.735,0.097-1.088,0.186l-0.23-0.589
	c-0.04-0.103-0.156-0.153-0.258-0.113l-1.109,0.433c-0.103,0.04-0.153,0.156-0.113,0.258l0.221,0.567
	c-0.422,0.214-0.821,0.468-1.191,0.757l-0.417-0.417c-0.078-0.078-0.204-0.078-0.282,0l-0.842,0.842
	c-0.078,0.078-0.078,0.204,0,0.282l0.403,0.403c-0.239,0.292-0.455,0.603-0.647,0.93l-0.513-0.225
	c-0.102-0.044-0.219,0.002-0.264,0.103l-0.478,1.091c-0.044,0.102,0.002,0.219,0.103,0.264l0.502,0.219
	c-0.144,0.45-0.244,0.919-0.297,1.402h-0.544c-0.11,0-0.2,0.09-0.2,0.2v1.191c0,0.11,0.09,0.2,0.2,0.2H20.9
	c0.042,0.383,0.114,0.756,0.214,1.119l-0.51,0.199c-0.103,0.04-0.153,0.156-0.113,0.258l0.433,1.109
	c0.04,0.103,0.156,0.153,0.258,0.113l0.518-0.203c0.225,0.422,0.49,0.82,0.792,1.187l-0.403,0.403c-0.078,0.078-0.078,0.204,0,0.282
	l0.842,0.842c0.078,0.078,0.204,0.078,0.282,0l0.416-0.416l0.001-0.001c0.294,0.23,0.605,0.437,0.933,0.62l-0.242,0.553
	c-0.044,0.102,0.002,0.219,0.103,0.264l1.091,0.478c0.102,0.044,0.219-0.002,0.264-0.103l0.252-0.575
	c0.441,0.13,0.899,0.219,1.371,0.264v0.651c0,0.11,0.09,0.2,0.2,0.2h1.191c0.11,0,0.2-0.09,0.2-0.2v-0.678
	c0.364-0.046,0.72-0.119,1.065-0.217l0.253,0.647c0.04,0.103,0.156,0.153,0.258,0.113l1.109-0.434
	c0.103-0.04,0.153-0.156,0.113-0.258l-0.261-0.669c0.4-0.218,0.777-0.473,1.126-0.76l0.522,0.522c0.078,0.078,0.204,0.078,0.282,0
	l0.842-0.842c0.078-0.078,0.078-0.204,0-0.282l-0.537-0.537c0.217-0.278,0.415-0.571,0.59-0.879l0.703,0.308
	c0.102,0.044,0.219-0.002,0.264-0.103l0.478-1.091c0.044-0.102-0.002-0.219-0.103-0.264l-0.711-0.311
	c0.129-0.422,0.219-0.86,0.268-1.31h0.782c0.11,0,0.2-0.09,0.2-0.2v-1.191C36.235,19.239,36.145,19.149,36.035,19.149z
	 M28.075,22.858c-1.608,0-2.913-1.305-2.913-2.913c0-1.609,1.305-2.913,2.913-2.913c1.609,0,2.913,1.304,2.913,2.913
	C30.987,21.554,29.684,22.858,28.075,22.858z"/>
<polygon fill="#483B57" points="24.303,26.969 24.303,28.632 24.885,27.986 "/>
<polygon fill="#483B57" points="31.803,27.167 31.803,28.782 31.264,27.851 "/>
<polygon fill="#483B57" points="34.359,25.125 34.359,26.76 33.598,26.211 "/>
<polygon fill="#483B57" points="22.03,25.125 22.03,26.76 22.685,26.363 "/>
<path fill="none" stroke="#E7E7E7" stroke-miterlimit="10" d="M28.075,13.259c-3.693,0-6.685,2.993-6.685,6.686
	c0,3.693,2.993,6.685,6.685,6.685c3.694,0,6.686-2.993,6.686-6.685C34.762,16.252,31.768,13.259,28.075,13.259z"/>
<path fill="none" stroke="#E7E7E7" stroke-miterlimit="10" d="M28.075,16.587c-1.854,0-3.358,1.503-3.358,3.359
	c0,1.854,1.503,3.358,3.358,3.358c1.855,0,3.359-1.503,3.359-3.358C31.433,18.09,29.93,16.587,28.075,16.587z"/>
<line fill="none" stroke="#E7E7E7" stroke-miterlimit="10" x1="21.389" y1="19.945" x2="24.717" y2="19.945"/>
<line fill="none" stroke="#E7E7E7" stroke-miterlimit="10" x1="31.433" y1="19.945" x2="34.762" y2="19.945"/>
<polygon fill="none" stroke="#E7E7E7" stroke-miterlimit="10" points="53.215,11.262 53.215,14.824 48.111,14.824 48.111,27.247 
	43.874,27.247 43.874,14.824 38.768,14.824 38.768,11.262 "/>
<rect x="47.692" y="4.673" fill="#76C69B" width="0.136" height="2.312"/>
<rect x="47.692" y="0.053" fill="#76C69B" width="0.136" height="2.721"/>
<path fill="#483B57" d="M41.432,4.951c0,0.025-0.037,0.044-0.081,0.044h-0.82c-0.045,0-0.082-0.019-0.082-0.044V4.783
	c0-0.025,0.037-0.044,0.082-0.044h0.82c0.045,0,0.081,0.019,0.081,0.044V4.951z"/>
<path fill="#483B57" d="M41.653,8.465c0,0.025-0.037,0.044-0.082,0.044h-0.82c-0.045,0-0.081-0.019-0.081-0.044V8.298
	c0-0.025,0.037-0.044,0.081-0.044h0.82c0.045,0,0.082,0.019,0.082,0.044V8.465z"/>
<rect x="10.757" y="5.333" fill="#FFFFFF" width="1.503" height="0.069"/>
<rect x="10.94" y="2.954" fill="#FFFFFF" width="1.135" height="0.069"/>
<rect x="10.94" y="4.146" fill="#FFFFFF" width="1.135" height="0.069"/>
<rect x="10.94" y="7.454" fill="#FFFFFF" width="1.135" height="0.069"/>
<path opacity="0.04" fill="#020202" enable-background="new    " d="M16.947,12.39l-5.678,8.605
	c-0.172-0.025-0.361-0.038-0.566-0.038H7.792v2.566h1.809l-2.88,4.368H2.165v-2.588l5.627-8.53v0.63h2.516
	c1.217,0,1.826-0.395,1.826-1.184v-0.05c0-0.789-0.617-1.184-1.851-1.184H8.972l2.881-4.368c1.193,0.001,2.181,0.133,2.958,0.395
	c0.781,0.264,1.428,0.65,1.936,1.16C16.819,12.242,16.885,12.314,16.947,12.39z"/>
<polygon opacity="0.04" fill="#020202" enable-background="new    " points="53.041,10.617 49.818,15.503 48.879,15.503 
	48.879,16.928 43.105,25.681 43.105,16.188 46.779,10.617 "/>
<path opacity="0.04" fill="#020202" enable-background="new    " d="M28.115,17.648c-1.268,0-2.295,1.028-2.295,2.296
	c0,1.185,0.9,2.162,2.053,2.282l2.274-3.401C29.756,18.123,28.975,17.648,28.115,17.648z M28.115,20.87
	c-0.511,0-0.926-0.415-0.926-0.926c0-0.512,0.415-0.927,0.926-0.927c0.511,0,0.926,0.415,0.926,0.927
	C29.039,20.455,28.625,20.87,28.115,20.87z"/>
<path opacity="0.04" fill="#020202" enable-background="new    " d="M33.476,13.855l-0.511,0.774l-0.782,1.186l-1.672,2.534
	c-0.519-0.794-1.416-1.318-2.436-1.318c-1.608,0-2.913,1.304-2.913,2.913c0,1.435,1.038,2.628,2.404,2.868l-1.598,2.424
	l-0.855,1.297l-0.429,0.651l-0.26-0.113c-0.102-0.045-0.148-0.162-0.103-0.262l0.242-0.553c-0.327-0.183-0.64-0.39-0.934-0.62
	l-0.416,0.416c-0.078,0.078-0.204,0.078-0.282,0l-0.842-0.842c-0.078-0.078-0.078-0.204,0-0.282l0.403-0.403
	c-0.293-0.355-0.551-0.74-0.772-1.148v-0.001l0.04-0.06l0.998-1.512l5.011-7.597l0.958-1.453l0.262-0.399v0.427
	c0.462,0.058,0.912,0.161,1.342,0.302l0.28-0.638c0.044-0.102,0.161-0.147,0.262-0.104l1.092,0.478
	c0.1,0.045,0.147,0.162,0.103,0.262l-0.289,0.662c0.308,0.185,0.599,0.391,0.876,0.617l0.522-0.522c0.078-0.078,0.204-0.078,0.282,0
	L33.476,13.855z"/>
<line fill="none" stroke="#E7E7E7" stroke-miterlimit="10" x1="9.123" y1="18.089" x2="9.123" y2="20.276"/>
<circle fill="#483B57" cx="34.762" cy="19.945" r="0.228"/>
<circle fill="#483B57" cx="43.851" cy="14.829" r="0.228"/>
<circle fill="#483B57" cx="48.165" cy="14.829" r="0.228"/>
<circle fill="#483B57" cx="53.215" cy="14.829" r="0.228"/>
<circle fill="#483B57" cx="38.768" cy="14.829" r="0.228"/>
<circle fill="#483B57" cx="38.768" cy="11.262" r="0.228"/>
<circle fill="#483B57" cx="53.215" cy="11.262" r="0.228"/>
<circle fill="#483B57" cx="48.073" cy="27.247" r="0.228"/>
<circle fill="#483B57" cx="43.851" cy="27.247" r="0.228"/>
<circle fill="#483B57" cx="21.366" cy="19.945" r="0.228"/>
<circle fill="#483B57" cx="9.123" cy="18.089" r="0.228"/>
<circle fill="#483B57" cx="11.424" cy="11.302" r="0.228"/>
<circle fill="#483B57" cx="11.424" cy="27.184" r="0.228"/>
<circle fill="#483B57" cx="9.123" cy="20.276" r="0.228"/>
<circle fill="#483B57" cx="2.849" cy="11.302" r="0.228"/>
<circle fill="#483B57" cx="2.849" cy="27.167" r="0.228"/>
<circle fill="#483B57" cx="24.717" cy="19.945" r="0.228"/>
<circle fill="#483B57" cx="31.433" cy="19.945" r="0.228"/>
</svg>
