<?xml version="1.0" encoding="utf-8"?>
<!-- Generator: Adobe Illustrator 17.0.0, SVG Export Plug-In . SVG Version: 6.00 Build 0)  -->
<!DOCTYPE svg PUBLIC "-//W3C//DTD SVG 1.1//EN" "http://www.w3.org/Graphics/SVG/1.1/DTD/svg11.dtd">
<svg version="1.1" id="Layer_1" xmlns="http://www.w3.org/2000/svg" xmlns:xlink="http://www.w3.org/1999/xlink" x="0px" y="0px"
	 width="730.2px" height="161.45px" viewBox="0 0 730.2 161.45" enable-background="new 0 0 730.2 161.45" xml:space="preserve">
<path fill="#396DB5" d="M251.99,70.77c-2,1.47-3.68,2.13-5.03,1.95c-1.35-0.17-2.73-1.22-4.14-3.13L229.9,52.04
	c-1.42-1.93-2.01-3.56-1.77-4.91c0.24-1.34,1.36-2.75,3.36-4.22l6.73-4.95c2.22-1.63,3.89-2.76,5.01-3.39
	c1.12-0.63,2.17-1.08,3.15-1.36c1.8-0.51,3.49-0.48,5.07,0.09c1.57,0.57,2.95,1.66,4.13,3.26c0.93,1.26,1.45,2.57,1.58,3.92
	c0.13,1.35-0.14,2.74-0.82,4.17c1.87-0.56,3.54-0.56,5.03-0.02c1.48,0.54,2.85,1.65,4.09,3.34c1.21,1.65,1.93,3.34,2.13,5.06
	c0.21,1.72-0.1,3.39-0.93,5.01c-0.54,1.09-1.3,2.15-2.3,3.18c-0.99,1.02-2.81,2.51-5.45,4.44L251.99,70.77 M242.97,51.61l3.69-2.71
	c1.23-0.91,1.97-1.73,2.21-2.47c0.23-0.74,0.03-1.54-0.61-2.41c-0.68-0.92-1.41-1.35-2.21-1.29c-0.8,0.06-2.18,0.81-4.13,2.25
	l-2.48,1.82L242.97,51.61 M250.49,61.84l4.14-3.05c1.37-1.01,2.2-1.93,2.49-2.76c0.28-0.83,0.09-1.71-0.59-2.63
	c-0.68-0.92-1.46-1.36-2.34-1.31c-0.88,0.04-2.02,0.58-3.42,1.61l-4.06,2.99L250.49,61.84"/>
<path fill="#396DB5" d="M280.69,48.12c0.68,1.51,0.77,2.88,0.27,4.11c-0.5,1.23-1.55,2.21-3.15,2.93c-1.65,0.75-3.09,0.93-4.29,0.54
	c-1.21-0.39-2.15-1.34-2.83-2.85l-10.37-22.96c-0.68-1.51-0.77-2.88-0.26-4.12c0.51-1.23,1.56-2.21,3.16-2.93
	c1.64-0.74,3.07-0.91,4.28-0.51c1.21,0.4,2.15,1.35,2.83,2.84L280.69,48.12"/>
<path fill="#396DB5" d="M315.21,36.95c0.37,1.34,0.33,2.46-0.14,3.35c-0.47,0.89-1.33,1.52-2.6,1.87c-1.18,0.33-2.13,0.29-2.86-0.11
	c-0.73-0.4-1.27-1.16-1.61-2.28c-0.85,1.6-2.04,2.95-3.57,4.05c-1.52,1.1-3.42,1.96-5.7,2.59c-4.77,1.32-8.96,0.8-12.57-1.56
	c-3.62-2.37-6.18-6.27-7.69-11.72c-1.5-5.4-1.13-10.11,1.12-14.13c2.24-4.02,6.04-6.77,11.38-8.25c3.85-1.07,7.2-1.18,10.07-0.33
	c2.87,0.85,4.62,2.43,5.27,4.74c0.36,1.31,0.24,2.47-0.37,3.48c-0.61,1.01-1.63,1.71-3.05,2.1c-1.24,0.34-2.62,0.15-4.13-0.58
	c-0.09-0.04-0.16-0.07-0.2-0.09c-0.15-0.07-0.36-0.17-0.62-0.29c-1.75-0.88-3.37-1.11-4.85-0.7c-2.14,0.6-3.52,1.86-4.12,3.8
	c-0.61,1.94-0.46,4.54,0.45,7.79c0.84,3.02,2,5.12,3.48,6.32c1.49,1.2,3.32,1.49,5.51,0.88c1.57-0.44,2.8-1.17,3.69-2.21
	c0.89-1.03,1.29-2.21,1.21-3.51l-1.24,0.35c-1.42,0.39-2.53,0.41-3.34,0.05c-0.81-0.36-1.37-1.12-1.69-2.28
	c-0.36-1.28-0.22-2.34,0.4-3.17c0.62-0.83,1.76-1.48,3.42-1.94l4.41-1.23c2.05-0.57,3.68-0.48,4.9,0.26
	c1.21,0.74,2.12,2.2,2.73,4.37L315.21,36.95"/>
<path fill="#396DB5" d="M343.19,35.8c-2.48,0.26-4.25-0.03-5.33-0.86c-1.08-0.83-1.74-2.43-1.99-4.8L333.6,8.47
	c-0.25-2.38,0.07-4.09,0.95-5.13c0.88-1.04,2.56-1.68,5.04-1.94l8.31-0.87c2.74-0.29,4.75-0.42,6.04-0.4
	c1.29,0.02,2.42,0.16,3.41,0.42c1.81,0.47,3.25,1.35,4.33,2.64c1.07,1.29,1.71,2.92,1.92,4.9c0.16,1.56-0.04,2.95-0.61,4.18
	c-0.57,1.23-1.51,2.3-2.82,3.19c1.89,0.46,3.34,1.3,4.35,2.52c1.01,1.22,1.62,2.87,1.84,4.95c0.21,2.04-0.03,3.85-0.72,5.45
	c-0.69,1.59-1.8,2.88-3.34,3.86c-1.02,0.67-2.21,1.2-3.59,1.58c-1.38,0.38-3.69,0.74-6.94,1.08L343.19,35.8 M345.09,14.71l4.55-0.48
	c1.53-0.16,2.58-0.5,3.15-1.01c0.57-0.52,0.81-1.31,0.69-2.39c-0.12-1.14-0.54-1.88-1.26-2.23c-0.72-0.35-2.29-0.4-4.7-0.15
	l-3.06,0.32L345.09,14.71 M346.41,27.34l5.11-0.54c1.7-0.18,2.88-0.55,3.54-1.13c0.66-0.57,0.94-1.43,0.82-2.56
	c-0.12-1.14-0.57-1.91-1.35-2.31c-0.78-0.41-2.04-0.52-3.77-0.34l-5.02,0.53L346.41,27.34"/>
<path fill="#396DB5" d="M379.35,26.48l10.18,0.77c1.59,0.12,2.76,0.6,3.52,1.44c0.75,0.84,1.07,2.04,0.95,3.58
	c-0.11,1.39-0.6,2.42-1.47,3.08c-0.88,0.66-2.09,0.94-3.63,0.82l-15.73-1.2c-1.9-0.15-3.27-0.66-4.1-1.55
	c-0.83-0.89-1.17-2.2-1.04-3.95l1.87-24.65c0.12-1.65,0.71-2.9,1.74-3.74c1.04-0.84,2.43-1.19,4.18-1.06c1.79,0.14,3.13,0.67,4,1.6
	c0.87,0.93,1.24,2.21,1.12,3.85L379.35,26.48"/>
<path fill="#396DB5" d="M396.14,23.44l5.28-16.6c0.5-1.57,1.35-2.64,2.57-3.22c1.21-0.58,2.64-0.61,4.3-0.09
	c1.71,0.55,2.9,1.38,3.54,2.49c0.65,1.12,0.72,2.45,0.23,4l-5.08,15.95c-0.59,1.85-0.65,3.28-0.19,4.29
	c0.46,1.01,1.49,1.77,3.1,2.28c1.58,0.5,2.85,0.47,3.82-0.1c0.96-0.57,1.73-1.77,2.31-3.59l5.08-15.95c0.49-1.55,1.33-2.6,2.5-3.13
	c1.17-0.54,2.62-0.53,4.33,0.01c1.65,0.53,2.81,1.38,3.46,2.55c0.65,1.18,0.73,2.55,0.23,4.11l-5.28,16.6
	c-1.29,4.04-3.6,6.76-6.94,8.14c-3.34,1.39-7.4,1.32-12.19-0.21c-4.79-1.52-8.15-3.82-10.09-6.88
	C395.18,31.03,394.86,27.48,396.14,23.44"/>
<path fill="#396DB5" d="M444.51,15.96l14.74,6.49c1.45,0.64,2.4,1.46,2.87,2.46c0.47,1,0.42,2.13-0.13,3.39
	c-0.53,1.2-1.3,1.96-2.32,2.26c-1.02,0.31-2.22,0.15-3.63-0.47l-10.83-4.77l-1.85,4.21l8.64,3.81c1.45,0.64,2.37,1.39,2.77,2.25
	c0.4,0.86,0.33,1.91-0.22,3.14c-0.54,1.22-1.28,1.99-2.21,2.32c-0.94,0.33-2.05,0.21-3.32-0.35l-8.85-3.9l-2.16,4.9l11.32,4.99
	c1.43,0.63,2.38,1.45,2.85,2.46c0.47,1.01,0.42,2.16-0.15,3.45c-0.54,1.22-1.31,1.98-2.33,2.3c-1.02,0.31-2.23,0.16-3.63-0.46
	l-15.49-6.83c-2.28-1-3.68-2.13-4.2-3.39c-0.52-1.26-0.31-2.97,0.65-5.15l8.78-19.94c0.97-2.19,2.09-3.52,3.37-3.98
	C440.46,14.68,442.24,14.95,444.51,15.96"/>
<path fill="#396DB5" d="M466.45,33.63c-1.02-0.63-1.68-1.4-1.96-2.31c-0.28-0.91-0.16-1.82,0.37-2.75c0.56-0.99,1.36-1.64,2.38-1.96
	c1.03-0.31,2.01-0.2,2.95,0.33c1.24,0.7,1.97,1.66,2.2,2.89c0.23,1.23-0.06,2.57-0.89,4.03c-0.5,0.88-1.09,1.64-1.79,2.3
	c-0.7,0.66-1.45,1.17-2.26,1.54c-1.02,0.47-2.1,0.72-3.23,0.76c-1.14,0.03-2.04-0.14-2.7-0.51c-0.39-0.22-0.63-0.53-0.72-0.92
	c-0.09-0.39-0.02-0.81,0.23-1.24c0.15-0.27,0.36-0.47,0.63-0.58c0.26-0.11,0.76-0.16,1.5-0.15c0.94,0.03,1.64-0.06,2.09-0.27
	C465.7,34.57,466.1,34.19,466.45,33.63"/>
<path fill="#396DB5" d="M460.21,49.99c0.98-0.96,2.07-1.44,3.27-1.45c1.2-0.01,2.26,0.46,3.19,1.41c0.92,0.95,1.37,2.48,1.33,4.6
	c-0.02,0.39-0.02,0.7-0.03,0.91c0.01,1.17,0.15,2.1,0.43,2.8c0.28,0.69,0.76,1.39,1.44,2.09c0.85,0.87,1.68,1.4,2.49,1.59
	c0.81,0.19,1.49,0.01,2.05-0.53c0.83-0.81,0.5-2.59-0.98-5.33c-0.38-0.71-0.67-1.26-0.87-1.67c-1.08-2.1-1.89-3.8-2.41-5.1
	c-0.53-1.3-0.82-2.33-0.89-3.09c-0.15-1.51-0.01-2.88,0.44-4.1c0.45-1.22,1.21-2.37,2.3-3.43c2.4-2.34,5.11-3.29,8.15-2.83
	c3.03,0.45,6.1,2.27,9.22,5.46c2.74,2.81,4.47,5.62,5.17,8.44c0.7,2.82,0.27,4.99-1.29,6.51c-0.9,0.88-1.88,1.3-2.92,1.26
	c-1.04-0.04-2.04-0.55-2.98-1.52c-0.94-0.96-1.45-2.42-1.54-4.39c-0.03-0.52-0.05-0.92-0.08-1.18c-0.09-0.82-0.28-1.57-0.58-2.24
	c-0.3-0.67-0.7-1.26-1.19-1.77c-0.77-0.79-1.5-1.25-2.19-1.41c-0.69-0.15-1.31,0.03-1.83,0.55c-0.82,0.8-0.48,2.62,1.01,5.45
	l0.05,0.11c0.12,0.24,0.3,0.57,0.53,1c2.1,4,3.25,6.75,3.45,8.24c0.21,1.66,0.11,3.11-0.3,4.34c-0.41,1.23-1.19,2.41-2.33,3.52
	c-2.62,2.57-5.52,3.61-8.68,3.13c-3.16-0.48-6.44-2.45-9.83-5.93c-2.87-2.94-4.62-5.81-5.26-8.63
	C457.88,53.98,458.44,51.71,460.21,49.99"/>
<path fill="#396DB5" d="M265.47,47.97c-1.24-1.69-2.61-2.8-4.09-3.34c-1.49-0.54-3.16-0.53-5.03,0.02c0.68-1.43,0.95-2.82,0.82-4.17
	c-0.13-1.35-0.66-2.66-1.58-3.92c-1.18-1.6-2.56-2.69-4.13-3.26c-1.58-0.57-3.27-0.6-5.07-0.09c-0.98,0.28-2.03,0.73-3.15,1.36
	c-1.12,0.63-2.79,1.76-5.01,3.39l-6.73,4.95c-2.01,1.47-3.13,2.88-3.36,4.22c-0.24,1.34,0.35,2.98,1.77,4.91l12.91,17.55
	c1.41,1.92,2.79,2.96,4.14,3.13c1.35,0.17,3.03-0.48,5.03-1.95l6.94-5.11c2.63-1.94,4.45-3.42,5.45-4.44
	c0.99-1.02,1.76-2.08,2.3-3.18c0.83-1.62,1.14-3.29,0.93-5.01C267.4,51.31,266.68,49.62,265.47,47.97 M242.97,51.61l-3.53-4.8
	l2.48-1.82c1.95-1.44,3.33-2.19,4.13-2.25c0.8-0.06,1.54,0.37,2.22,1.29c0.64,0.87,0.84,1.67,0.61,2.41
	c-0.24,0.74-0.97,1.56-2.21,2.47L242.97,51.61 M257.12,56.04c-0.28,0.83-1.11,1.75-2.49,2.76l-4.14,3.05l-3.79-5.14l4.07-2.99
	c1.4-1.03,2.54-1.57,3.42-1.61c0.88-0.05,1.66,0.39,2.34,1.31C257.21,54.33,257.41,55.2,257.12,56.04 M270.31,25.16
	c-0.68-1.5-1.62-2.45-2.83-2.84c-1.21-0.4-2.64-0.23-4.28,0.51c-1.6,0.72-2.65,1.7-3.16,2.93c-0.51,1.23-0.42,2.61,0.26,4.12
	l10.37,22.96c0.68,1.51,1.63,2.46,2.83,2.85c1.21,0.39,2.64,0.21,4.29-0.54c1.6-0.72,2.65-1.7,3.15-2.93
	c0.5-1.23,0.41-2.6-0.27-4.11L270.31,25.16 M312.88,28.58c-0.6-2.17-1.51-3.63-2.73-4.37c-1.21-0.74-2.85-0.83-4.9-0.26l-4.41,1.23
	c-1.66,0.46-2.8,1.11-3.42,1.94c-0.62,0.83-0.75,1.89-0.4,3.17c0.32,1.16,0.89,1.92,1.69,2.28c0.81,0.36,1.92,0.34,3.34-0.05
	l1.24-0.35c0.09,1.31-0.31,2.48-1.21,3.51c-0.89,1.04-2.12,1.77-3.69,2.21c-2.19,0.61-4.02,0.31-5.51-0.88
	c-1.48-1.2-2.65-3.3-3.48-6.32c-0.9-3.26-1.05-5.86-0.45-7.79c0.61-1.94,1.98-3.21,4.12-3.8c1.48-0.41,3.09-0.18,4.85,0.7
	c0.26,0.12,0.47,0.22,0.62,0.29c0.04,0.02,0.1,0.05,0.2,0.09c1.52,0.73,2.9,0.92,4.13,0.58c1.42-0.39,2.43-1.09,3.05-2.1
	c0.61-1.01,0.74-2.17,0.37-3.48c-0.64-2.31-2.4-3.89-5.27-4.74c-2.87-0.85-6.22-0.74-10.07,0.33c-5.34,1.48-9.13,4.23-11.38,8.25
	c-2.25,4.02-2.62,8.73-1.12,14.13c1.51,5.44,4.07,9.35,7.69,11.72c3.61,2.37,7.8,2.89,12.57,1.56c2.28-0.63,4.18-1.5,5.7-2.59
	c1.52-1.1,2.71-2.45,3.57-4.05c0.34,1.12,0.88,1.88,1.61,2.28c0.73,0.4,1.68,0.43,2.86,0.11c1.27-0.35,2.13-0.97,2.6-1.87
	c0.47-0.89,0.51-2.01,0.14-3.35L312.88,28.58 M364.5,17.98c-1.01-1.22-2.46-2.06-4.35-2.52c1.31-0.89,2.25-1.95,2.82-3.19
	c0.57-1.23,0.78-2.63,0.61-4.18c-0.21-1.98-0.85-3.61-1.92-4.9c-1.07-1.29-2.51-2.17-4.33-2.64c-0.99-0.26-2.12-0.4-3.41-0.42
	c-1.28-0.02-3.3,0.11-6.04,0.4l-8.31,0.87c-2.48,0.26-4.15,0.91-5.04,1.94c-0.88,1.04-1.2,2.75-0.95,5.13l2.27,21.67
	c0.25,2.37,0.91,3.97,1.99,4.8c1.08,0.83,2.86,1.12,5.33,0.86l8.57-0.9c3.25-0.34,5.57-0.7,6.94-1.08c1.38-0.38,2.57-0.91,3.59-1.58
	c1.53-0.98,2.65-2.26,3.34-3.86c0.69-1.59,0.93-3.41,0.72-5.45C366.13,20.85,365.51,19.2,364.5,17.98 M344.47,8.77l3.06-0.32
	c2.41-0.25,3.98-0.2,4.7,0.15c0.72,0.35,1.14,1.09,1.26,2.23c0.11,1.07-0.12,1.87-0.7,2.39c-0.57,0.52-1.63,0.85-3.15,1.01
	l-4.55,0.48L344.47,8.77 M355.07,25.68c-0.66,0.57-1.84,0.95-3.54,1.13l-5.11,0.54l-0.66-6.35l5.02-0.53
	c1.73-0.18,2.98-0.07,3.77,0.34c0.78,0.41,1.23,1.18,1.35,2.31C356,24.25,355.73,25.1,355.07,25.68 M389.53,27.25l-10.18-0.77
	l1.59-21c0.12-1.64-0.25-2.92-1.12-3.85c-0.87-0.93-2.2-1.46-4-1.6c-1.75-0.13-3.14,0.22-4.18,1.06c-1.04,0.84-1.62,2.09-1.74,3.74
	l-1.87,24.65c-0.13,1.75,0.21,3.07,1.04,3.95c0.83,0.89,2.19,1.4,4.1,1.55l15.73,1.2c1.54,0.12,2.75-0.16,3.63-0.82
	c0.87-0.66,1.36-1.69,1.47-3.08c0.12-1.54-0.2-2.74-0.95-3.58C392.29,27.85,391.12,27.37,389.53,27.25 M431.63,16.45
	c0.5-1.57,0.42-2.94-0.23-4.11c-0.65-1.18-1.81-2.03-3.46-2.55c-1.72-0.55-3.16-0.55-4.33-0.01c-1.17,0.54-2.01,1.58-2.5,3.13
	l-5.08,15.95c-0.58,1.82-1.35,3.02-2.31,3.59c-0.96,0.57-2.23,0.61-3.82,0.1c-1.61-0.51-2.65-1.27-3.1-2.28
	c-0.46-1.01-0.4-2.44,0.19-4.29l5.08-15.95c0.49-1.55,0.42-2.89-0.23-4c-0.65-1.12-1.83-1.95-3.54-2.49
	c-1.66-0.53-3.09-0.5-4.3,0.09c-1.21,0.58-2.07,1.66-2.57,3.22l-5.28,16.6c-1.29,4.04-0.96,7.6,0.98,10.66
	c1.94,3.07,5.31,5.36,10.09,6.88c4.79,1.52,8.85,1.59,12.19,0.21c3.34-1.38,5.65-4.1,6.94-8.14L431.63,16.45 M456.04,30.09
	c1.4,0.62,2.61,0.78,3.63,0.47c1.02-0.31,1.79-1.06,2.32-2.26c0.56-1.26,0.6-2.39,0.14-3.39c-0.47-1-1.42-1.82-2.87-2.46
	l-14.74-6.49c-2.28-1-4.06-1.27-5.34-0.81c-1.28,0.46-2.4,1.79-3.37,3.98l-8.78,19.94c-0.96,2.18-1.18,3.89-0.65,5.15
	c0.52,1.26,1.92,2.39,4.2,3.39l15.49,6.83c1.4,0.62,2.62,0.77,3.63,0.46c1.02-0.31,1.8-1.08,2.33-2.3c0.57-1.29,0.62-2.44,0.15-3.45
	c-0.47-1.01-1.42-1.83-2.85-2.46L438,41.69l2.16-4.9l8.85,3.9c1.28,0.56,2.38,0.68,3.32,0.35c0.94-0.33,1.68-1.1,2.21-2.32
	c0.54-1.23,0.61-2.28,0.22-3.14c-0.4-0.86-1.32-1.61-2.77-2.25l-8.64-3.81l1.86-4.21L456.04,30.09 M461.04,35.78
	c-0.25,0.43-0.32,0.85-0.23,1.24c0.09,0.39,0.33,0.7,0.72,0.92c0.66,0.38,1.57,0.55,2.7,0.51s2.21-0.29,3.23-0.76
	c0.81-0.37,1.56-0.88,2.26-1.54c0.7-0.66,1.3-1.42,1.79-2.3c0.83-1.46,1.12-2.8,0.89-4.03c-0.23-1.23-0.97-2.19-2.2-2.89
	c-0.94-0.53-1.92-0.64-2.95-0.33c-1.03,0.31-1.82,0.96-2.38,1.96c-0.53,0.93-0.65,1.85-0.37,2.75c0.28,0.91,0.93,1.68,1.96,2.31
	c-0.35,0.55-0.76,0.94-1.2,1.15c-0.45,0.21-1.15,0.3-2.09,0.27c-0.73-0.01-1.23,0.04-1.5,0.15C461.4,35.31,461.19,35.5,461.04,35.78
	 M494.5,49.74c-0.7-2.82-2.42-5.63-5.17-8.44c-3.11-3.18-6.18-5-9.22-5.46c-3.03-0.46-5.75,0.49-8.15,2.83
	c-1.09,1.06-1.85,2.2-2.3,3.43c-0.45,1.22-0.59,2.59-0.44,4.1c0.07,0.76,0.36,1.79,0.89,3.09c0.53,1.3,1.33,3.01,2.41,5.1
	c0.21,0.41,0.5,0.96,0.87,1.67c1.48,2.74,1.8,4.52,0.98,5.33c-0.56,0.55-1.24,0.73-2.05,0.53c-0.81-0.19-1.64-0.72-2.49-1.59
	c-0.68-0.7-1.17-1.4-1.44-2.09c-0.28-0.7-0.42-1.63-0.43-2.8c0-0.21,0.01-0.52,0.03-0.91c0.03-2.12-0.41-3.65-1.33-4.6
	c-0.93-0.95-1.99-1.42-3.19-1.41c-1.2,0.01-2.29,0.49-3.27,1.45c-1.77,1.72-2.33,3.99-1.69,6.81c0.64,2.82,2.39,5.69,5.26,8.63
	c3.4,3.47,6.67,5.45,9.83,5.93c3.16,0.48,6.05-0.57,8.68-3.13c1.14-1.11,1.92-2.29,2.33-3.52c0.41-1.23,0.51-2.68,0.3-4.34
	c-0.2-1.49-1.34-4.24-3.45-8.24c-0.23-0.43-0.41-0.76-0.53-1l-0.05-0.11c-1.49-2.84-1.82-4.65-1.01-5.45
	c0.53-0.52,1.14-0.7,1.83-0.55c0.69,0.15,1.43,0.62,2.19,1.41c0.49,0.51,0.89,1.09,1.19,1.77c0.3,0.67,0.49,1.42,0.58,2.24
	c0.03,0.27,0.06,0.66,0.08,1.18c0.09,1.97,0.61,3.43,1.54,4.39c0.95,0.97,1.94,1.47,2.98,1.52c1.04,0.04,2.01-0.38,2.92-1.26
	C494.77,54.73,495.2,52.56,494.5,49.74"/>
<path fill="#5392CE" d="M463.49,50.04c-0.81,0.01-1.54,0.34-2.23,1.02c-0.88,0.86-1.97,2.35-1.28,5.4c0.05,0.23,0.26,0.39,0.49,0.39
	l0.11-0.01c0.27-0.06,0.44-0.33,0.38-0.6c-0.57-2.53,0.23-3.72,1-4.47c0.66-0.65,1.17-0.73,1.54-0.73c0.35,0,0.82,0.07,1.39,0.66
	c0.1,0.1,0.23,0.15,0.36,0.15c0.13,0,0.25-0.05,0.35-0.14c0.2-0.19,0.2-0.51,0.01-0.71C464.76,50.14,464,50.04,463.49,50.04
	 M254.32,49.59l-0.26,0.01c-0.28,0.02-0.49,0.25-0.47,0.53c0.01,0.26,0.24,0.47,0.5,0.47c0.01,0,0.02,0,0.03,0l0.2-0.01
	c0.91,0,2.25,0.33,3.42,1.93c1.23,1.66,1.11,3.09,0.8,4c-0.09,0.26,0.05,0.55,0.31,0.63l0.16,0.03c0.21,0,0.4-0.13,0.47-0.34
	c0.39-1.13,0.54-2.91-0.94-4.92C257.13,50,255.46,49.59,254.32,49.59 M232.68,44.02c-0.1,0-0.21,0.03-0.3,0.1
	c-2.08,1.53-2.66,2.63-2.77,3.27c-0.11,0.63,0.06,1.79,1.5,3.76l12.91,17.55c1.43,1.95,2.49,2.45,3.13,2.53l0.24,0.01
	c0.64,0,1.81-0.29,3.71-1.69c0.22-0.16,0.27-0.48,0.11-0.7c-0.1-0.13-0.25-0.2-0.4-0.2c-0.1,0-0.21,0.03-0.29,0.1
	c-1.84,1.35-2.79,1.49-3.12,1.49l-0.12-0.01c-0.23-0.03-1.07-0.27-2.44-2.13l-12.91-17.55c-1.39-1.88-1.36-2.76-1.33-2.99
	c0.04-0.24,0.34-1.14,2.38-2.64c0.22-0.16,0.27-0.48,0.11-0.7C232.98,44.1,232.83,44.02,232.68,44.02 M246.19,40.23
	c-0.12,0-0.23,0-0.35,0.01c-0.28,0.02-0.48,0.26-0.46,0.54c0.02,0.26,0.23,0.46,0.49,0.46c0.01,0,0.03,0,0.05,0l0.27-0.01
	c0.85,0,2.11,0.33,3.27,1.9c1.17,1.59,1.09,2.92,0.83,3.76c-0.08,0.26,0.06,0.54,0.33,0.63l0.15,0.02c0.21,0,0.41-0.14,0.48-0.35
	c0.34-1.06,0.44-2.73-0.98-4.65C248.86,40.63,247.28,40.23,246.19,40.23 M478.65,37.23c-2.07,0-3.9,0.83-5.63,2.52
	c-0.92,0.9-1.57,1.86-1.94,2.87c-0.36,1-0.48,2.17-0.35,3.46c0.04,0.42,0.2,1.21,0.79,2.66c0.51,1.26,1.31,2.94,2.36,4.98
	c0.2,0.4,0.49,0.95,0.86,1.63c0.09,0.17,0.26,0.27,0.44,0.27l0.23-0.06c0.24-0.13,0.34-0.43,0.21-0.68
	c-0.36-0.68-0.65-1.22-0.85-1.62c-1.04-2.02-1.82-3.67-2.32-4.9c-0.59-1.45-0.7-2.14-0.72-2.38c-0.12-1.15-0.02-2.16,0.3-3.02
	c0.32-0.86,0.89-1.7,1.7-2.49c1.54-1.5,3.13-2.23,4.94-2.23c0.35,0,0.72,0.03,1.09,0.08c0.02,0,0.05,0.01,0.07,0.01
	c0.25,0,0.46-0.18,0.49-0.43c0.04-0.27-0.15-0.53-0.42-0.57C479.47,37.27,479.05,37.23,478.65,37.23 M298.95,29.25
	c-0.04,0-0.09,0.01-0.13,0.02c-0.27,0.07-0.42,0.35-0.35,0.62c0.2,0.7,0.49,1.15,0.86,1.31c0.19,0.08,0.44,0.13,0.75,0.13
	c0.43,0,0.97-0.08,1.58-0.25l1.24-0.35c0.13-0.04,0.26-0.05,0.4-0.05c0.31,0,0.62,0.09,0.87,0.27c0.37,0.26,0.6,0.67,0.63,1.12
	c0.02,0.26,0.24,0.47,0.5,0.47l0.03,0c0.28-0.02,0.48-0.26,0.47-0.53c-0.05-0.75-0.43-1.44-1.05-1.87c-0.42-0.3-0.94-0.46-1.45-0.46
	c-0.22,0-0.45,0.03-0.66,0.09l-1.24,0.35c-0.52,0.14-0.96,0.22-1.3,0.22c-0.24,0-0.34-0.04-0.34-0.04
	c-0.04-0.03-0.18-0.21-0.31-0.67C299.37,29.39,299.17,29.25,298.95,29.25 M468.37,27.94c-0.22,0-0.45,0.04-0.69,0.11
	c-0.66,0.2-1.14,0.6-1.51,1.26c-0.41,0.74-0.34,1.23-0.24,1.57c0.07,0.21,0.26,0.35,0.48,0.35l0.15-0.02
	c0.26-0.08,0.41-0.36,0.33-0.63c-0.04-0.12-0.1-0.33,0.15-0.78c0.25-0.44,0.52-0.67,0.93-0.8c0.14-0.04,0.27-0.07,0.39-0.07
	c0.2,0,0.38,0.06,0.6,0.18c0.08,0.04,0.16,0.06,0.25,0.06c0.17,0,0.34-0.09,0.43-0.25c0.14-0.24,0.05-0.55-0.19-0.68
	C469.09,28.04,468.74,27.94,468.37,27.94 M261.9,26.03c-0.2,0-0.38,0.12-0.46,0.31c-0.35,0.84-0.27,1.8,0.24,2.93l10.37,22.96
	c0.08,0.18,0.27,0.29,0.46,0.29l0.21-0.04c0.25-0.11,0.36-0.41,0.25-0.66l-10.37-22.96c-0.39-0.87-0.47-1.57-0.23-2.14
	c0.11-0.25-0.02-0.55-0.27-0.65C262.03,26.04,261.96,26.03,261.9,26.03 M281.34,19.49c-0.18,0-0.34,0.09-0.44,0.26
	c-2.06,3.69-2.39,7.94-0.98,12.99c1.41,5.06,3.78,8.71,7.07,10.86c2.09,1.37,4.32,2.03,6.84,2.03c0.28,0,0.5-0.22,0.5-0.5
	c0-0.28-0.22-0.5-0.5-0.5c-2.31,0-4.37-0.61-6.29-1.87c-3.08-2.01-5.31-5.48-6.65-10.29c-1.33-4.78-1.04-8.79,0.89-12.24
	c0.13-0.24,0.05-0.55-0.19-0.68C281.51,19.52,281.42,19.49,281.34,19.49 M355.45,18.52c-0.18,0-0.36,0.1-0.44,0.27
	c-0.13,0.25-0.03,0.55,0.21,0.67c0.86,0.45,1.94,1.42,2.15,3.49c0.21,2.06-0.6,3.23-1.33,3.85c-0.21,0.18-0.23,0.5-0.05,0.71
	c0.1,0.11,0.24,0.17,0.38,0.17c0.12,0,0.23-0.04,0.33-0.12c0.91-0.78,1.93-2.23,1.67-4.72c-0.26-2.52-1.61-3.71-2.69-4.27
	C355.61,18.54,355.53,18.52,355.45,18.52 M440.54,16.42c-0.33,0-0.61,0.04-0.85,0.13c-0.6,0.22-1.52,0.94-2.51,3.17l-8.79,19.94
	c-0.11,0.25,0,0.55,0.26,0.66l0.2,0.04c0.19,0,0.38-0.11,0.46-0.3l8.79-19.94c0.94-2.14,1.72-2.56,1.93-2.64
	c0.09-0.03,0.25-0.07,0.51-0.07c0.28,0,0.5-0.22,0.5-0.5C441.04,16.65,440.81,16.42,440.54,16.42 M425.55,10.86
	c-0.5,0-0.94,0.09-1.33,0.27c-0.29,0.13-1.16,0.53-1.7,2.23l-5.08,15.95c-0.08,0.26,0.06,0.54,0.33,0.63l0.15,0.02
	c0.21,0,0.41-0.14,0.48-0.35l5.08-15.95c0.41-1.28,0.97-1.53,1.16-1.62c0.25-0.12,0.56-0.17,0.91-0.17c0.46,0,1.01,0.1,1.62,0.3
	c0.05,0.02,0.1,0.02,0.15,0.02c0.21,0,0.41-0.14,0.48-0.35c0.08-0.26-0.06-0.54-0.33-0.63C426.76,10.98,426.12,10.86,425.55,10.86
	 M353.1,6.3c-0.19,0-0.36,0.1-0.45,0.28c-0.12,0.25-0.02,0.55,0.23,0.67c0.83,0.41,1.88,1.33,2.1,3.42c0.2,1.96-0.53,3.07-1.18,3.66
	c-0.21,0.19-0.22,0.5-0.04,0.71c0.1,0.11,0.24,0.17,0.37,0.17c0.12,0,0.24-0.04,0.33-0.13c0.83-0.74,1.76-2.13,1.51-4.51
	c-0.27-2.55-1.59-3.7-2.65-4.22C353.25,6.32,353.17,6.3,353.1,6.3 M406.09,4.65c-0.53,0-1.02,0.1-1.45,0.31
	c-0.83,0.4-1.42,1.16-1.79,2.33l-5.28,16.6c-1.16,3.63-0.89,6.71,0.82,9.4c0.1,0.15,0.26,0.23,0.42,0.23c0.09,0,0.18-0.02,0.27-0.08
	c0.23-0.15,0.3-0.46,0.15-0.69c-1.54-2.43-1.77-5.23-0.71-8.57l5.28-16.6c0.28-0.89,0.7-1.45,1.27-1.73
	c0.3-0.14,0.64-0.21,1.02-0.21c0.43,0,0.91,0.09,1.44,0.26c0.05,0.02,0.1,0.02,0.15,0.02c0.21,0,0.41-0.14,0.48-0.35
	c0.08-0.26-0.06-0.54-0.32-0.63C407.2,4.75,406.62,4.65,406.09,4.65 M339.8,2.89c-0.02,0-0.04,0-0.06,0
	c-2.71,0.28-3.7,1.01-4.05,1.42c-0.41,0.49-0.85,1.57-0.6,4l2.27,21.67c0.25,2.41,0.91,3.37,1.41,3.76
	c0.68,0.53,1.88,0.64,2.77,0.64c0.46,0,0.96-0.03,1.49-0.08c0.27-0.03,0.47-0.27,0.44-0.55c-0.03-0.26-0.25-0.45-0.49-0.45
	c-0.02,0-0.04,0-0.06,0c-0.48,0.05-0.93,0.07-1.35,0.07c-1.04,0-1.84-0.15-2.2-0.43c-0.18-0.14-0.79-0.77-1.03-3.08l-2.27-21.67
	c-0.24-2.33,0.22-3.07,0.37-3.25c0.11-0.13,0.81-0.81,3.39-1.08c0.27-0.03,0.47-0.27,0.44-0.55C340.26,3.08,340.06,2.89,339.8,2.89
	 M375.13,1.5c-1.07,0-1.91,0.25-2.54,0.75c-0.71,0.57-1.1,1.45-1.19,2.69l-1.88,24.65c-0.1,1.33,0.11,2.25,0.64,2.82
	c0.56,0.6,1.6,0.96,3.11,1.08l0.04,0c0.26,0,0.48-0.2,0.5-0.46c0.02-0.28-0.19-0.52-0.46-0.54c-1.64-0.13-2.24-0.53-2.46-0.76
	c-0.22-0.24-0.47-0.79-0.38-2.06l1.88-24.65c0.07-0.95,0.34-1.6,0.82-1.99c0.44-0.36,1.09-0.53,1.92-0.53c0.16,0,0.33,0.01,0.5,0.02
	c0.01,0,0.03,0,0.04,0c0.25,0,0.47-0.2,0.49-0.46c0.02-0.28-0.19-0.52-0.46-0.54C375.51,1.51,375.32,1.5,375.13,1.5"/>
<path fill="#009247" d="M492.6,119.72c-2.8-1.84-6.14-3.36-10.04-4.55c-3.89-1.19-8.21-2.2-12.95-3.03
	c-1.98-0.35-3.61-0.7-4.88-1.05c-1.28-0.35-2.29-0.72-3.02-1.1c-0.75-0.38-1.26-0.78-1.54-1.21c-0.29-0.42-0.43-0.87-0.43-1.57
	c0-0.9,0.45-1.63,1.33-2.19c0.88-0.56,2.24-0.84,4.09-0.84c3.46,0,7.16,0.58,11.09,1.73c3.93,1.15,7.66,2.98,11.21,5.49l12.1-16.51
	v-3.8c0,0-9.82-2.25-14.59-3.72c-5.42-1.68-11.74-2.51-18.95-2.51c-5.09,0-9.6,0.62-13.53,1.88c-3.93,1.25-7.22,3-9.87,5.23
	c-2.65,2.22-4.67,4.84-6.06,7.84c-1.38,3-2.06,6.24-2.06,9.94c0,3.9,0.85,7.15,2.55,9.77c1.69,2.61,3.98,4.79,6.84,6.53
	c2.87,1.75,6.19,3.17,9.98,4.29c3.78,1.12,7.77,2.09,11.94,2.92c3.96,0.77,6.67,1.5,8.12,2.2c1.45,0.7,2.18,1.57,2.18,2.82
	c0,0.98-0.5,1.75-1.48,2.3c-1,0.56-2.62,0.83-4.89,0.83c-4.38,0-8.81-0.66-13.27-1.99c-4.46-1.32-8.7-3.52-12.74-6.59l-13.27,11.77
	v3.8c4.74,4.11,10.39,7.2,16.93,9.25c6.55,2.06,13.61,3.08,21.18,3.08c4.96,0,9.47-0.58,13.54-1.73c4.07-1.14,7.52-2.78,10.35-4.91
	c2.83-2.13,5.02-4.72,6.58-7.79c1.56-3.06,2.34-6.51,2.34-10.56c0-3.69-0.76-6.82-2.29-9.4
	C497.55,123.77,495.39,121.56,492.6,119.72 M704.31,86.21l-15.92,25.71l-15.93-25.71h-25.89v70.42l-30.15-70.94h-24.62l-29.19,68.7
	v-15.91h-34.92V86.21h-24.84v73.18h84.17l3.83-9.83h26.01l3.92,9.83h49.99v-36.28l17.57,26.03l17.14-26.03v36.28h24.73V86.21H704.31
	 M597.1,132.2l6.79-17.77l6.8,17.77H597.1"/>
<path fill="#009E4D" d="M704.31,82.41l-15.92,25.71l-15.93-25.71h-25.89v70.42l-30.15-70.94h-24.62l-29.19,68.7v-15.91h-34.92V82.41
	h-24.84v73.18h84.17l3.83-9.83h26.01l3.92,9.83h49.99v-36.28l17.57,26.03l17.14-26.03v36.28h24.73V82.41H704.31 M597.1,128.4
	l6.79-17.77l6.8,17.77H597.1 M492.6,115.91c-2.8-1.84-6.14-3.36-10.04-4.55c-3.89-1.19-8.21-2.2-12.95-3.03
	c-1.98-0.35-3.61-0.7-4.88-1.05c-1.28-0.35-2.29-0.72-3.02-1.1c-0.75-0.38-1.26-0.78-1.54-1.21c-0.29-0.42-0.43-0.87-0.43-1.57
	c0-0.9,0.45-1.63,1.33-2.19c0.88-0.56,2.24-0.84,4.09-0.84c3.46,0,7.16,0.58,11.09,1.73c3.93,1.15,7.66,2.98,11.21,5.49l12.1-16.51
	c-4.31-3.35-9.18-5.86-14.59-7.53c-5.42-1.68-11.74-2.51-18.95-2.51c-5.09,0-9.6,0.62-13.53,1.88c-3.93,1.25-7.22,3-9.87,5.23
	c-2.65,2.22-4.67,4.84-6.06,7.83c-1.38,3-2.06,6.24-2.06,9.94c0,3.9,0.85,7.15,2.55,9.77c1.69,2.61,3.98,4.79,6.84,6.53
	c2.87,1.75,6.19,3.17,9.98,4.29c3.78,1.12,7.77,2.09,11.94,2.92c3.96,0.77,6.67,1.5,8.12,2.2c1.45,0.7,2.18,1.57,2.18,2.82
	c0,0.98-0.5,1.75-1.48,2.3c-1,0.56-2.62,0.83-4.89,0.83c-4.38,0-8.81-0.66-13.27-1.99c-4.46-1.32-8.7-3.52-12.74-6.59l-13.27,15.57
	c4.74,4.11,10.39,7.2,16.93,9.25c6.55,2.06,13.61,3.08,21.18,3.08c4.96,0,9.47-0.58,13.54-1.73c4.07-1.14,7.52-2.78,10.35-4.91
	c2.83-2.13,5.02-4.72,6.58-7.79c1.56-3.06,2.34-6.51,2.34-10.56c0-3.69-0.76-6.82-2.29-9.4
	C497.55,119.97,495.39,117.75,492.6,115.91"/>
<path fill="#009247" d="M295.28,95.71c3.73,3.17,6.53,7,8.39,11.48c1.87,4.49,2.8,9.48,2.8,14.98c0,5.72-0.95,10.76-2.85,15.35
	c-1.9,4.59-4.77,8.54-8.59,11.86c-3.84,3.32-8.6,5.9-14.3,7.73c-5.7,1.84-12.34,2.76-19.94,2.76h-27.94v-25.77
	c-0.41,1.29-0.89,2.56-1.45,3.8c-2.11,4.69-5.02,8.79-8.7,12.29c-3.7,3.49-8.05,6.24-13.06,8.25c-5.02,2.02-10.43,3.02-16.23,3.02
	c-5.81,0-11.2-1-16.18-2.97c-4.99-1.97-9.32-4.69-13.01-8.15c-3.69-3.46-6.58-7.53-8.66-12.22c-1.16-2.62-1.99-5.35-2.5-8.18
	c-0.52,2.76-1.35,5.41-2.5,7.96c-2.11,4.69-5.02,8.79-8.71,12.29c-3.69,3.49-8.04,6.24-13.05,8.25c-5.02,2.02-10.43,3.02-16.23,3.02
	c-5.81,0-11.2-1-16.18-2.97c-4.99-1.97-9.32-4.69-13.01-8.15c-3.69-3.46-6.58-7.53-8.66-12.22c-0.54-1.21-1-2.44-1.39-3.7v25.45
	H48.16v-26.58h-23v26.58H0v-74.1h25.16v26.15h23V85.76h25.16v25.76c0.41-1.28,0.89-2.56,1.45-3.8c2.11-4.69,5.01-8.79,8.7-12.28
	c3.69-3.49,8.05-6.25,13.06-8.26c5.02-2.01,10.43-3.02,16.23-3.02c5.81,0,11.2,0.99,16.18,2.96c4.99,1.97,9.31,4.69,13.01,8.15
	c3.69,3.46,6.58,7.54,8.66,12.23c1.16,2.61,1.98,5.34,2.5,8.17c0.52-2.75,1.35-5.4,2.5-7.96c2.11-4.69,5.01-8.79,8.7-12.28
	c3.69-3.49,8.05-6.25,13.06-8.26c5.02-2.01,10.43-3.17,16.23-3.02c6.17,0.17,13.69,2.12,16.18,2.96c5.08,1.71,9.31,4.69,13.01,8.15
	c3.69,3.46,6.58,7.54,8.66,12.23c0.54,1.2,0.99,2.44,1.39,3.7V85.76h28.81c7.45,0,13.99,0.86,19.61,2.59
	C286.88,90.08,291.55,92.53,295.28,95.71 M209.18,123.01v-0.21c0-2.19-0.37-4.29-1.12-6.3c-0.76-2.01-1.81-3.79-3.17-5.35
	c-1.37-1.54-3.02-2.78-4.95-3.7c-1.93-0.92-4.12-1.38-6.55-1.38c-2.37,0-4.52,0.47-6.45,1.38c-1.93,0.92-3.58,2.14-4.94,3.65
	c-1.37,1.52-2.41,3.26-3.13,5.23c-0.71,1.98-1.08,4.07-1.08,6.25v0.22c0,2.19,0.38,4.28,1.13,6.3c0.76,2.01,1.81,3.79,3.17,5.34
	c1.37,1.55,3.02,2.79,4.95,3.71c1.93,0.92,4.12,1.37,6.55,1.37c2.37,0,4.52-0.46,6.45-1.37c1.93-0.92,3.58-2.14,4.94-3.65
	c1.37-1.52,2.41-3.27,3.12-5.24C208.82,127.29,209.18,125.2,209.18,123.01 M128.35,123.01v-0.21c0-2.19-0.37-4.29-1.12-6.3
	c-0.76-2.01-1.81-3.79-3.17-5.35c-1.37-1.54-3.02-2.78-4.95-3.7c-1.93-0.92-4.12-1.38-6.55-1.38c-2.37,0-4.52,0.47-6.45,1.38
	c-1.93,0.92-3.58,2.14-4.95,3.65c-1.36,1.52-2.4,3.26-3.12,5.23c-0.71,1.98-1.08,4.07-1.08,6.25v0.22c0,2.19,0.38,4.28,1.13,6.3
	c0.76,2.01,1.81,3.79,3.17,5.34c1.37,1.55,3.02,2.79,4.95,3.71c1.93,0.92,4.12,1.37,6.55,1.37c2.37,0,4.52-0.46,6.45-1.37
	c1.93-0.92,3.58-2.14,4.94-3.65c1.37-1.52,2.41-3.27,3.12-5.24C127.99,127.29,128.35,125.2,128.35,123.01 M281.1,122.91v-0.22
	c0-5.36-1.7-9.26-5.11-11.7c-3.4-2.44-8-3.65-13.81-3.65h-4.19v30.91h4.19c5.81,0,10.41-1.22,13.81-3.65
	C279.39,132.18,281.1,128.27,281.1,122.91"/>
<path fill="#009E4D" d="M295.28,91.91c3.73,3.17,6.53,7,8.39,11.48c1.87,4.49,2.8,9.48,2.8,14.98c0,5.72-0.95,10.76-2.85,15.35
	c-1.9,4.59-4.77,8.54-8.59,11.86c-3.84,3.32-8.6,5.9-14.3,7.73c-5.7,1.84-12.34,2.76-19.94,2.76h-27.94v-25.77
	c-0.41,1.29-0.89,2.56-1.45,3.8c-2.11,4.69-5.02,8.79-8.7,12.29c-3.7,3.49-8.05,6.24-13.06,8.25c-5.02,2.02-10.43,3.02-16.23,3.02
	c-5.81,0-11.2-1-16.18-2.97c-4.99-1.97-9.32-4.69-13.01-8.15c-3.69-3.46-6.58-7.53-8.66-12.22c-1.16-2.62-1.99-5.35-2.5-8.18
	c-0.52,2.76-1.35,5.41-2.5,7.96c-2.11,4.69-5.02,8.79-8.71,12.29c-3.69,3.49-8.04,6.24-13.05,8.25c-5.02,2.02-10.43,3.02-16.23,3.02
	c-5.81,0-11.2-1-16.18-2.97c-4.99-1.97-9.32-4.69-13.01-8.15c-3.69-3.46-6.58-7.53-8.66-12.22c-0.54-1.21-1-2.44-1.39-3.7v25.45
	H48.16v-26.58h-23v26.58H0v-74.1h25.16v26.15h23V81.95h25.16v25.76c0.41-1.28,0.89-2.56,1.45-3.8c2.11-4.69,5.01-8.79,8.7-12.28
	c3.69-3.49,8.05-6.25,13.06-8.26c5.02-2.01,10.43-3.02,16.23-3.02c5.81,0,11.2,0.99,16.18,2.96c4.99,1.97,9.31,4.69,13.01,8.15
	c3.69,3.46,6.58,7.54,8.66,12.23c1.16,2.61,1.98,5.34,2.5,8.17c0.52-2.75,1.35-5.4,2.5-7.96c2.11-4.69,5.01-8.79,8.7-12.28
	c3.69-3.49,8.05-6.25,13.06-8.26c5.02-2.01,10.43-3.17,16.23-3.02c6.17,0.17,13.69,2.12,16.18,2.96c5.08,1.71,9.31,4.69,13.01,8.15
	c3.69,3.46,6.58,7.54,8.66,12.23c0.54,1.2,0.99,2.44,1.39,3.7V81.95h28.81c7.45,0,13.99,0.86,19.61,2.59
	C286.88,86.28,291.55,88.73,295.28,91.91 M209.18,119.21V119c0-2.19-0.37-4.29-1.12-6.3c-0.76-2.01-1.81-3.79-3.17-5.35
	c-1.37-1.54-3.02-2.78-4.95-3.7c-1.93-0.92-4.12-1.38-6.55-1.38c-2.37,0-4.52,0.47-6.45,1.38c-1.93,0.92-3.58,2.14-4.94,3.65
	c-1.37,1.52-2.41,3.26-3.13,5.23c-0.71,1.98-1.08,4.07-1.08,6.25V119c0,2.19,0.38,4.28,1.13,6.3c0.76,2.01,1.81,3.79,3.17,5.34
	c1.37,1.55,3.02,2.79,4.95,3.71c1.93,0.92,4.12,1.37,6.55,1.37c2.37,0,4.52-0.46,6.45-1.37c1.93-0.92,3.58-2.14,4.94-3.65
	c1.37-1.52,2.41-3.27,3.12-5.24C208.82,123.48,209.18,121.4,209.18,119.21 M128.35,119.21V119c0-2.19-0.37-4.29-1.12-6.3
	c-0.76-2.01-1.81-3.79-3.17-5.35c-1.37-1.54-3.02-2.78-4.95-3.7c-1.93-0.92-4.12-1.38-6.55-1.38c-2.37,0-4.52,0.47-6.45,1.38
	c-1.93,0.92-3.58,2.14-4.95,3.65c-1.36,1.52-2.4,3.26-3.12,5.23c-0.71,1.98-1.08,4.07-1.08,6.25V119c0,2.19,0.38,4.28,1.13,6.3
	c0.76,2.01,1.81,3.79,3.17,5.34c1.37,1.55,3.02,2.79,4.95,3.71c1.93,0.92,4.12,1.37,6.55,1.37c2.37,0,4.52-0.46,6.45-1.37
	c1.93-0.92,3.58-2.14,4.94-3.65c1.37-1.52,2.41-3.27,3.12-5.24C127.99,123.48,128.35,121.4,128.35,119.21 M281.1,119.11v-0.22
	c0-5.36-1.7-9.26-5.11-11.7c-3.4-2.44-8-3.65-13.81-3.65h-4.19v30.91h4.19c5.81,0,10.41-1.22,13.81-3.65
	C279.39,128.37,281.1,124.47,281.1,119.11"/>
<path fill="#FFFBCC" d="M502.85,116.76L502.85,116.76v38.83V116.76 M576.98,116.76L576.98,116.76l-14.37,33.83v-15.91h-34.92v-17.92
	v17.92h34.92v15.91L576.98,116.76 M631.24,116.76L631.24,116.76l15.33,36.07v0L631.24,116.76"/>
<path fill="#33A443" d="M590.84,145.75L590.84,145.75l-3.83,9.83h0L590.84,145.75 M670.77,119.31v3.8V119.31L670.77,119.31
	 M705.47,119.31l-17.14,26.03h0L705.47,119.31L705.47,119.31 M601.56,116.76L601.56,116.76l-4.45,11.64L601.56,116.76
	 M606.24,116.76L606.24,116.76l4.45,11.64h-1.45h1.45L606.24,116.76"/>
<polyline fill="#37AD47" points="730.2,116.76 646.57,116.76 646.57,152.83 646.57,152.83 631.24,116.76 606.24,116.76 
	610.69,128.4 609.24,128.4 597.1,128.4 601.56,116.76 576.98,116.76 562.61,150.58 562.61,134.67 527.69,134.67 527.69,116.76 
	502.85,116.76 502.85,155.58 587.01,155.58 590.84,145.75 590.84,145.75 616.85,145.75 620.77,155.58 670.77,155.58 670.77,123.11 
	670.77,119.31 670.77,119.31 688.34,145.34 705.47,119.31 705.47,119.31 705.47,155.58 730.2,155.58 730.2,116.76 "/>
<path fill="#FFFBCC" d="M501.36,131.78c0,0.06,0,0.12,0,0.18l0,0C501.36,131.9,501.36,131.84,501.36,131.78 M501.35,131.31
	C501.35,131.31,501.35,131.31,501.35,131.31C501.35,131.31,501.35,131.31,501.35,131.31 M443.73,129.03l-13.27,15.57l0,0h0l0,0
	L443.73,129.03c4.03,3.07,8.27,5.27,12.74,6.59c4.45,1.33,8.88,1.99,13.27,1.99c2.27,0,3.89-0.28,4.89-0.83
	c0.24-0.14,0.45-0.28,0.64-0.45l0,0c-0.18,0.16-0.39,0.31-0.64,0.45c-1,0.56-2.62,0.83-4.89,0.83c-4.38,0-8.81-0.66-13.27-1.99
	C452,134.29,447.76,132.1,443.73,129.03"/>
<path fill="#33A443" d="M446.52,153.58c0.16,0.05,0.32,0.11,0.48,0.16C446.84,153.68,446.68,153.63,446.52,153.58 M446.31,153.51
	c0.03,0.01,0.05,0.02,0.08,0.03C446.36,153.53,446.34,153.52,446.31,153.51 M430.45,144.6L430.45,144.6L430.45,144.6
	c1.73,1.5,3.58,2.86,5.55,4.09C434.03,147.46,432.18,146.1,430.45,144.6 M471.99,130.91c0.79,0.25,1.44,0.49,1.93,0.73
	c1.45,0.7,2.18,1.57,2.18,2.82c0,0.74-0.28,1.36-0.85,1.86l0,0c0.57-0.5,0.85-1.11,0.85-1.86c0-1.25-0.73-2.12-2.18-2.82
	C473.42,131.4,472.78,131.16,471.99,130.91 M452.78,126.19c0.36,0.11,0.72,0.22,1.08,0.33c0.31,0.09,0.62,0.18,0.93,0.27
	c-0.31-0.09-0.62-0.18-0.93-0.27C453.49,126.41,453.13,126.3,452.78,126.19 M443.69,122.11c0.06,0.04,0.13,0.08,0.19,0.12
	c1.23,0.75,2.53,1.43,3.93,2.06c-1.39-0.63-2.7-1.32-3.93-2.06C443.81,122.19,443.75,122.15,443.69,122.11"/>
<path fill="#37AD47" d="M493.8,116.76h-55.98c1.56,2.09,3.5,3.88,5.87,5.36c0.06,0.04,0.13,0.08,0.19,0.12
	c1.23,0.75,2.53,1.43,3.93,2.06c1.55,0.7,3.21,1.33,4.97,1.9c0.36,0.11,0.72,0.22,1.08,0.33c0.31,0.09,0.62,0.18,0.93,0.27
	c3.5,1,7.18,1.89,11.01,2.65c2.6,0.51,4.67,0.99,6.18,1.47c0.79,0.25,1.44,0.49,1.93,0.73c1.45,0.7,2.18,1.57,2.18,2.82
	c0,0.74-0.28,1.36-0.85,1.86c-0.18,0.16-0.39,0.31-0.64,0.45c-1,0.56-2.62,0.83-4.89,0.83c-4.38,0-8.81-0.66-13.27-1.99
	c-4.46-1.32-8.7-3.52-12.74-6.59l-13.27,15.57l0,0c1.73,1.5,3.58,2.86,5.55,4.09c3.13,1.95,6.57,3.56,10.31,4.82
	c0.03,0.01,0.05,0.02,0.08,0.03c0.04,0.01,0.08,0.03,0.13,0.04c0.16,0.05,0.32,0.11,0.48,0.16c0.13,0.04,0.25,0.08,0.38,0.12
	c6.55,2.06,13.61,3.08,21.18,3.08c4.96,0,9.47-0.58,13.54-1.73c4.07-1.14,7.52-2.78,10.35-4.91c2.83-2.13,5.02-4.72,6.58-7.79
	c1.56-3.06,2.34-6.51,2.34-10.56c0-0.06,0-0.12,0-0.18c0-0.16,0-0.31-0.01-0.46c0,0,0,0,0-0.01c-0.08-3.41-0.85-6.33-2.28-8.76
	C497.78,120.35,496.02,118.42,493.8,116.76"/>
<path fill="#FFFBCC" d="M185.62,133.59c0.46,0.28,0.93,0.53,1.42,0.76c0.54,0.25,1.09,0.47,1.66,0.66c-0.57-0.18-1.13-0.4-1.66-0.66
	C186.55,134.12,186.07,133.86,185.62,133.59 M25.16,133.28L25.16,133.28v22.77h0L25.16,133.28 M104.12,133.16
	c0.66,0.44,1.35,0.84,2.09,1.19c0.75,0.36,1.55,0.65,2.38,0.86c-0.83-0.22-1.63-0.51-2.38-0.86
	C105.47,134,104.77,133.61,104.12,133.16 M124.15,130.7L124.15,130.7c-1.36,1.52-3.01,2.74-4.94,3.65c-0.6,0.28-1.22,0.53-1.87,0.72
	c0.64-0.2,1.27-0.44,1.87-0.72C121.14,133.44,122.79,132.21,124.15,130.7L124.15,130.7 M100.09,129.15c0.36,0.52,0.75,1.02,1.17,1.5
	c0.33,0.38,0.68,0.73,1.04,1.07c-0.36-0.34-0.71-0.69-1.04-1.07C100.84,130.17,100.45,129.67,100.09,129.15 M278.6,128.21
	c-0.72,1-1.59,1.87-2.62,2.6c-3.4,2.43-8,3.65-13.81,3.65h-4.19h4.19c5.81,0,10.41-1.22,13.81-3.65
	C277.01,130.07,277.88,129.21,278.6,128.21 M208.5,124.22c-0.12,0.42-0.25,0.83-0.4,1.24c-0.71,1.97-1.75,3.72-3.12,5.24
	c-1.36,1.52-3.01,2.74-4.94,3.65c-0.67,0.32-1.37,0.58-2.1,0.79c0.73-0.21,1.43-0.47,2.1-0.79c1.93-0.92,3.58-2.14,4.94-3.65
	c1.37-1.52,2.41-3.27,3.12-5.24C208.25,125.05,208.38,124.64,208.5,124.22 M128.26,121.03c-0.14,1.53-0.47,3.01-0.99,4.43l0,0l0,0
	C127.79,124.04,128.12,122.56,128.26,121.03C128.26,121.03,128.26,121.03,128.26,121.03 M177.87,120.78
	C177.87,120.78,177.87,120.78,177.87,120.78c0.15,1.55,0.5,3.06,1.04,4.52l0,0l0,0C178.38,123.84,178.03,122.33,177.87,120.78"/>
<path fill="#33A443" d="M191.77,157.62c0.53,0.02,1.07,0.03,1.62,0.03l0,0C192.84,157.64,192.3,157.63,191.77,157.62 M191.68,157.61
	c0.03,0,0.06,0,0.09,0C191.73,157.62,191.7,157.61,191.68,157.61 M110.39,157.6c0.71,0.03,1.43,0.05,2.16,0.05l0,0
	C111.82,157.64,111.11,157.63,110.39,157.6 M110.37,157.6c0.01,0,0.02,0,0.02,0C110.38,157.6,110.38,157.6,110.37,157.6
	 M110.16,157.59c0.03,0,0.06,0,0.09,0C110.23,157.59,110.2,157.59,110.16,157.59 M213.27,152.97c-1.17,0.6-2.39,1.15-3.65,1.65
	c-3.28,1.32-6.71,2.2-10.32,2.66c3.61-0.46,7.05-1.34,10.32-2.66C210.87,154.11,212.09,153.56,213.27,152.97 M166.28,148.34
	c3.21,2.61,6.85,4.72,10.93,6.33C173.13,153.06,169.49,150.95,166.28,148.34 M84.34,147.41c3.47,3.05,7.48,5.46,12.03,7.27
	c0.76,0.3,1.53,0.58,2.3,0.83c-0.78-0.26-1.55-0.53-2.3-0.83C91.82,152.87,87.81,150.45,84.34,147.41 M84.05,147.15
	c0.06,0.05,0.11,0.1,0.17,0.15C84.16,147.25,84.11,147.2,84.05,147.15 M83.84,146.96c0.03,0.03,0.07,0.06,0.11,0.1
	C83.91,147.02,83.87,146.99,83.84,146.96 M83.58,146.72c0.06,0.06,0.12,0.11,0.18,0.17C83.7,146.83,83.64,146.78,83.58,146.72
	 M142.52,145.7c-0.23,0.23-0.46,0.45-0.69,0.67C142.07,146.15,142.3,145.93,142.52,145.7 M295.02,145.57c-2.5,2.16-5.38,4-8.67,5.53
	C289.63,149.58,292.52,147.73,295.02,145.57 M142.81,145.41c-0.06,0.06-0.12,0.13-0.19,0.19
	C142.69,145.54,142.75,145.47,142.81,145.41 M226.97,141.55c-1.29,1.71-2.72,3.32-4.3,4.82
	C224.25,144.87,225.68,143.27,226.97,141.55 M76.12,137.16c1.91,3.51,4.33,6.63,7.25,9.36C80.45,143.79,78.03,140.67,76.12,137.16
	 M150.42,134.36c-0.04,0.08-0.08,0.16-0.11,0.24C150.35,134.52,150.38,134.44,150.42,134.36 M150.64,133.88
	c-0.03,0.07-0.06,0.14-0.09,0.21C150.58,134.01,150.61,133.94,150.64,133.88 M232.71,130.67c-0.38,1.16-0.82,2.3-1.33,3.41
	C231.88,132.97,232.32,131.83,232.71,130.67 M73.31,130.6c0.2,0.65,0.42,1.29,0.67,1.93C73.74,131.89,73.52,131.25,73.31,130.6
	 M25.16,129.48L25.16,129.48v3.8V129.48 M305.08,129.42c-0.4,1.48-0.89,2.91-1.47,4.29c-1.9,4.59-4.77,8.54-8.59,11.86
	c3.83-3.31,6.7-7.27,8.59-11.86C304.19,132.33,304.67,130.9,305.08,129.42 M153.04,126.12c0.51,2.83,1.34,5.56,2.5,8.18
	C154.38,131.68,153.55,128.95,153.04,126.12 M128.35,119.21c0,0.61-0.03,1.22-0.08,1.82c0,0,0,0,0,0
	C128.32,120.43,128.35,119.82,128.35,119.21L128.35,119.21 M97.08,116.76h-0.01c-0.07,0.66-0.11,1.32-0.11,1.99
	C96.96,118.08,97.01,117.41,97.08,116.76 M128.21,116.76h-0.02c0.09,0.73,0.15,1.46,0.15,2.21
	C128.34,118.22,128.3,117.48,128.21,116.76 M177.91,116.76h-0.01c-0.07,0.67-0.11,1.34-0.11,2.03V119c0,0.6,0.03,1.19,0.09,1.78
	c0,0,0,0,0,0c-0.06-0.59-0.09-1.18-0.09-1.78v-0.22C177.79,118.1,177.84,117.43,177.91,116.76 M209.04,116.76h-0.02
	c0.09,0.73,0.15,1.46,0.15,2.21C209.18,118.22,209.13,117.48,209.04,116.76 M281,116.76L281,116.76c0.05,0.63,0.09,1.28,0.1,1.95
	C281.09,118.03,281.06,117.38,281,116.76"/>
<path fill="#37AD47" d="M306.43,116.76H281c0.06,0.63,0.09,1.28,0.1,1.95c0,0.06,0,0.12,0,0.19v0.22c0,3.74-0.83,6.78-2.5,9.1
	c-0.72,1-1.59,1.87-2.62,2.6c-3.4,2.43-8,3.65-13.81,3.65h-4.19h0v-17.7h-48.94c0.09,0.73,0.13,1.46,0.13,2.21c0,0.01,0,0.02,0,0.04
	v0.21l0,0c0,0.03,0,0.07,0,0.1c-0.01,1.7-0.23,3.34-0.68,4.91c-0.12,0.42-0.25,0.83-0.4,1.24c-0.71,1.97-1.75,3.72-3.12,5.24
	c-1.36,1.52-3.01,2.74-4.94,3.65c-0.67,0.32-1.37,0.58-2.1,0.79c-1.36,0.39-2.81,0.58-4.35,0.58c-1.76,0-3.39-0.24-4.89-0.72
	c-0.57-0.18-1.13-0.4-1.66-0.66c-0.49-0.23-0.97-0.49-1.42-0.76c-1.33-0.8-2.51-1.79-3.53-2.94c-1.36-1.55-2.42-3.33-3.17-5.34l0,0
	c-0.54-1.47-0.89-2.97-1.04-4.52c-0.06-0.59-0.09-1.18-0.09-1.78v-0.22c0-0.69,0.04-1.36,0.11-2.03h-49.69
	c0.09,0.73,0.13,1.46,0.13,2.21c0,0.01,0,0.02,0,0.04v0.21l0,0c0,0.61-0.03,1.22-0.08,1.82c-0.14,1.53-0.47,3.01-0.99,4.43l0,0
	c-0.71,1.97-1.75,3.72-3.12,5.24l0,0c-1.36,1.52-3.01,2.74-4.94,3.65c-0.6,0.28-1.22,0.53-1.87,0.72c-1.42,0.43-2.95,0.65-4.59,0.65
	c-1.48,0-2.87-0.17-4.17-0.51c-0.83-0.22-1.63-0.51-2.38-0.86c-0.74-0.35-1.43-0.75-2.09-1.19c-0.65-0.44-1.25-0.92-1.82-1.45
	c-0.36-0.34-0.71-0.7-1.04-1.07c-0.42-0.48-0.81-0.98-1.17-1.5c-0.81-1.17-1.48-2.45-2-3.84l0,0l0,0c-0.73-1.97-1.11-4.01-1.13-6.15
	c0-0.05,0-0.1,0-0.15v-0.22l0,0c0-0.01,0-0.02,0-0.04c0-0.67,0.04-1.34,0.11-1.99H0v39.3h25.16l0-22.77v-3.8h0h23v26.58h25.16V130.6
	l0,0l0,0c0.2,0.65,0.42,1.29,0.67,1.93c0.23,0.59,0.47,1.18,0.73,1.77c0.43,0.98,0.91,1.94,1.41,2.87c1.91,3.51,4.33,6.63,7.25,9.36
	l0,0c0.07,0.07,0.14,0.13,0.21,0.2c0.06,0.06,0.12,0.11,0.18,0.17c0.03,0.02,0.05,0.05,0.08,0.07c0.03,0.03,0.07,0.06,0.11,0.1
	c0.04,0.03,0.07,0.07,0.11,0.1c0.06,0.05,0.11,0.1,0.17,0.15c0.04,0.04,0.08,0.07,0.12,0.11c3.47,3.05,7.48,5.46,12.03,7.27
	c0.76,0.3,1.53,0.58,2.3,0.83c3.62,1.19,7.45,1.88,11.49,2.08c0.03,0,0.06,0,0.09,0c0.04,0,0.07,0,0.11,0c0.01,0,0.02,0,0.02,0
	c0,0,0,0,0,0c0.71,0.03,1.43,0.05,2.16,0.05c5.81,0,11.21-1.01,16.23-3.02c5.01-2.01,9.36-4.76,13.05-8.25l0,0
	c0.23-0.22,0.46-0.44,0.69-0.67c0.03-0.03,0.07-0.07,0.1-0.1c0.06-0.06,0.12-0.12,0.19-0.19c3.1-3.15,5.6-6.75,7.5-10.81
	c0.04-0.08,0.08-0.16,0.11-0.24c0.04-0.09,0.08-0.18,0.12-0.27l0,0c0.03-0.07,0.06-0.14,0.09-0.21c1.1-2.49,1.9-5.07,2.41-7.76l0,0
	c0.51,2.83,1.34,5.56,2.5,8.18l0,0c2.08,4.69,4.97,8.77,8.66,12.22c0.67,0.63,1.36,1.24,2.08,1.82c3.21,2.61,6.85,4.72,10.93,6.33
	l0,0c4.48,1.78,9.31,2.76,14.47,2.94c0.03,0,0.06,0,0.09,0c0,0,0,0,0.01,0c0.54,0.02,1.07,0.03,1.62,0.03
	c2.02,0,3.99-0.12,5.91-0.36c3.61-0.46,7.05-1.34,10.32-2.66c1.26-0.5,2.47-1.06,3.65-1.65c3.5-1.78,6.64-3.98,9.41-6.6l0,0
	c1.57-1.5,3.01-3.1,4.3-4.82c1.73-2.29,3.2-4.78,4.41-7.47l0,0c0.5-1.12,0.94-2.25,1.33-3.41c0.04-0.13,0.08-0.26,0.12-0.38v25.77
	h27.94c7.6,0,14.25-0.92,19.94-2.76c1.99-0.64,3.87-1.37,5.63-2.19c3.28-1.53,6.17-3.37,8.67-5.53l0,0l0,0
	c3.83-3.31,6.7-7.27,8.59-11.86c0.58-1.39,1.06-2.82,1.47-4.29c0.93-3.41,1.39-7.07,1.39-11.05
	C306.46,117.82,306.45,117.29,306.43,116.76"/>
<path fill="#396DB5" d="M344.36,64.25l-6.37-6.4c-5.41-5.43-14.2-5.44-19.63-0.03c-5.43,5.41-5.44,14.2-0.03,19.63l6.38,6.39
	L344.36,64.25"/>
<path fill="#396DB5" d="M412.69,83.84l6.4-6.37c5.43-5.41,5.44-14.2,0.03-19.63c-5.41-5.43-14.2-5.44-19.63-0.03l-6.39,6.38
	L412.69,83.84z"/>
<polyline fill="#396DB5" points="422.01,105.94 413.24,72.34 385.79,53.92 352.62,53.92 326.49,72.34 315.44,105.94 325.64,136.62 
	352.46,156.08 385.63,156.08 412.51,136.62 422.01,105.94 "/>
<path fill="#0062AF" d="M422.01,105.94H368.7v26.34c0.01,0,0.01,0,0.02,0c1.58,0,2.98-0.64,3.86-1.17h0.01l0,0
	c-0.37,0.4-1.96,2.36-3.87,2.36c-0.01,0-0.01,0-0.02,0v22.03l-16.25,0.58l-26.81-19.46l0,0l26.81,19.46h33.18l26.87-19.46
	L422.01,105.94"/>
<polyline fill="#396DB5" points="323.2,82.33 315.44,105.94 325.64,136.62 315.44,105.94 323.2,82.33 323.2,82.33 "/>
<polyline fill="#0062AF" points="326.49,72.34 326.49,72.34 323.2,82.33 323.2,82.33 326.49,72.34 "/>
<path fill="#0062AF" d="M358.06,94.27c-0.52-0.76-0.84-1.7-0.84-2.73c0-2.46,1.74-4.45,3.89-4.45s3.89,1.99,3.89,4.45
	c0,0.65-0.13,1.27-0.35,1.83C362.15,93.53,359.9,93.84,358.06,94.27 M368.7,53.92h-16.09l-26.13,18.43l-3.28,9.99l-7.76,23.61h53.26
	V76.6l-0.02-0.01l-15.53,3.98c0,0,9.5-5.24,15.49-5.24c0,0,0.01,0,0.01,0c0.02,0,0.04,0,0.06,0V53.92"/>
<path fill="#005BAB" d="M368.7,105.94h-53.26l10.2,30.68l26.81,19.46l16.25-0.58v-22.03c-1.89-0.01-3.47-1.96-3.84-2.36h0.01
	c0.87,0.53,2.27,1.17,3.84,1.17V105.94"/>
<path d="M367.52,107.95l0.01,18.36c0,0.66,0.54,1.2,1.2,1.2c0.66,0,1.2-0.54,1.2-1.2l-0.01-18.36c0-0.66-0.54-1.2-1.2-1.2
	C368.06,106.75,367.52,107.29,367.52,107.95"/>
<polygon points="383.4,104.1 368.72,116.54 354.05,104.1 "/>
<path fill="#1F4BA0" d="M376.34,87.08c-2.15,0-3.89,1.99-3.89,4.45c0,0.65,0.13,1.27,0.35,1.83c2.5,0.17,4.74,0.48,6.59,0.9
	c0.52-0.76,0.84-1.7,0.84-2.73C380.24,89.08,378.49,87.08,376.34,87.08"/>
<path fill="#1C479E" d="M361.11,87.08c-2.15,0-3.89,1.99-3.89,4.45c0,1.04,0.32,1.98,0.84,2.73c1.85-0.42,4.1-0.74,6.59-0.9
	c0.22-0.56,0.35-1.18,0.35-1.83C365,89.08,363.26,87.08,361.11,87.08"/>
<path fill="#FFFFFF" d="M376.2,88.1c-2.11,0-3.82,1.71-3.82,3.82c0,0.56,0.13,1.09,0.35,1.57c2.45,0.14,4.65,0.41,6.47,0.78
	c0.51-0.65,0.83-1.46,0.83-2.35C380.02,89.81,378.31,88.1,376.2,88.1z M361.25,88.1c-2.11,0-3.82,1.71-3.82,3.82
	c0,0.89,0.32,1.7,0.83,2.35c1.81-0.36,4.02-0.63,6.47-0.78c0.22-0.48,0.35-1.01,0.35-1.57C365.07,89.81,363.36,88.1,361.25,88.1z"/>
<path fill="#1C479E" d="M372.59,131.11L372.59,131.11c-0.89,0.53-2.29,1.17-3.87,1.17c-0.01,0-0.01,0-0.02,0v1.19
	c0.01,0,0.01,0,0.02,0C370.63,133.47,372.22,131.51,372.59,131.11"/>
<path fill="#1D449C" d="M364.87,131.11L364.87,131.11c0.37,0.4,1.94,2.34,3.84,2.36v-1.19
	C367.13,132.27,365.74,131.64,364.87,131.11"/>
<path d="M368.73,126.28c-2.99,0-5.63-0.95-7.29-1.75h-0.01c0.71,0.6,3.71,3.52,7.31,3.52c3.6,0,6.6-2.92,7.31-3.52h-0.01
	C374.36,125.32,371.71,126.28,368.73,126.28z"/>
<path fill="#1F4BA0" d="M368.7,75.33v1.27l15.52,3.98C384.23,80.57,374.73,75.36,368.7,75.33"/>
<path fill="#1C479E" d="M368.65,75.33c0,0-0.01,0-0.01,0c-5.98,0.01-15.49,5.24-15.49,5.24l15.53-3.98l0.02,0.01v-1.27
	C368.68,75.33,368.67,75.33,368.65,75.33"/>
</svg>
