<?xml version="1.0" encoding="utf-8"?>
<!-- Generator: Adobe Illustrator 17.0.0, SVG Export Plug-In . SVG Version: 6.00 Build 0)  -->
<!DOCTYPE svg PUBLIC "-//W3C//DTD SVG 1.1//EN" "http://www.w3.org/Graphics/SVG/1.1/DTD/svg11.dtd">
<svg version="1.1" id="Layer_1" xmlns="http://www.w3.org/2000/svg" xmlns:xlink="http://www.w3.org/1999/xlink" x="0px" y="0px"
	 width="474.244px" height="290.445px" viewBox="0 0 474.244 290.445" enable-background="new 0 0 474.244 290.445"
	 xml:space="preserve">
<path opacity="0.15" fill="#473A57" d="M174.235,231.085l-0.459-0.665c-0.072-0.103-0.14-0.209-0.214-0.31l-14.331-20.762
	c2.984-1.961,5.611-4.209,7.863-6.759c4.684-5.304,7.029-12.3,7.029-20.983v-0.414c0-4.961-0.827-9.303-2.481-13.024
	c-0.568-1.278-1.214-2.467-1.896-3.615l0.062,0.048l-16.702-27.159c-0.755-1.445-1.59-2.798-2.5-4.065l-0.202-0.328l0.012,0.073
	c-0.408-0.556-0.818-1.109-1.256-1.63l0.009-0.014c-0.55-0.66-1.13-1.3-1.74-1.9c-4.47-4.48-10.15-7.88-17.01-10.19
	c-6.83-2.3-15.5-3.46-25.98-3.47l-0.01,0.016c-0.042,0-0.08-0.002-0.122-0.002H19.353v128.959l-0.004,0.006v22.73h0.004v0.008
	l23.703,22.711h80.335c9.109,0,17.149-0.998,24.12-2.997c6.971-1.996,12.801-4.787,17.495-8.372
	c4.694-3.583,8.215-7.821,10.56-12.714c2.345-4.891,3.521-10.233,3.521-16.022v-0.413c0-7.575-1.624-13.821-4.859-18.745
	L174.235,231.085z M31.759,46.479v25.369h-2.627c-1.262,0-2.285,1.023-2.285,2.285v24.916c0,5.181,4.2,9.38,9.38,9.38h9.75
	c5.181,0,9.38-4.2,9.38-9.38V74.133c0-1.262-1.023-2.285-2.285-2.285h-2.618V46.62c1.757,0.176,3.511,0.381,5.259,0.65l16.002,5.852
	h8.74V23.139H0.333v29.984h8.626l16.116-5.861C27.295,46.921,29.525,46.67,31.759,46.479z M39.619,46.112
	c0.992-0.007,1.983,0.006,2.975,0.028v25.708h-2.975V46.112z M115.663,103.923h-12.645v-0.005h9.713v-3.643h-9.713v-2.34h3.367
	V88.14h5.306V70.111h-3.68v-4.507h-4.993v-1.388h6.14V59.71h-2.774v-3.467h2.774v-1.408h1.666v-2.073h-1.666v-1.026h-2.774v-3.121
	h2.774v-4.507h-6.14v-2.6h9.193V33.36h-9.193v-2.253h6.766v-1.723h3.535v-1.738h2.344v-4.507h-28.51v4.507h2.344v1.738h3.535v1.723
	h6.766v2.253h-9.193v8.148h9.193v2.6h-6.14v4.507h2.758v0.603h0.016v2.517h-2.774v1.026h-1.666v2.073h1.666v1.408h2.774v2.843
	h-0.016v0.603h0.016v0.021h-2.774v4.507h6.14v1.388h-4.993v4.507h-3.68V88.14h5.291v0.603h0.016v9.192h3.367v2.34h-9.713v3.643
	h9.713v0.005H87.153v4.507h28.51V103.923z M132.47,108.43h14.65c3.761,0,6.811-3.049,6.811-6.811V69.081l28.63,35.569
	c1.923,2.39,4.826,3.779,7.893,3.779h13.686c3.761,0,6.811-3.049,6.811-6.811v-71.67c0-3.761-3.049-6.811-6.811-6.811h-14.65
	c-3.761,0-6.811,3.049-6.811,6.811v30.842L155.38,26.914c-1.924-2.387-4.824-3.775-7.89-3.775H132.47
	c-3.761,0-6.811,3.049-6.811,6.811v71.67C125.659,105.38,128.708,108.43,132.47,108.43z M226.006,108.432h17.755
	c2.964,0,5.378-2.413,5.378-5.377V86.57l2.018-2.622v3.879l5.294-6.439l1.568-1.635l0.939,1.568l-1.561,1.606l14.198,23.008
	c0.957,1.55,2.642,2.496,4.462,2.496h26.076c2.174,0,3.495-2.392,2.34-4.233l-26.617-42.323l-1.544,1.589l-1.07-1.665l1.554-1.62
	l26.118-32.556c1.456-1.799,0.166-4.483-2.153-4.483h-24.776c-1.643,0-3.183,0.77-4.181,2.07L251.156,52.41v3.303l-2.018,2.379
	V28.519c0-2.975-2.413-5.378-5.378-5.378h-17.755c-2.975,0-5.378,2.403-5.378,5.378v74.536
	C220.628,106.019,223.031,108.432,226.006,108.432z M419.174,84.025h1.196v0.034h4.889l0.01,0.021
	c1.287,0.017,3.665,0.008,6.656-0.17l-0.006,0.001l0.574,1.009c-0.008,0.001-0.017,0.001-0.025,0.002l2.143,3.838
	c0.02-0.001,0.043-0.003,0.063-0.004l0.57,1.003c-2.516,0.16-4.64,0.205-6.083,0.208l12.18,18.462h32.535l-16.039-23.424
	c-2.043,0.887-4.205,1.612-6.397,2.212l-0.603-0.899c0.003-0.001,0.007-0.002,0.01-0.003l-1.114-1.644l-2.09-3.118
	c2.179-0.572,4.334-1.27,6.377-2.124c5.19-2.517,9.299-5.929,12.305-10.235c3.006-4.306,4.504-9.58,4.504-15.831v-0.25
	c0-4.389-0.645-8.207-1.945-11.452c-1.3-3.245-3.256-6.168-5.846-8.768c-3.016-3.006-6.969-5.388-11.889-7.135
	c-4.909-1.747-11.181-2.621-18.816-2.621h-41.678v85.291h28.52V84.025z M419.174,47.036h1.196V47.02h11.223
	c3.329,0,5.971,0.676,7.926,2.018c1.945,1.342,2.923,3.391,2.923,6.147v0.25c0,2.6-0.978,4.629-2.923,6.085
	c-1.955,1.467-4.629,2.195-8.04,2.195h-12.305V47.036z M466.15,115.931l0.009-0.014h-55l-0.009,0.014h-76.907l-15.471,34.175v39.696
	h41.3v100.643h46.913l22.614-22.81v-77.833h18.686l25.959-30.96v-42.911H466.15z M343.783,43.565c0,1.383,1.121,2.505,2.505,2.505
	h31.091c1.383,0,2.505-1.121,2.505-2.505v-1.695h2.207v-4.854h-2.207v-4.821h2.207V27.34h-2.207v-2.169
	c0-1.383-1.122-2.505-2.505-2.505h-31.091c-0.435,0-0.838,0.121-1.194,0.316h-2.759v7.281h1.449v2.621h-1.449v7.281h1.449V43.565z
	 M346.288,107.958h31.666c1.383,0,2.505-1.121,2.505-2.505v-1.175h1.633v-4.854h-1.633v-4.821h1.633v-4.854h-1.633V87.07
	c0-1.383-1.121-2.505-2.505-2.505h-31.666c-1.383,0-2.505,1.121-2.505,2.505v3.408h-1.449v7.281h1.449v2.532h-1.449v7.281h2.629
	C345.349,107.812,345.8,107.958,346.288,107.958z M346.288,75.308h28.239c1.383,0,2.505-1.121,2.505-2.505v-0.226h1.939v-4.854
	h-1.939v-4.821h1.939v-4.854h-1.939v-0.83c0-1.383-1.121-2.505-2.505-2.505h-28.239c-1.054,0-1.953,0.653-2.322,1.575h-1.631v7.281
	h1.449v2.94h-1.449v7.281h1.652C344.37,74.682,345.255,75.308,346.288,75.308z M315.261,103.26l0.781-0.787
	c2.918,3.128,7.061,5.099,11.666,5.099h14.626v-7.281h-14.626c-2.607,0-4.943-1.159-6.538-2.983l1.871-1.885
	c2.015,1.463,4.484,2.336,7.158,2.336h12.134v-7.281H330.2c-0.665,0-1.298-0.136-1.877-0.375l7.807-7.864
	c0.968-0.976,1.512-2.294,1.512-3.669v-4.779h4.693V66.51h-4.693v-2.941h4.693v-7.281h-4.693v-4.224
	c0-1.374-0.543-2.693-1.511-3.668l-7.993-8.055c0.354-0.104,0.722-0.177,1.109-0.177h13.088v-7.281h-13.088
	c-2.408,0-4.636,0.765-6.469,2.056l-2.144-2.16c1.273-1.522,3.185-2.492,5.32-2.492h16.381v-7.281h-16.381
	c-4.132,0-7.847,1.783-10.447,4.607l-0.245-0.247c-2.231-1.864-5.624-0.278-5.624,2.629v70.634
	C309.638,103.537,313.03,105.124,315.261,103.26z M316.805,190.85h-1.1l-0.185-12.376c0.238-0.438,0.295-0.97,0.099-1.471
	l-3.808-9.745c-0.352-0.902-1.369-1.347-2.271-0.995l-6.295,2.46c-0.37-0.715-0.762-1.416-1.158-2.115v-13.704h-0.002
	c0.017-0.469-0.149-0.944-0.508-1.302l-7.247-7.247l0.002-0.003l-0.157-0.157c-0.682-0.682-1.793-0.682-2.475,0l-4.583,4.583
	c-1.603-1.313-3.272-2.542-4.998-3.697v-8.202c0-0.002,0-0.005,0-0.007c0.009-0.682-0.383-1.338-1.046-1.634l-9.586-4.198
	c-0.892-0.385-1.924,0.017-2.309,0.91l-2.458,5.607c-3.787-1.242-7.731-2.143-11.789-2.659v-5.924c0-0.968-0.785-1.753-1.753-1.753
	h-10.462c-0.968,0-1.753,0.785-1.753,1.753v5.721c-3.263,0.303-6.455,0.85-9.556,1.628l-2.02-5.167
	c-0.352-0.902-1.369-1.347-2.271-0.995l-9.745,3.808c-0.699,0.273-1.118,0.945-1.11,1.654l-0.006-0.007v6.71
	c-2.948,1.631-5.759,3.478-8.397,5.542l-3.664-3.664c-0.685-0.685-1.795-0.685-2.48,0l-7.398,7.398
	c-0.561,0.561-0.654,1.404-0.297,2.068l-0.215-0.298v9.796c-0.56,0.859-1.108,1.728-1.628,2.615l-4.503-1.972
	c-0.887-0.388-1.921,0.016-2.31,0.903l-4.198,9.583c-0.146,0.334-0.18,0.689-0.118,1.022l-0.03-0.012l0.005,14.966l0.001-0.001
	c-0.008,0.198,0.022,0.393,0.079,0.579h-2.017c-0.968,0-1.753,0.785-1.753,1.753v25.802c0,0.968,0.785,1.753,1.753,1.753h1.067
	v13.155l0,0c-0.007,0.23,0.03,0.465,0.119,0.692l3.808,9.745c0.353,0.902,1.37,1.347,2.271,0.995l4.551-1.779
	c0.893,1.675,1.868,3.299,2.901,4.881v9.841l0.089-0.054c-0.19,0.603-0.054,1.287,0.423,1.764l7.4,7.399
	c0.682,0.682,1.793,0.682,2.475,0l3.656-3.647l0.01-0.01c1.89,1.479,3.865,2.852,5.917,4.113l0,6.867
	c-0.011,0.686,0.382,1.344,1.049,1.636l9.584,4.198c0.887,0.389,1.921-0.016,2.31-0.903l2.212-5.05
	c3.871,1.142,7.892,1.928,12.032,2.312v5.721c0,0.968,0.785,1.754,1.753,1.754h10.463c0.968,0,1.753-0.785,1.753-1.754v-5.959
	c3.199-0.404,6.322-1.045,9.354-1.908l2.222,5.686c0.352,0.902,1.369,1.347,2.271,0.995l9.745-3.808
	c0.68-0.266,1.1-0.91,1.114-1.597l0.001,0.003v-7.944c2.621-1.583,5.12-3.347,7.476-5.28l4.584,4.584
	c0.685,0.685,1.795,0.685,2.48,0l7.398-7.398c0.484-0.484,0.618-1.178,0.419-1.786l0.095,0.068v-13.174l6.129,2.684
	c0.887,0.389,1.921-0.016,2.31-0.903l4.198-9.584c0.119-0.271,0.155-0.555,0.135-0.831l0.013,0.004v-15.109l-0.011,0.017
	c0.015-0.217-0.01-0.43-0.073-0.634h2.017c0.968,0,1.753-0.785,1.753-1.753v-25.802C318.559,191.635,317.774,190.85,316.805,190.85z
	 M194.315,154.082L194.315,154.082L194.315,154.082L194.315,154.082L194.315,154.082z"/>
<polygon fill="#75C69A" points="252.21,31.412 247.963,36.419 247.529,65.562 252.21,59.479 "/>
<polygon fill="#75C69A" points="256.895,55.768 259.751,60.535 277.711,43.492 273.706,37.262 "/>
<rect x="342.001" y="0.316" fill="#75C69A" width="4.514" height="7.281"/>
<rect x="342.001" y="10.218" fill="#75C69A" width="4.514" height="7.281"/>
<rect x="342.001" y="33.622" fill="#75C69A" width="4.514" height="7.281"/>
<rect x="342.001" y="43.843" fill="#75C69A" width="4.514" height="7.281"/>
<rect x="342.001" y="67.811" fill="#75C69A" width="4.514" height="7.281"/>
<rect x="342.001" y="77.624" fill="#75C69A" width="4.514" height="7.281"/>
<path fill="#75C69A" d="M431.585,61.245l3.369,5.925c0,0,13.148,2.639,13.278,2.683c0.13,0.043,3.467-4.304,3.467-4.304l-0.59-0.993
	l-4.178-6.231L431.585,61.245z"/>
<path fill="#473A57" d="M215.92,112.95v9.531c0,0,4.267-3.982,4.071-4.178C219.795,118.107,215.92,112.95,215.92,112.95z"/>
<polygon fill="#473A57" points="281.784,114.2 281.784,126.332 277.502,120.587 "/>
<polygon fill="#473A57" points="301.752,130.238 301.752,146.436 294.54,136.059 301.525,130.238 "/>
<polyline fill="#473A57" points="193.47,130.706 193.47,141.934 199.232,134.492 193.981,131.416 "/>
<polygon fill="#473A57" points="315.186,155.807 315.406,170.483 306.16,159.081 "/>
<polygon fill="#473A57" points="150.07,110.382 169.475,141.934 153.167,129.259 "/>
<polygon fill="#473A57" points="158.036,185.431 173.902,208.418 160.861,202.656 "/>
<path fill="#473A57" d="M26.513,51.466v24.916c0,5.181,4.2,9.38,9.38,9.38h9.75c5.181,0,9.38-4.2,9.38-9.38V51.466
	c0-1.262-1.023-2.285-2.285-2.285h-23.94C27.536,49.181,26.513,50.204,26.513,51.466z M40.056,80.157
	c-4.462,0-8.082-3.63-8.082-8.092c0-4.473,3.62-8.092,8.082-8.092c4.473,0,8.092,3.62,8.092,8.092
	C48.148,76.527,44.528,80.157,40.056,80.157z M0,0.472v29.984h8.626l16.116-5.861c10.153-1.554,20.484-1.552,30.637,0.008
	l16.002,5.853h8.74V0.472H0z"/>
<path fill="#75C69A" d="M99.465,0.472v85.291h1.61V0.472H99.465z"/>
<path fill="#FFFFFF" d="M101.075,0.472v85.291h1.61V0.472H101.075z"/>
<path fill="#473A57" d="M86.82,0.472v4.507h28.51V0.472H86.82z"/>
<path fill="#473A57" d="M86.82,81.256v4.507h28.51v-4.507H86.82z"/>
<path fill="#473A57" d="M92.698,6.717v1.723h16.753V6.717H92.698z"/>
<path fill="#473A57" d="M90.271,10.693v8.148h21.607v-8.148H90.271z"/>
<path fill="#473A57" d="M89.164,4.979v1.738h23.823V4.979H89.164z"/>
<path fill="#473A57" d="M93.324,21.441v4.507h15.501v-4.507H93.324z"/>
<path fill="#473A57" d="M91.658,30.095v2.073h18.833v-2.073H91.658z"/>
<path fill="#473A57" d="M93.324,29.069v4.507h15.501v-4.507H93.324z"/>
<path fill="#473A57" d="M96.098,25.948v11.095h9.954V25.948H96.098z"/>
<path fill="#473A57" d="M93.324,37.043v4.507h15.501v-4.507H93.324z"/>
<path fill="#473A57" d="M94.472,42.938v4.507h13.207v-4.507H94.472z"/>
<path fill="#473A57" d="M96.098,63.22v12.048h9.954V63.22H96.098z"/>
<path fill="#473A57" d="M89.751,77.608v3.643h22.647v-3.643H89.751z"/>
<path fill="#473A57" d="M90.792,47.444v18.029h20.567V47.444H90.792z"/>
<path fill="#473A57" d="M182.346,7.283v30.842L155.047,4.247c-1.924-2.387-4.824-3.775-7.89-3.775h-15.021
	c-3.761,0-6.811,3.049-6.811,6.811v71.67c0,3.761,3.049,6.811,6.811,6.811h14.65c3.761,0,6.811-3.049,6.811-6.811V46.415
	l28.63,35.569c1.923,2.39,4.826,3.779,7.893,3.779h13.686c3.761,0,6.811-3.049,6.811-6.811V7.283c0-3.761-3.049-6.811-6.811-6.811
	h-14.65C185.395,0.472,182.346,3.521,182.346,7.283z"/>
<path fill="#473A57" d="M182.346,7.283v30.842L155.047,4.247c-1.924-2.387-4.824-3.775-7.89-3.775h-15.021
	c-3.761,0-6.811,3.049-6.811,6.811v71.67c0,3.761,3.049,6.811,6.811,6.811h14.65c3.761,0,6.811-3.049,6.811-6.811V46.415
	l28.63,35.569c1.923,2.39,4.826,3.779,7.893,3.779h13.686c3.761,0,6.811-3.049,6.811-6.811V7.283c0-3.761-3.049-6.811-6.811-6.811
	h-14.65C185.395,0.472,182.346,3.521,182.346,7.283z"/>
<path fill="#75C69A" d="M191.106,75.362c-0.545,0-1.054-0.244-1.397-0.669l-46.514-57.789v58.16c0,0.165-0.134,0.299-0.299,0.299
	h-6.871c-0.165,0-0.299-0.134-0.299-0.299V11.172c0-0.165,0.134-0.299,0.299-0.299h10.144c0.545,0,1.054,0.243,1.395,0.666
	l45.182,56.071V11.172c0-0.165,0.134-0.299,0.299-0.299h6.872c0.165,0,0.299,0.134,0.299,0.299v63.891
	c0,0.165-0.134,0.299-0.299,0.299H191.106z"/>
<path fill="#473A57" d="M150.882,10.02h-18.556c0.083-0.26,0.208-0.51,0.364-0.749h17.568c0.052,0.052,0.104,0.104,0.146,0.156
	L150.882,10.02z"/>
<path fill="#473A57" d="M203.617,10.02h-14.271c0.083-0.26,0.208-0.51,0.364-0.749h13.543C203.408,9.511,203.533,9.76,203.617,10.02
	z"/>
<polygon fill="#473A57" points="153.576,13.359 132.087,13.359 132.087,12.621 152.972,12.621 "/>
<rect x="189.107" y="12.621" fill="#473A57" width="14.749" height="0.739"/>
<polygon fill="#473A57" points="156.27,16.708 132.087,16.708 132.087,15.96 155.666,15.96 "/>
<rect x="189.107" y="15.96" fill="#473A57" width="14.749" height="0.749"/>
<polygon fill="#473A57" points="158.964,20.058 132.087,20.058 132.087,19.309 158.36,19.309 "/>
<rect x="189.107" y="19.309" fill="#473A57" width="14.749" height="0.749"/>
<polygon fill="#473A57" points="161.668,23.407 132.087,23.407 132.087,22.658 161.065,22.658 "/>
<rect x="189.107" y="22.658" fill="#473A57" width="14.749" height="0.749"/>
<rect x="132.087" y="29.356" fill="#473A57" width="14.749" height="0.738"/>
<rect x="132.087" y="32.695" fill="#473A57" width="14.749" height="0.749"/>
<rect x="132.087" y="36.045" fill="#473A57" width="14.749" height="0.749"/>
<rect x="132.087" y="39.394" fill="#473A57" width="14.749" height="0.749"/>
<rect x="132.087" y="42.743" fill="#473A57" width="14.749" height="0.749"/>
<rect x="132.087" y="46.092" fill="#473A57" width="14.749" height="0.749"/>
<rect x="132.087" y="49.441" fill="#473A57" width="14.749" height="0.738"/>
<rect x="132.087" y="52.78" fill="#473A57" width="14.749" height="0.749"/>
<rect x="132.087" y="56.129" fill="#473A57" width="14.749" height="0.749"/>
<rect x="132.087" y="59.479" fill="#473A57" width="14.749" height="0.749"/>
<rect x="132.087" y="62.828" fill="#473A57" width="14.749" height="0.749"/>
<rect x="132.087" y="66.177" fill="#473A57" width="14.749" height="0.749"/>
<rect x="132.087" y="69.526" fill="#473A57" width="14.749" height="0.738"/>
<path fill="#473A57" d="M146.711,76.214c-0.062,0.26-0.156,0.51-0.281,0.749h-13.938c-0.125-0.239-0.218-0.489-0.281-0.749H146.711z
	"/>
<rect x="132.087" y="72.865" fill="#473A57" width="14.749" height="0.749"/>
<polygon fill="#473A57" points="164.362,26.756 132.087,26.756 132.087,26.007 163.759,26.007 "/>
<rect x="189.107" y="26.007" fill="#473A57" width="14.749" height="0.749"/>
<polygon fill="#473A57" points="167.056,30.095 148.999,30.095 148.406,29.356 166.463,29.356 "/>
<rect x="189.107" y="29.356" fill="#473A57" width="14.749" height="0.738"/>
<polygon fill="#473A57" points="169.76,33.444 151.703,33.444 151.1,32.695 169.146,32.695 "/>
<rect x="189.107" y="32.695" fill="#473A57" width="14.749" height="0.749"/>
<polygon fill="#473A57" points="172.454,36.793 154.397,36.793 153.794,36.045 171.851,36.045 "/>
<rect x="189.107" y="36.045" fill="#473A57" width="14.749" height="0.749"/>
<polygon fill="#473A57" points="175.148,40.143 157.091,40.143 156.488,39.394 174.545,39.394 "/>
<rect x="189.107" y="39.394" fill="#473A57" width="14.749" height="0.749"/>
<polygon fill="#473A57" points="177.852,43.492 159.785,43.492 159.182,42.743 177.249,42.743 "/>
<rect x="189.107" y="42.743" fill="#473A57" width="14.749" height="0.749"/>
<polygon fill="#473A57" points="180.546,46.841 162.479,46.841 161.876,46.092 179.943,46.092 "/>
<rect x="189.107" y="46.092" fill="#473A57" width="14.749" height="0.749"/>
<polygon fill="#473A57" points="183.24,50.18 165.163,50.18 164.57,49.441 182.647,49.441 "/>
<rect x="189.107" y="49.441" fill="#473A57" width="14.749" height="0.738"/>
<polygon fill="#473A57" points="185.934,53.529 167.857,53.529 167.264,52.78 185.331,52.78 "/>
<rect x="189.107" y="52.78" fill="#473A57" width="14.749" height="0.749"/>
<polygon fill="#473A57" points="188.639,56.878 170.561,56.878 169.958,56.13 188.035,56.13 "/>
<rect x="189.107" y="56.129" fill="#473A57" width="14.749" height="0.749"/>
<polygon fill="#473A57" points="203.856,59.479 203.856,60.228 173.255,60.228 172.652,59.479 "/>
<polygon fill="#473A57" points="203.856,62.828 203.856,63.577 175.949,63.577 175.346,62.828 "/>
<polygon fill="#473A57" points="203.856,66.177 203.856,66.926 178.643,66.926 178.04,66.177 "/>
<polygon fill="#473A57" points="203.856,69.526 203.856,70.265 181.326,70.265 180.734,69.526 "/>
<path fill="#473A57" d="M203.731,76.214c-0.062,0.26-0.156,0.51-0.281,0.749h-16.725l-0.603-0.749H203.731z"/>
<polygon fill="#473A57" points="203.856,72.865 203.856,73.614 184.02,73.614 183.417,72.865 "/>
<path fill="#473A57" d="M300.427,0.474h-24.776c-1.643,0-3.183,0.77-4.181,2.07l-20.647,27.199V65.16l5.294-6.439l20.345-21.208
	L302.58,4.957C304.036,3.158,302.747,0.474,300.427,0.474z M243.428,0.474h-17.755c-2.975,0-5.377,2.403-5.377,5.378v74.536
	c0,2.964,2.403,5.377,5.377,5.377h17.755c2.964,0,5.377-2.413,5.377-5.377V5.852C248.805,2.877,246.392,0.474,243.428,0.474z
	 M304.14,81.532l-26.617-42.323l-20.459,21.052l14.198,23.008c0.957,1.55,2.642,2.496,4.462,2.496H301.8
	C303.974,85.765,305.295,83.373,304.14,81.532z"/>
<path fill="#473A57" d="M447.913,59.812c-5.565,1.487-11.296,2.153-15.779,2.444l2.143,3.838c4.504-0.25,10.464-0.895,16.236-2.444
	L447.913,59.812z M457.503,62.339c-10.297,4.473-23.601,4.951-28.676,4.961l12.18,18.462h32.535L457.503,62.339z M468.549,18.997
	c-1.3-3.245-3.256-6.168-5.846-8.768c-3.016-3.006-6.969-5.388-11.889-7.135c-4.909-1.747-11.181-2.621-18.816-2.621h-11.962v23.881
	h11.223c3.329,0,5.97,0.676,7.926,2.018c1.945,1.342,2.923,3.391,2.923,6.147v0.25c0,2.6-0.978,4.629-2.923,6.085
	c-1.955,1.467-4.629,2.195-8.04,2.195h-11.109v20.345h4.889l0.01,0.021c3.921,0.052,17.921-0.125,28.749-4.649
	c5.19-2.517,9.299-5.929,12.305-10.235c3.006-4.306,4.504-9.58,4.504-15.831v-0.25C470.494,26.059,469.849,22.242,468.549,18.997z
	 M390.321,85.763h28.52V0.472h-28.52V85.763z"/>
<path fill="#473A57" d="M359.739,167.136h-41.3V127.44l15.471-34.175l114.042,34.175l25.959,8.736l-25.959,30.96h-41.3
	l22.614,77.833l-22.614,22.81h-46.913V167.136z"/>
<path fill="#473A57" d="M42.723,122.967h81.038c10.059,0,18.364,1.105,24.911,3.308c6.544,2.206,11.955,5.446,16.229,9.716
	c2.617,2.62,4.755,5.789,6.408,9.51c1.654,3.721,2.481,8.063,2.481,13.024v0.414c0,8.682-2.345,15.679-7.029,20.983
	c-4.687,5.307-10.956,9.339-18.813,12.094c9.432,2.758,16.927,6.822,22.476,12.197c5.55,5.375,8.328,13.025,8.328,22.947v0.413
	c0,5.789-1.176,11.132-3.521,16.022c-2.345,4.893-5.866,9.131-10.56,12.714c-4.694,3.585-10.524,6.376-17.495,8.372
	c-6.97,1.999-15.011,2.997-24.12,2.997H42.723L19.02,244.968L42.723,122.967z M110.944,179.818c10.197,0,15.298-3.308,15.298-9.923
	v-0.413c0-6.615-5.168-9.923-15.504-9.923h-20.88v20.259H110.944z M114.045,231.087c5.236,0,9.199-0.962,11.887-2.894
	c2.687-1.928,4.031-4.477,4.031-7.649v-0.413c0-3.169-1.311-5.717-3.928-7.649c-2.619-1.928-7.101-0.661-12.337-0.661H89.303
	l0.554,19.266H114.045z"/>
<path fill="#FFFFFF" d="M19.02,93.265h84.953c10.544,0,19.251,1.158,26.115,3.468c6.86,2.313,12.533,5.709,17.013,10.185
	c2.743,2.747,4.984,6.068,6.718,9.969c1.734,3.901,2.601,8.452,2.601,13.653v0.434c0,9.102-2.458,16.436-7.368,21.997
	c-4.913,5.563-11.486,9.79-19.722,12.679c9.888,2.892,17.744,7.151,23.562,12.786c5.818,5.634,8.73,13.654,8.73,24.056v0.433
	c0,6.069-1.233,11.669-3.691,16.796c-2.458,5.13-6.149,9.572-11.07,13.329c-4.92,3.758-11.033,6.684-18.34,8.777
	c-7.307,2.096-15.736,3.142-25.285,3.142H19.02V93.265z M90.537,152.863c10.69,0,16.037-3.467,16.037-10.403v-0.433
	c0-6.935-5.418-10.402-16.253-10.402H68.432v21.238H90.537z M93.788,206.609c5.489,0,9.644-1.008,12.461-3.034
	c2.817-2.022,4.226-4.693,4.226-8.018v-0.433c0-3.322-1.375-5.994-4.117-8.018c-2.746-2.022-6.864-3.035-12.352-3.035H68.432v22.539
	H93.788z"/>
<path fill="none" stroke="#E7E7E7" stroke-miterlimit="10" d="M25.02,238.968V99.264h78.954c9.836,0,17.979,1.062,24.201,3.155
	c5.944,2.004,10.886,4.945,14.685,8.742c2.209,2.212,4.053,4.96,5.477,8.162c1.382,3.111,2.083,6.886,2.083,11.217v0.434
	c0,7.659-1.918,13.556-5.866,18.025c-4.205,4.761-9.995,8.458-17.209,10.987l-17.623,6.18l17.924,5.241
	c8.903,2.604,15.993,6.418,21.071,11.337c4.646,4.5,6.905,10.959,6.905,19.746v0.434c0,5.132-1.043,9.91-3.102,14.201
	c-2.032,4.242-5.161,7.994-9.301,11.155c-4.302,3.285-9.803,5.901-16.351,7.776c-6.735,1.932-14.686,2.911-23.633,2.911H25.02z
	 M62.432,212.609h31.356c6.846,0,12.067-1.361,15.963-4.162c4.397-3.155,6.723-7.614,6.723-12.891v-0.434
	c0-5.238-2.266-9.68-6.554-12.845c-3.848-2.833-9.052-4.208-15.916-4.208H62.432V212.609z M62.432,158.863h28.105
	c6.625,0,22.036-1.599,22.036-16.403v-0.433c0-14.804-15.562-16.402-22.253-16.402H62.432V158.863z"/>
<path fill="#FFFFFF" d="M378.554,136.175H333.91V93.265H473.91v42.911h-44.644v108.793h-50.712V136.175z"/>
<rect x="31.425" y="21.441" fill="#473A57" width="7.86" height="27.74"/>
<rect x="42.26" y="21.441" fill="#473A57" width="7.86" height="27.74"/>
<rect x="132.087" y="36.045" fill="#473A57" width="14.749" height="0.749"/>
<rect x="132.087" y="36.045" fill="#473A57" width="14.749" height="0.749"/>
<rect x="132.087" y="46.092" fill="#473A57" width="14.749" height="0.749"/>
<rect x="132.087" y="46.092" fill="#473A57" width="14.749" height="0.749"/>
<rect x="132.087" y="66.177" fill="#473A57" width="14.749" height="0.749"/>
<rect x="132.087" y="66.177" fill="#473A57" width="14.749" height="0.749"/>
<rect x="132.087" y="69.526" fill="#473A57" width="14.749" height="0.738"/>
<rect x="132.087" y="69.526" fill="#473A57" width="14.749" height="0.738"/>
<polygon fill="#473A57" points="169.76,33.444 151.703,33.444 151.1,32.695 169.146,32.695 "/>
<polygon fill="#473A57" points="169.76,33.444 151.703,33.444 151.1,32.695 169.146,32.695 "/>
<rect x="132.087" y="32.695" fill="#473A57" width="14.749" height="0.749"/>
<rect x="132.087" y="32.695" fill="#473A57" width="14.749" height="0.749"/>
<rect x="132.087" y="42.743" fill="#473A57" width="14.749" height="0.749"/>
<rect x="132.087" y="42.743" fill="#473A57" width="14.749" height="0.749"/>
<rect x="132.087" y="49.441" fill="#473A57" width="14.749" height="0.738"/>
<rect x="132.087" y="49.441" fill="#473A57" width="14.749" height="0.738"/>
<polygon fill="#473A57" points="172.454,36.793 154.397,36.793 153.794,36.045 171.851,36.045 "/>
<polygon fill="#473A57" points="172.454,36.793 154.397,36.793 153.794,36.045 171.851,36.045 "/>
<rect x="132.087" y="59.479" fill="#473A57" width="14.749" height="0.749"/>
<rect x="132.087" y="59.479" fill="#473A57" width="14.749" height="0.749"/>
<rect x="132.087" y="52.78" fill="#473A57" width="14.749" height="0.749"/>
<rect x="132.087" y="52.78" fill="#473A57" width="14.749" height="0.749"/>
<rect x="132.087" y="56.129" fill="#473A57" width="14.749" height="0.749"/>
<rect x="132.087" y="56.129" fill="#473A57" width="14.749" height="0.749"/>
<rect x="132.087" y="39.394" fill="#473A57" width="14.749" height="0.749"/>
<rect x="132.087" y="39.394" fill="#473A57" width="14.749" height="0.749"/>
<polygon fill="#473A57" points="161.668,23.407 132.087,23.407 132.087,22.658 161.065,22.658 "/>
<polygon fill="#473A57" points="161.668,23.407 132.087,23.407 132.087,22.658 161.065,22.658 "/>
<polygon fill="#473A57" points="153.576,13.359 132.087,13.359 132.087,12.621 152.972,12.621 "/>
<polygon fill="#473A57" points="153.576,13.359 132.087,13.359 132.087,12.621 152.972,12.621 "/>
<polygon fill="#473A57" points="158.964,20.058 132.087,20.058 132.087,19.309 158.36,19.309 "/>
<polygon fill="#473A57" points="158.964,20.058 132.087,20.058 132.087,19.309 158.36,19.309 "/>
<polygon fill="#473A57" points="156.27,16.708 132.087,16.708 132.087,15.96 155.666,15.96 "/>
<polygon fill="#473A57" points="156.27,16.708 132.087,16.708 132.087,15.96 155.666,15.96 "/>
<path fill="#473A57" d="M203.731,76.214c-0.062,0.26-0.156,0.51-0.281,0.749h-16.725l-0.603-0.749H203.731z"/>
<path fill="#473A57" d="M203.731,76.214c-0.062,0.26-0.156,0.51-0.281,0.749h-16.725l-0.603-0.749H203.731z"/>
<path fill="#473A57" d="M150.882,10.02h-18.556c0.083-0.26,0.208-0.51,0.364-0.749h17.568c0.052,0.052,0.104,0.104,0.146,0.156
	L150.882,10.02z"/>
<path fill="#473A57" d="M150.882,10.02h-18.556c0.083-0.26,0.208-0.51,0.364-0.749h17.568c0.052,0.052,0.104,0.104,0.146,0.156
	L150.882,10.02z"/>
<polygon fill="#473A57" points="180.546,46.841 162.479,46.841 161.876,46.092 179.943,46.092 "/>
<polygon fill="#473A57" points="180.546,46.841 162.479,46.841 161.876,46.092 179.943,46.092 "/>
<polygon fill="#473A57" points="164.362,26.756 132.087,26.756 132.087,26.007 163.759,26.007 "/>
<polygon fill="#473A57" points="164.362,26.756 132.087,26.756 132.087,26.007 163.759,26.007 "/>
<polygon fill="#473A57" points="183.24,50.18 165.163,50.18 164.57,49.441 182.647,49.441 "/>
<polygon fill="#473A57" points="183.24,50.18 165.163,50.18 164.57,49.441 182.647,49.441 "/>
<polygon fill="#473A57" points="177.852,43.492 159.785,43.492 159.182,42.743 177.249,42.743 "/>
<polygon fill="#473A57" points="177.852,43.492 159.785,43.492 159.182,42.743 177.249,42.743 "/>
<polygon fill="#473A57" points="175.148,40.143 157.091,40.143 156.488,39.394 174.545,39.394 "/>
<polygon fill="#473A57" points="175.148,40.143 157.091,40.143 156.488,39.394 174.545,39.394 "/>
<rect x="132.087" y="29.356" fill="#473A57" width="14.749" height="0.738"/>
<polygon fill="#473A57" points="167.056,30.095 148.999,30.095 148.406,29.356 166.463,29.356 "/>
<rect x="132.087" y="29.356" fill="#473A57" width="14.749" height="0.738"/>
<polygon fill="#473A57" points="167.056,30.095 148.999,30.095 148.406,29.356 166.463,29.356 "/>
<rect x="132.087" y="62.828" fill="#473A57" width="14.749" height="0.749"/>
<rect x="132.087" y="62.828" fill="#473A57" width="14.749" height="0.749"/>
<rect x="132.087" y="72.865" fill="#473A57" width="14.749" height="0.749"/>
<rect x="132.087" y="72.865" fill="#473A57" width="14.749" height="0.749"/>
<rect x="189.107" y="26.007" fill="#473A57" width="14.749" height="0.749"/>
<rect x="189.107" y="26.007" fill="#473A57" width="14.749" height="0.749"/>
<rect x="189.107" y="19.309" fill="#473A57" width="14.749" height="0.749"/>
<rect x="189.107" y="19.309" fill="#473A57" width="14.749" height="0.749"/>
<rect x="189.107" y="22.658" fill="#473A57" width="14.749" height="0.749"/>
<rect x="189.107" y="22.658" fill="#473A57" width="14.749" height="0.749"/>
<rect x="189.107" y="29.356" fill="#473A57" width="14.749" height="0.738"/>
<rect x="189.107" y="29.356" fill="#473A57" width="14.749" height="0.738"/>
<rect x="189.107" y="32.695" fill="#473A57" width="14.749" height="0.749"/>
<rect x="189.107" y="32.695" fill="#473A57" width="14.749" height="0.749"/>
<rect x="189.107" y="12.621" fill="#473A57" width="14.749" height="0.739"/>
<rect x="189.107" y="12.621" fill="#473A57" width="14.749" height="0.739"/>
<rect x="189.107" y="36.045" fill="#473A57" width="14.749" height="0.749"/>
<rect x="189.107" y="36.045" fill="#473A57" width="14.749" height="0.749"/>
<path fill="#473A57" d="M203.617,10.02h-14.271c0.083-0.26,0.208-0.51,0.364-0.749h13.543C203.408,9.511,203.533,9.76,203.617,10.02
	z"/>
<path fill="#473A57" d="M203.617,10.02h-14.271c0.083-0.26,0.208-0.51,0.364-0.749h13.543C203.408,9.511,203.533,9.76,203.617,10.02
	z"/>
<rect x="189.107" y="15.96" fill="#473A57" width="14.749" height="0.749"/>
<rect x="189.107" y="15.96" fill="#473A57" width="14.749" height="0.749"/>
<polygon fill="#473A57" points="203.856,69.526 203.856,70.265 181.326,70.265 180.734,69.526 "/>
<polygon fill="#473A57" points="203.856,69.526 203.856,70.265 181.326,70.265 180.734,69.526 "/>
<polygon fill="#473A57" points="203.856,66.177 203.856,66.926 178.643,66.926 178.04,66.177 "/>
<polygon fill="#473A57" points="203.856,66.177 203.856,66.926 178.643,66.926 178.04,66.177 "/>
<polygon fill="#473A57" points="203.856,59.479 203.856,60.228 173.255,60.228 172.652,59.479 "/>
<polygon fill="#473A57" points="203.856,59.479 203.856,60.228 173.255,60.228 172.652,59.479 "/>
<polygon fill="#473A57" points="203.856,62.828 203.856,63.577 175.949,63.577 175.346,62.828 "/>
<polygon fill="#473A57" points="203.856,62.828 203.856,63.577 175.949,63.577 175.346,62.828 "/>
<polygon fill="#473A57" points="203.856,72.865 203.856,73.614 184.02,73.614 183.417,72.865 "/>
<polygon fill="#473A57" points="203.856,72.865 203.856,73.614 184.02,73.614 183.417,72.865 "/>
<path fill="#473A57" d="M146.711,76.214c-0.062,0.26-0.156,0.51-0.281,0.749h-13.938c-0.125-0.239-0.218-0.489-0.281-0.749H146.711z
	"/>
<path fill="#473A57" d="M146.711,76.214c-0.062,0.26-0.156,0.51-0.281,0.749h-13.938c-0.125-0.239-0.218-0.489-0.281-0.749H146.711z
	"/>
<rect x="189.107" y="39.394" fill="#473A57" width="14.749" height="0.749"/>
<rect x="189.107" y="39.394" fill="#473A57" width="14.749" height="0.749"/>
<rect x="189.107" y="42.743" fill="#473A57" width="14.749" height="0.749"/>
<rect x="189.107" y="42.743" fill="#473A57" width="14.749" height="0.749"/>
<rect x="189.107" y="46.092" fill="#473A57" width="14.749" height="0.749"/>
<rect x="189.107" y="46.092" fill="#473A57" width="14.749" height="0.749"/>
<polygon fill="#473A57" points="185.934,53.529 167.857,53.529 167.264,52.78 185.331,52.78 "/>
<rect x="189.107" y="52.78" fill="#473A57" width="14.749" height="0.749"/>
<path fill="#473A57" d="M189.107,52.78v0.749h14.749V52.78H189.107z M185.331,52.78h-18.067l0.593,0.749h18.078L185.331,52.78z"/>
<rect x="189.107" y="49.441" fill="#473A57" width="14.749" height="0.738"/>
<rect x="189.107" y="49.441" fill="#473A57" width="14.749" height="0.738"/>
<polygon fill="#473A57" points="188.639,56.878 170.561,56.878 169.958,56.13 188.035,56.13 "/>
<rect x="189.107" y="56.129" fill="#473A57" width="14.749" height="0.749"/>
<polygon fill="#473A57" points="188.639,56.878 170.561,56.878 169.958,56.13 188.035,56.13 "/>
<rect x="189.107" y="56.129" fill="#473A57" width="14.749" height="0.749"/>
<rect x="378.638" y="4.674" fill="#75C69A" width="3.12" height="4.854"/>
<rect x="378.638" y="14.349" fill="#75C69A" width="3.12" height="4.854"/>
<rect x="378.638" y="67.082" fill="#75C69A" width="3.12" height="4.854"/>
<rect x="378.638" y="76.757" fill="#75C69A" width="3.12" height="4.854"/>
<path fill="#473A57" d="M379.551,2.505v18.393c0,1.383-1.121,2.505-2.505,2.505h-31.091c-1.383,0-2.505-1.121-2.505-2.505V2.505
	c0-1.383,1.121-2.505,2.505-2.505h31.091C378.43,0,379.551,1.121,379.551,2.505z"/>
<rect x="375.517" y="35.381" fill="#75C69A" width="3.12" height="4.854"/>
<rect x="375.517" y="45.056" fill="#75C69A" width="3.12" height="4.854"/>
<path fill="#473A57" d="M380.125,64.403v18.383c0,1.383-1.121,2.505-2.505,2.505h-31.666c-1.383,0-2.505-1.121-2.505-2.505V64.403
	c0-1.383,1.121-2.505,2.505-2.505h31.666C379.004,61.898,380.125,63.02,380.125,64.403z"/>
<path fill="#473A57" d="M376.699,34.551v15.585c0,1.383-1.121,2.505-2.505,2.505h-28.239c-1.383,0-2.505-1.121-2.505-2.505V34.551
	c0-1.383,1.121-2.505,2.505-2.505h28.239C375.577,32.047,376.699,33.168,376.699,34.551z"/>
<path fill="#473A57" d="M337.308,55.903c0,1.375-0.543,2.693-1.512,3.669l-20.869,21.022c-2.231,1.864-5.624,0.277-5.624-2.63V7.329
	c0-2.908,3.393-4.494,5.624-2.629l20.869,21.03c0.968,0.975,1.511,2.294,1.511,3.668V55.903z"/>
<path fill="#473A57" d="M318.684,21.226h-7.281v-6.668c0-7.84,6.378-14.218,14.218-14.218h16.381v7.281H325.62
	c-3.825,0-6.937,3.111-6.937,6.937V21.226z"/>
<path fill="#473A57" d="M324.924,31.104h-7.281v-9.617c0-6.214,5.055-11.27,11.27-11.27h13.088v7.281h-13.088
	c-2.199,0-3.989,1.79-3.989,3.989V31.104z"/>
<path fill="#473A57" d="M342.001,84.905h-14.626c-8.808,0-15.973-7.166-15.973-15.974v-4.913h7.281v4.913
	c0,4.793,3.899,8.693,8.692,8.693h14.626V84.905z"/>
<path fill="#473A57" d="M342.001,75.092h-12.134c-6.741,0-12.224-5.483-12.224-12.224v-8.663h7.281v8.663
	c0,2.725,2.217,4.943,4.943,4.943h12.134V75.092z"/>
<rect x="332.281" y="33.621" fill="#473A57" width="9.721" height="7.281"/>
<rect x="332.281" y="43.843" fill="#473A57" width="9.721" height="7.281"/>
<path fill="#473A57" d="M345.955,83.216c-0.234,0-0.425-0.19-0.425-0.425V64.398c0-0.234,0.191-0.425,0.425-0.425h31.824
	c0.234,0,0.425,0.19,0.425,0.425v18.393c0,0.234-0.191,0.425-0.425,0.425H345.955z"/>
<path fill="#473A57" d="M345.955,50.997c-0.234,0-0.425-0.19-0.425-0.425V34.987c0-0.234,0.191-0.425,0.425-0.425h28.239
	c0.234,0,0.425,0.19,0.425,0.425v15.585c0,0.234-0.191,0.425-0.425,0.425H345.955z"/>
<path fill="#473A57" d="M345.955,21.758c-0.234,0-0.425-0.19-0.425-0.425V2.94c0-0.234,0.191-0.425,0.425-0.425h31.091
	c0.234,0,0.425,0.19,0.425,0.425v18.393c0,0.234-0.191,0.425-0.425,0.425H345.955z"/>
<path fill="#9075B3" d="M314.28,13.35c-0.909,0-1.649-0.739-1.649-1.649c0-0.909,0.739-1.649,1.649-1.649
	c0.908,0,1.648,0.739,1.648,1.649C315.928,12.611,315.188,13.35,314.28,13.35z M314.28,11.093c-0.335,0-0.608,0.273-0.608,0.608
	s0.273,0.608,0.608,0.608c0.335,0,0.607-0.273,0.607-0.608S314.616,11.093,314.28,11.093z"/>
<path fill="#9075B3" d="M393.932,5.545c-0.909,0-1.649-0.739-1.649-1.649s0.739-1.649,1.649-1.649c0.908,0,1.648,0.739,1.648,1.649
	S394.84,5.545,393.932,5.545z M393.932,3.288c-0.335,0-0.608,0.273-0.608,0.608s0.273,0.608,0.608,0.608
	c0.335,0,0.607-0.273,0.607-0.608S394.267,3.288,393.932,3.288z"/>
<path fill="#9075B3" d="M393.932,83.878c-0.909,0-1.649-0.739-1.649-1.648c0-0.909,0.739-1.649,1.649-1.649
	c0.908,0,1.648,0.739,1.648,1.649C395.579,83.139,394.84,83.878,393.932,83.878z M393.932,81.622c-0.335,0-0.608,0.273-0.608,0.608
	s0.273,0.607,0.608,0.607c0.335,0,0.607-0.272,0.607-0.607S394.267,81.622,393.932,81.622z"/>
<path fill="#9075B3" d="M414.971,5.545c-0.908,0-1.648-0.739-1.648-1.649s0.739-1.649,1.648-1.649c0.909,0,1.649,0.739,1.649,1.649
	S415.88,5.545,414.971,5.545z M414.971,3.288c-0.335,0-0.607,0.273-0.607,0.608s0.272,0.608,0.607,0.608
	c0.335,0,0.608-0.273,0.608-0.608S415.306,3.288,414.971,3.288z"/>
<path fill="#9075B3" d="M466.001,34.717c-0.909,0-1.649-0.739-1.649-1.648c0-0.909,0.739-1.649,1.649-1.649s1.649,0.739,1.649,1.649
	C467.649,33.978,466.91,34.717,466.001,34.717z M466.001,32.461c-0.335,0-0.608,0.273-0.608,0.608c0,0.335,0.273,0.607,0.608,0.607
	s0.608-0.272,0.608-0.607C466.609,32.735,466.336,32.461,466.001,32.461z"/>
<path fill="#9075B3" d="M414.971,83.878c-0.908,0-1.648-0.739-1.648-1.648c0-0.909,0.739-1.649,1.648-1.649
	c0.909,0,1.649,0.739,1.649,1.649C416.62,83.139,415.88,83.878,414.971,83.878z M414.971,81.622c-0.335,0-0.607,0.273-0.607,0.608
	s0.272,0.607,0.607,0.607c0.335,0,0.608-0.272,0.608-0.607S415.306,81.622,414.971,81.622z"/>
<path fill="#9075B3" d="M443.832,83.878c-0.908,0-1.648-0.739-1.648-1.648c0-0.909,0.739-1.649,1.648-1.649
	c0.909,0,1.649,0.739,1.649,1.649C445.48,83.139,444.741,83.878,443.832,83.878z M443.832,81.622c-0.335,0-0.607,0.273-0.607,0.608
	s0.272,0.607,0.607,0.607s0.608-0.272,0.608-0.607S444.167,81.622,443.832,81.622z"/>
<path fill="#9075B3" d="M464.872,83.878c-0.909,0-1.649-0.739-1.649-1.648c0-0.909,0.739-1.649,1.649-1.649
	c0.909,0,1.649,0.739,1.649,1.649C466.521,83.139,465.781,83.878,464.872,83.878z M464.872,81.622c-0.335,0-0.608,0.273-0.608,0.608
	s0.273,0.607,0.608,0.607s0.608-0.272,0.608-0.607S465.207,81.622,464.872,81.622z"/>
<path fill="#9075B3" d="M3.426,28.405c-0.909,0-1.649-0.739-1.649-1.649s0.739-1.649,1.649-1.649c0.909,0,1.648,0.739,1.648,1.649
	S4.334,28.405,3.426,28.405z M3.426,26.148c-0.336,0-0.608,0.273-0.608,0.608s0.273,0.608,0.608,0.608
	c0.335,0,0.608-0.273,0.608-0.608S3.761,26.148,3.426,26.148z"/>
<path fill="#9075B3" d="M76.408,28.405c-0.909,0-1.648-0.739-1.648-1.649s0.739-1.649,1.648-1.649s1.648,0.739,1.648,1.649
	S77.317,28.405,76.408,28.405z M76.408,26.148c-0.335,0-0.608,0.273-0.608,0.608s0.273,0.608,0.608,0.608s0.608-0.273,0.608-0.608
	S76.743,26.148,76.408,26.148z"/>
<path fill="#9075B3" d="M40.061,55.526c-0.909,0-1.649-0.739-1.649-1.649c0-0.909,0.739-1.649,1.649-1.649
	c0.909,0,1.648,0.739,1.648,1.649C41.709,54.787,40.969,55.526,40.061,55.526z M40.061,53.269c-0.336,0-0.608,0.273-0.608,0.608
	c0,0.335,0.273,0.608,0.608,0.608c0.335,0,0.608-0.273,0.608-0.608C40.669,53.542,40.396,53.269,40.061,53.269z"/>
<path fill="#9075B3" d="M314.28,75.243c-0.909,0-1.649-0.739-1.649-1.649c0-0.909,0.739-1.649,1.649-1.649
	c0.908,0,1.648,0.739,1.648,1.649C315.928,74.504,315.188,75.243,314.28,75.243z M314.28,72.986c-0.335,0-0.608,0.273-0.608,0.608
	c0,0.335,0.273,0.608,0.608,0.608c0.335,0,0.607-0.273,0.607-0.608C314.888,73.259,314.616,72.986,314.28,72.986z"/>
<path fill="#9075B3" d="M299.646,83.736c-0.909,0-1.649-0.739-1.649-1.649c0-0.908,0.739-1.648,1.649-1.648s1.649,0.739,1.649,1.648
	C301.295,82.996,300.555,83.736,299.646,83.736z M299.646,81.48c-0.335,0-0.608,0.272-0.608,0.607s0.273,0.608,0.608,0.608
	s0.608-0.273,0.608-0.608S299.982,81.48,299.646,81.48z"/>
<path fill="#9075B3" d="M225.38,82.838c-0.909,0-1.649-0.739-1.649-1.648c0-0.909,0.739-1.649,1.649-1.649
	c0.909,0,1.648,0.739,1.648,1.649C227.028,82.098,226.289,82.838,225.38,82.838z M225.38,80.582c-0.336,0-0.608,0.273-0.608,0.608
	s0.273,0.607,0.608,0.607c0.335,0,0.608-0.272,0.608-0.607S225.716,80.582,225.38,80.582z"/>
<path fill="#9075B3" d="M205.416,82.838c-0.909,0-1.648-0.739-1.648-1.648c0-0.909,0.739-1.649,1.648-1.649
	c0.909,0,1.648,0.739,1.648,1.649C207.064,82.098,206.325,82.838,205.416,82.838z M205.416,80.582c-0.335,0-0.608,0.273-0.608,0.608
	s0.273,0.607,0.608,0.607c0.335,0,0.608-0.272,0.608-0.607S205.751,80.582,205.416,80.582z"/>
<path fill="#9075B3" d="M188.639,82.838c-0.909,0-1.648-0.739-1.648-1.648c0-0.909,0.739-1.649,1.648-1.649
	c0.909,0,1.649,0.739,1.649,1.649C190.287,82.098,189.548,82.838,188.639,82.838z M188.639,80.582c-0.335,0-0.608,0.273-0.608,0.608
	s0.273,0.607,0.608,0.607c0.336,0,0.608-0.272,0.608-0.607S188.974,80.582,188.639,80.582z"/>
<path fill="#9075B3" d="M147.278,82.838c-0.909,0-1.648-0.739-1.648-1.648c0-0.909,0.739-1.649,1.648-1.649
	c0.909,0,1.648,0.739,1.648,1.649C148.926,82.098,148.187,82.838,147.278,82.838z M147.278,80.582c-0.335,0-0.608,0.273-0.608,0.608
	s0.273,0.607,0.608,0.607c0.335,0,0.608-0.272,0.608-0.607S147.613,80.582,147.278,80.582z"/>
<path fill="#9075B3" d="M130.5,82.838c-0.909,0-1.648-0.739-1.648-1.648c0-0.909,0.739-1.649,1.648-1.649
	c0.909,0,1.649,0.739,1.649,1.649C132.149,82.098,131.409,82.838,130.5,82.838z M130.5,80.582c-0.335,0-0.608,0.273-0.608,0.608
	s0.273,0.607,0.608,0.607c0.336,0,0.608-0.272,0.608-0.607S130.836,80.582,130.5,80.582z"/>
<path fill="#9075B3" d="M205.416,6.668c-0.909,0-1.648-0.739-1.648-1.648c0-0.909,0.739-1.649,1.648-1.649
	c0.909,0,1.648,0.739,1.648,1.649C207.064,5.929,206.325,6.668,205.416,6.668z M205.416,4.412c-0.335,0-0.608,0.273-0.608,0.608
	s0.273,0.607,0.608,0.607c0.335,0,0.608-0.272,0.608-0.607S205.751,4.412,205.416,4.412z"/>
<path fill="#9075B3" d="M188.639,6.668c-0.909,0-1.648-0.739-1.648-1.648c0-0.909,0.739-1.649,1.648-1.649
	c0.909,0,1.649,0.739,1.649,1.649C190.287,5.929,189.548,6.668,188.639,6.668z M188.639,4.412c-0.335,0-0.608,0.273-0.608,0.608
	s0.273,0.607,0.608,0.607c0.336,0,0.608-0.272,0.608-0.607S188.974,4.412,188.639,4.412z"/>
<path fill="#9075B3" d="M147.278,6.668c-0.909,0-1.648-0.739-1.648-1.648c0-0.909,0.739-1.649,1.648-1.649
	c0.909,0,1.648,0.739,1.648,1.649C148.926,5.929,148.187,6.668,147.278,6.668z M147.278,4.412c-0.335,0-0.608,0.273-0.608,0.608
	s0.273,0.607,0.608,0.607c0.335,0,0.608-0.272,0.608-0.607S147.613,4.412,147.278,4.412z"/>
<path fill="#9075B3" d="M130.5,6.668c-0.909,0-1.648-0.739-1.648-1.648c0-0.909,0.739-1.649,1.648-1.649
	c0.909,0,1.649,0.739,1.649,1.649C132.149,5.929,131.409,6.668,130.5,6.668z M130.5,4.412c-0.335,0-0.608,0.273-0.608,0.608
	s0.273,0.607,0.608,0.607c0.336,0,0.608-0.272,0.608-0.607S130.836,4.412,130.5,4.412z"/>
<path fill="#9075B3" d="M299.646,4.971c-0.909,0-1.649-0.739-1.649-1.648c0-0.909,0.739-1.649,1.649-1.649s1.649,0.739,1.649,1.649
	C301.295,4.232,300.555,4.971,299.646,4.971z M299.646,2.715c-0.335,0-0.608,0.273-0.608,0.608s0.273,0.607,0.608,0.607
	s0.608-0.272,0.608-0.607S299.982,2.715,299.646,2.715z"/>
<path fill="#9075B3" d="M225.38,6.668c-0.909,0-1.649-0.739-1.649-1.648c0-0.909,0.739-1.649,1.649-1.649
	c0.909,0,1.648,0.739,1.648,1.649C227.028,5.929,226.289,6.668,225.38,6.668z M225.38,4.412c-0.336,0-0.608,0.273-0.608,0.608
	s0.273,0.607,0.608,0.607c0.335,0,0.608-0.272,0.608-0.607S225.716,4.412,225.38,4.412z"/>
<path fill="#9075B3" d="M332.281,57.81c-0.908,0-1.648-0.739-1.648-1.649c0-0.908,0.739-1.648,1.648-1.648
	c0.909,0,1.649,0.739,1.649,1.648C333.929,57.07,333.19,57.81,332.281,57.81z M332.281,55.554c-0.335,0-0.607,0.272-0.607,0.607
	c0,0.335,0.272,0.608,0.607,0.608s0.608-0.273,0.608-0.608C332.889,55.826,332.616,55.554,332.281,55.554z"/>
<path fill="#9075B3" d="M332.281,31.246c-0.908,0-1.648-0.739-1.648-1.649s0.739-1.649,1.648-1.649c0.909,0,1.649,0.739,1.649,1.649
	S333.19,31.246,332.281,31.246z M332.281,28.989c-0.335,0-0.607,0.273-0.607,0.608s0.272,0.608,0.607,0.608s0.608-0.273,0.608-0.608
	S332.616,28.989,332.281,28.989z"/>
<rect x="0" y="5.117" fill="#FFFFFF" width="80.122" height="1.2"/>
<rect x="0" y="9.707" fill="#FFFFFF" width="80.122" height="1.2"/>
<polygon fill="#75C69A" points="420.028,6.869 420.028,5.494 427.181,6.181 "/>
<polygon fill="#75C69A" points="420.028,8.589 420.028,7.214 427.181,7.902 "/>
<polygon fill="#75C69A" points="420.028,10.329 420.028,8.953 427.181,9.641 "/>
<polygon fill="#75C69A" points="420.028,11.815 420.028,10.439 427.181,11.127 "/>
<polygon fill="#75C69A" points="420.028,13.44 420.028,12.064 427.181,12.752 "/>
<polygon fill="#75C69A" points="420.028,15.065 420.028,13.689 427.181,14.377 "/>
<polygon fill="#75C69A" points="420.028,16.625 420.028,15.25 427.181,15.937 "/>
<polygon fill="#75C69A" points="420.028,18.185 420.028,16.81 427.181,17.498 "/>
<polygon fill="#75C69A" points="420.028,19.713 420.028,18.338 427.181,19.025 "/>
<polygon fill="#75C69A" points="420.028,45.329 420.028,43.954 427.181,44.642 "/>
<polygon fill="#75C69A" points="420.028,47.049 420.028,45.674 427.181,46.362 "/>
<polygon fill="#75C69A" points="420.028,48.789 420.028,47.413 427.181,48.101 "/>
<polygon fill="#75C69A" points="420.028,50.275 420.028,48.899 427.181,49.587 "/>
<polygon fill="#75C69A" points="420.028,51.9 420.028,50.524 427.181,51.212 "/>
<polygon fill="#75C69A" points="420.028,53.525 420.028,52.15 427.181,52.837 "/>
<polygon fill="#75C69A" points="420.028,55.085 420.028,53.71 427.181,54.398 "/>
<polygon fill="#75C69A" points="420.028,56.646 420.028,55.27 427.181,55.958 "/>
<polygon fill="#75C69A" points="420.028,58.173 420.028,56.798 427.181,57.485 "/>
<rect x="234.007" y="13.915" fill="#FFFFFF" width="1.352" height="57.082"/>
<polygon fill="#FFFFFF" points="250.791,48.899 250.791,46.693 265.959,27.517 278.622,12.522 279.655,13.394 267.007,28.371 "/>
<path fill="none" stroke="#FFFFFF" stroke-width="1.3" stroke-miterlimit="10" d="M266.491,27.936"/>
<polygon fill="#FFFFFF" points="280.506,72.565 265.852,51.182 266.848,50.21 281.624,71.803 "/>
<circle fill="#75C69A" cx="234.683" cy="9.405" r="5.728"/>
<circle fill="#473A57" cx="234.683" cy="9.405" r="3.549"/>
<circle fill="#75C69A" cx="282.093" cy="9.405" r="5.728"/>
<circle fill="#473A57" cx="282.093" cy="9.405" r="3.549"/>
<circle fill="#75C69A" cx="234.683" cy="75.733" r="5.728"/>
<circle fill="#473A57" cx="234.683" cy="75.733" r="3.549"/>
<circle fill="#75C69A" cx="283.44" cy="75.733" r="5.728"/>
<circle fill="#473A57" cx="283.44" cy="75.733" r="3.549"/>
<path fill="#FFFFFF" d="M234.683,77.381c-0.909,0-1.648-0.739-1.648-1.648c0-0.909,0.739-1.649,1.648-1.649
	c0.909,0,1.649,0.739,1.649,1.649C236.332,76.642,235.592,77.381,234.683,77.381z M234.683,75.125c-0.335,0-0.608,0.273-0.608,0.608
	s0.273,0.607,0.608,0.607c0.336,0,0.608-0.272,0.608-0.607S235.019,75.125,234.683,75.125z"/>
<path fill="#FFFFFF" d="M283.44,77.381c-0.909,0-1.649-0.739-1.649-1.648c0-0.909,0.739-1.649,1.649-1.649
	c0.908,0,1.648,0.739,1.648,1.649C285.088,76.642,284.348,77.381,283.44,77.381z M283.44,75.125c-0.335,0-0.608,0.273-0.608,0.608
	s0.273,0.607,0.608,0.607c0.335,0,0.607-0.272,0.607-0.607S283.775,75.125,283.44,75.125z"/>
<path fill="#FFFFFF" d="M234.683,11.053c-0.909,0-1.648-0.739-1.648-1.649c0-0.909,0.739-1.649,1.648-1.649
	c0.909,0,1.649,0.739,1.649,1.649C236.332,10.314,235.592,11.053,234.683,11.053z M234.683,8.796c-0.335,0-0.608,0.273-0.608,0.608
	s0.273,0.608,0.608,0.608c0.336,0,0.608-0.273,0.608-0.608S235.019,8.796,234.683,8.796z"/>
<path fill="#FFFFFF" d="M282.093,11.053c-0.908,0-1.648-0.739-1.648-1.649c0-0.909,0.739-1.649,1.648-1.649
	c0.909,0,1.649,0.739,1.649,1.649C283.742,10.314,283.002,11.053,282.093,11.053z M282.093,8.796c-0.335,0-0.607,0.273-0.607,0.608
	s0.272,0.608,0.607,0.608c0.335,0,0.608-0.273,0.608-0.608S282.428,8.796,282.093,8.796z"/>
<circle fill="#75C69A" cx="40.061" cy="72.466" r="8.636"/>
<circle fill="#FFFFFF" cx="40.061" cy="72.466" r="4.128"/>
<circle fill="#473A57" cx="40.061" cy="72.466" r="1.76"/>
<path fill="#75C69A" d="M367.764,14.025c0,0.574-0.466,1.04-1.04,1.04h-10.447c-0.574,0-1.04-0.466-1.04-1.04v-3.921
	c0-0.574,0.466-1.04,1.04-1.04h10.447c0.574,0,1.04,0.466,1.04,1.04V14.025z"/>
<path fill="#473A57" d="M365.815,12.799c0,0.215-0.321,0.39-0.716,0.39h-7.196c-0.396,0-0.716-0.175-0.716-0.39v-1.47
	c0-0.215,0.321-0.39,0.716-0.39h7.196c0.396,0,0.716,0.175,0.716,0.39V12.799z"/>
<path fill="#75C69A" d="M365.814,44.74c0,0.574-0.466,1.04-1.04,1.04h-10.447c-0.574,0-1.04-0.466-1.04-1.04v-3.921
	c0-0.574,0.466-1.04,1.04-1.04h10.447c0.574,0,1.04,0.466,1.04,1.04V44.74z"/>
<path fill="#75C69A" d="M367.764,75.555c0,0.574-0.466,1.04-1.04,1.04h-10.447c-0.574,0-1.04-0.466-1.04-1.04v-3.921
	c0-0.574,0.466-1.04,1.04-1.04h10.447c0.574,0,1.04,0.466,1.04,1.04V75.555z"/>
<polygon fill="#473A57" points="180.684,152.64 180.688,167.606 187.742,155.512 "/>
<path fill="#473A57" d="M316.472,177.968H309.6c-0.34-3.102-0.898-0.584-1.669-3.535l6.36-2.486
	c0.902-0.353,1.347-1.369,0.995-2.271l-3.808-9.745c-0.352-0.902-1.369-1.347-2.271-0.995l-6.295,2.46
	c-1.82-3.516-3.958-6.838-6.379-9.931l4.71-4.71c0.685-0.685,0.685-1.795,0-2.48l-7.398-7.398c-0.685-0.685-1.795-0.685-2.48,0
	l-4.585,4.585c-2.42-1.986-4.991-3.792-7.691-5.408l0.005-0.011l2.545-5.816c0.385-0.883-0.017-1.916-0.901-2.309l-9.586-4.198
	c-0.892-0.385-1.924,0.018-2.309,0.91l-2.458,5.607l-0.009,0.02c-3.782-1.243-7.721-2.135-11.78-2.648v-5.959
	c0-0.969-0.785-1.754-1.753-1.754h-10.463c-0.968,0-1.753,0.785-1.753,1.754v5.721c-3.263,0.303-6.455,0.85-9.556,1.628
	l-2.019-5.167c-0.352-0.902-1.369-1.347-2.271-0.995l-9.745,3.808c-0.902,0.353-1.347,1.37-0.995,2.272l1.945,4.976
	c-3.713,1.878-7.213,4.109-10.462,6.651l-3.664-3.664c-0.685-0.685-1.795-0.685-2.48,0l-7.398,7.398
	c-0.685,0.685-0.685,1.795,0,2.48l3.539,3.539c-2.1,2.559-3.993,5.291-5.678,8.161l-4.503-1.972
	c-0.887-0.388-1.921,0.016-2.31,0.903l-4.198,9.584c-0.389,0.887,0.016,1.921,0.903,2.31l4.407,1.93
	c-1.261,3.951-2.143,2.688-2.608,6.933h-4.781c-0.968,0-1.753,0.785-1.753,1.754v15.843c0,0.968,0.785,1.753,1.753,1.753h4.78
	c0.368,3.363,1.005,6.643,1.878,9.826l-4.476,1.749c-0.902,0.353-1.347,1.37-0.995,2.272l3.808,9.745
	c0.353,0.902,1.37,1.347,2.271,0.995l4.551-1.779c1.976,3.707,4.304,7.198,6.949,10.42l-3.537,3.537
	c-0.682,0.682-0.682,1.793,0,2.475l7.4,7.399c0.682,0.682,1.793,0.682,2.475,0l3.656-3.647l0.01-0.01
	c2.579,2.018,5.314,3.844,8.192,5.449l-2.127,4.857c-0.388,0.887,0.016,1.921,0.903,2.31l9.584,4.198
	c0.887,0.389,1.921-0.016,2.31-0.903l2.212-5.05c3.871,1.142,7.892,1.928,12.032,2.312v5.721c0,0.968,0.785,1.754,1.753,1.754
	h10.463c0.968,0,1.753-0.785,1.753-1.754v-5.959c3.199-0.404,6.322-1.045,9.354-1.908l2.222,5.686
	c0.352,0.902,1.369,1.347,2.271,0.995l9.745-3.808c0.902-0.353,1.347-1.369,0.995-2.271l-2.296-5.874
	c3.512-1.915,6.822-4.153,9.892-6.673l4.585,4.584c0.685,0.685,1.795,0.685,2.48,0l7.398-7.398c0.685-0.685,0.685-1.795,0-2.48
	l-4.71-4.71c1.908-2.438,3.64-5.017,5.179-7.722l6.173,2.704c0.887,0.389,1.921-0.016,2.31-0.903l4.198-9.584
	c0.389-0.887-0.016-1.921-0.903-2.31l-6.244-2.735c1.127-3.704,1.922-7.552,2.356-11.509h6.871c0.968,0,1.753-0.785,1.753-1.753
	v-16.017C318.226,178.753,317.441,177.968,316.472,177.968z"/>
<path fill="#75C69A" d="M247.348,155.014c-11.131,0-20.595,9.023-20.595,20.156c0,11.131,9.023,20.153,20.153,20.153
	c11.133,0,20.156-9.023,20.156-20.153C267.063,164.036,258.482,155.014,247.348,155.014z M246.907,183.298
	c-4.488,0-8.129-3.64-8.129-8.129c0-4.491,3.64-8.129,8.129-8.129c4.491,0,8.129,3.638,8.129,8.129
	C255.036,179.658,251.398,183.298,246.907,183.298z"/>
<path fill="#75C69A" d="M201.379,228.799l-7.398-7.398c-0.685-0.685-0.685-1.795,0-2.48l11.804-11.804
	c0.685-0.685,1.795-0.685,2.48,0l7.398,7.398c0.685,0.685,0.685,1.795,0,2.48l-11.804,11.804
	C203.174,229.483,202.064,229.483,201.379,228.799z"/>
<polygon fill="#473A57" points="179.819,195.323 179.819,210.648 187.742,208.649 "/>
<polygon fill="#473A57" points="314.54,198.11 314.54,213.219 306.16,210.477 "/>
<path fill="#75C69A" d="M272.63,131.088l-9.584-4.198c-0.887-0.389-1.291-1.423-0.903-2.31l6.697-15.29
	c0.389-0.887,1.423-1.291,2.31-0.903l9.584,4.198c0.887,0.389,1.291,1.423,0.903,2.31l-6.697,15.29
	C274.551,131.073,273.517,131.477,272.63,131.088z"/>
<path fill="#75C69A" d="M254.595,108.494v14.502c0,0.971-0.787,1.758-1.749,1.758h-8.974l8.414-12.761L254.595,108.494z"/>
<path fill="#75C69A" d="M293.998,121.692l-4.487,6.796l-6.866,10.417l-3.088-3.088c-0.682-0.682-0.682-1.793,0-2.484l7.225-7.216
	l4.583-4.583c0.682-0.682,1.793-0.682,2.475,0L293.998,121.692z"/>
<path fill="#75C69A" d="M201.565,200.655l-10.47,4.093l8.764-13.277l2.703,6.919C202.912,199.291,202.466,200.305,201.565,200.655z"
	/>
<path fill="#FFFFFF" d="M316.472,168.184H309.6c-0.34-3.103-0.898-6.139-1.669-9.09l6.36-2.486c0.902-0.353,1.347-1.369,0.995-2.271
	l-3.808-9.745c-0.352-0.902-1.369-1.347-2.271-0.995l-6.295,2.46c-1.82-3.516-3.958-6.838-6.379-9.931l4.71-4.71
	c0.685-0.685,0.685-1.795,0-2.48l-7.398-7.398c-0.685-0.685-1.795-0.685-2.48,0l-4.585,4.585c-2.42-1.986-4.991-3.792-7.691-5.408
	l0.005-0.011l2.545-5.817c0.385-0.883-0.017-1.916-0.901-2.309l-9.586-4.198c-0.892-0.385-1.924,0.017-2.309,0.91l-2.458,5.606
	l-0.009,0.02c-3.782-1.243-7.721-2.135-11.78-2.649v-5.959c0-0.968-0.785-1.753-1.753-1.753h-10.462
	c-0.968,0-1.753,0.785-1.753,1.753v5.721c-3.263,0.303-6.455,0.85-9.556,1.628l-2.02-5.167c-0.352-0.902-1.369-1.347-2.271-0.995
	l-9.745,3.808c-0.902,0.353-1.347,1.369-0.995,2.271l1.945,4.976c-3.713,1.878-7.213,4.109-10.462,6.651l-3.664-3.664
	c-0.685-0.685-1.795-0.685-2.48,0l-7.398,7.398c-0.685,0.685-0.685,1.795,0,2.48l3.539,3.539c-2.1,2.559-3.994,5.291-5.678,8.162
	l-4.503-1.972c-0.887-0.388-1.921,0.016-2.31,0.903l-4.198,9.583c-0.389,0.887,0.016,1.921,0.903,2.31l4.407,1.93
	c-1.261,3.951-2.143,8.069-2.608,12.314h-4.781c-0.968,0-1.753,0.785-1.753,1.753v10.462c0,0.969,0.785,1.754,1.753,1.754h4.78
	c0.368,3.363,1.005,6.643,1.878,9.826l-4.476,1.75c-0.902,0.352-1.347,1.369-0.995,2.271l3.808,9.745
	c0.352,0.902,1.369,1.347,2.271,0.995l4.551-1.779c1.976,3.707,4.304,7.198,6.949,10.42l-3.537,3.537
	c-0.682,0.682-0.682,1.793,0,2.475l7.399,7.399c0.682,0.682,1.793,0.682,2.475,0l3.656-3.647l0.01-0.01
	c2.579,2.018,5.314,3.844,8.192,5.449l-2.127,4.857c-0.388,0.887,0.016,1.921,0.903,2.31l9.583,4.198
	c0.887,0.389,1.921-0.016,2.31-0.903l2.212-5.05c3.871,1.142,7.892,1.928,12.032,2.312v5.721c0,0.968,0.785,1.753,1.753,1.753
	h10.462c0.968,0,1.753-0.785,1.753-1.753v-5.959c3.199-0.404,6.322-1.045,9.354-1.908l2.222,5.686
	c0.352,0.902,1.369,1.347,2.271,0.995l9.745-3.809c0.902-0.352,1.347-1.369,0.995-2.271l-2.296-5.874
	c3.512-1.915,6.822-4.153,9.893-6.673l4.584,4.584c0.685,0.685,1.795,0.685,2.48,0l7.398-7.398c0.685-0.685,0.685-1.795,0-2.48
	l-4.71-4.71c1.908-2.438,3.64-5.017,5.179-7.722l6.173,2.704c0.887,0.388,1.921-0.016,2.31-0.903l4.198-9.583
	c0.388-0.887-0.016-1.921-0.903-2.31l-6.244-2.735c1.127-3.704,1.922-7.552,2.356-11.509h6.871c0.968,0,1.753-0.785,1.753-1.754
	v-10.462C318.226,168.968,317.441,168.184,316.472,168.184z M246.562,200.753c-14.125,0-25.58-11.456-25.58-25.58
	c0-14.133,11.456-25.58,25.58-25.58c14.133,0,25.58,11.447,25.58,25.58C272.142,189.297,260.695,200.753,246.562,200.753z"/>
<polygon fill="#473A57" points="213.439,236.85 213.44,251.454 218.554,245.782 "/>
<polygon fill="#473A57" points="279.304,238.593 279.304,252.779 274.564,244.598 "/>
<polygon fill="#473A57" points="301.756,220.661 301.756,235.022 295.062,230.192 "/>
<polygon fill="#473A57" points="193.47,220.661 193.47,235.022 199.232,231.531 "/>
<path fill="none" stroke="#E7E7E7" stroke-miterlimit="10" d="M246.562,116.449c-32.429,0-58.716,26.287-58.716,58.724
	c0,32.429,26.287,58.716,58.716,58.716c32.437,0,58.724-26.287,58.724-58.716C305.286,142.735,278.999,116.449,246.562,116.449z"/>
<path fill="none" stroke="#E7E7E7" stroke-miterlimit="10" d="M246.564,145.674c-16.289,0-29.492,13.204-29.492,29.496
	c0,16.289,13.204,29.492,29.492,29.492c16.293,0,29.496-13.204,29.496-29.492C276.06,158.878,262.857,145.674,246.564,145.674z"/>
<line fill="none" stroke="#E7E7E7" stroke-miterlimit="10" x1="187.847" y1="175.172" x2="217.072" y2="175.172"/>
<line fill="none" stroke="#E7E7E7" stroke-miterlimit="10" x1="276.06" y1="175.17" x2="305.286" y2="175.17"/>
<polygon fill="none" stroke="#E7E7E7" stroke-miterlimit="10" points="467.35,98.911 467.35,130.191 422.52,130.191 422.52,239.301 
	385.31,239.301 385.31,130.191 340.47,130.191 340.47,98.911 "/>
<rect x="418.841" y="41.048" fill="#75C69A" width="1.196" height="20.311"/>
<rect x="418.841" y="0.472" fill="#75C69A" width="1.196" height="23.897"/>
<path fill="#473A57" d="M363.865,43.478c0,0.215-0.321,0.39-0.716,0.39h-7.196c-0.396,0-0.716-0.175-0.716-0.39v-1.47
	c0-0.215,0.321-0.39,0.716-0.39h7.196c0.396,0,0.716,0.175,0.716,0.39V43.478z"/>
<path fill="#473A57" d="M365.815,74.349c0,0.215-0.321,0.39-0.716,0.39h-7.196c-0.396,0-0.716-0.175-0.716-0.39v-1.47
	c0-0.215,0.321-0.39,0.716-0.39h7.196c0.396,0,0.716,0.175,0.716,0.39V74.349z"/>
<rect x="94.472" y="46.841" fill="#FFFFFF" width="13.207" height="0.603"/>
<rect x="96.082" y="25.948" fill="#FFFFFF" width="9.97" height="0.603"/>
<rect x="96.082" y="36.419" fill="#FFFFFF" width="9.97" height="0.603"/>
<rect x="96.082" y="65.473" fill="#FFFFFF" width="9.97" height="0.603"/>
<path opacity="0.04" fill="#010101" d="M148.836,108.811l-49.86,75.58c-1.51-0.22-3.17-0.33-4.97-0.33h-25.57v22.54h15.89
	l-25.3,38.36h-40.01v-22.73l49.42-74.91v5.53h22.1c10.69,0,16.04-3.47,16.04-10.4v-0.44c0-6.93-5.42-10.4-16.26-10.4h-11.52
	l25.31-38.36c10.48,0.01,19.15,1.17,25.98,3.47c6.86,2.31,12.54,5.71,17.01,10.19C147.706,107.511,148.286,108.151,148.836,108.811z
	"/>
<polygon opacity="0.04" fill="#010101" points="465.826,93.251 437.516,136.161 429.266,136.161 429.266,148.671 378.556,225.541 
	378.556,142.171 410.826,93.251 "/>
<path opacity="0.04" fill="#010101" d="M246.908,155.001c-11.134,0-20.152,9.026-20.152,20.161c0,10.408,7.898,18.989,18.035,20.038
	l19.972-29.869C261.326,159.165,254.473,155.001,246.908,155.001z M246.908,183.288c-4.487,0-8.126-3.639-8.126-8.126
	c0-4.496,3.639-8.134,8.126-8.134s8.125,3.639,8.125,8.134C255.033,179.649,251.395,183.288,246.908,183.288z"/>
<path opacity="0.04" fill="#010101" d="M293.998,121.686l-4.487,6.796l-6.866,10.417l-14.685,22.251
	c-4.566-6.971-12.438-11.572-21.394-11.572c-14.126,0-25.583,11.449-25.583,25.583c0,12.604,9.114,23.073,21.114,25.19
	l-14.038,21.28l-7.513,11.388l-3.77,5.72l-2.283-0.997c-0.892-0.394-1.295-1.426-0.901-2.309l2.125-4.854
	c-2.878-1.601-5.624-3.42-8.204-5.44l-3.656,3.647c-0.682,0.682-1.793,0.682-2.475,0l-7.4-7.399c-0.682-0.682-0.682-1.793,0-2.475
	l3.542-3.542c-2.571-3.123-4.837-6.499-6.779-10.085v-0.009l0.35-0.534l8.764-13.277l44.012-66.718l8.414-12.761l2.309-3.499v3.743
	c4.058,0.516,8.003,1.417,11.79,2.659l2.458-5.607c0.385-0.892,1.417-1.294,2.309-0.91l9.586,4.198
	c0.883,0.394,1.286,1.426,0.901,2.309l-2.545,5.816c2.703,1.618,5.265,3.429,7.688,5.414l4.583-4.583
	c0.682-0.682,1.793-0.682,2.475,0L293.998,121.686z"/>
<line fill="none" stroke="#E7E7E7" stroke-miterlimit="10" x1="80.122" y1="158.863" x2="80.122" y2="178.07"/>
<circle fill="#473A57" cx="305.286" cy="175.172" r="2"/>
<circle fill="#473A57" cx="385.119" cy="130.238" r="2"/>
<circle fill="#473A57" cx="423" cy="130.238" r="2"/>
<circle fill="#473A57" cx="467.35" cy="130.238" r="2"/>
<circle fill="#473A57" cx="340.47" cy="130.238" r="2"/>
<circle fill="#473A57" cx="340.47" cy="98.911" r="2"/>
<circle fill="#473A57" cx="467.35" cy="98.911" r="2"/>
<circle fill="#473A57" cx="422.191" cy="239.301" r="2"/>
<circle fill="#473A57" cx="385.119" cy="239.301" r="2"/>
<circle fill="#473A57" cx="187.639" cy="175.172" r="2"/>
<circle fill="#473A57" cx="80.122" cy="158.863" r="2"/>
<circle fill="#473A57" cx="100.333" cy="99.264" r="2"/>
<circle fill="#473A57" cx="100.333" cy="238.74" r="2"/>
<circle fill="#473A57" cx="80.122" cy="178.07" r="2"/>
<circle fill="#473A57" cx="25.02" cy="99.264" r="2"/>
<circle fill="#473A57" cx="25.02" cy="238.593" r="2"/>
<circle fill="#473A57" cx="217.072" cy="175.172" r="2"/>
<circle fill="#473A57" cx="276.06" cy="175.172" r="2"/>
</svg>
