<svg xmlns="http://www.w3.org/2000/svg" width="99.327" height="219.391" viewBox="0 0 99.327 219.391"><path d="M91.742 0l-42.078 35.346-42.077-35.346 4.012 61.44 38.065-5.293 38.066 5.293z"/><path fill="#FAA21B" d="M67.211 59.625l-59.625 8.291v-67.916zM32.118 59.625l59.625 8.291v-67.916zM45.695 215.581c0 2.104-1.706 3.81-3.81 3.81s-3.81-1.706-3.81-3.81v-68.473c0-2.104 1.705-3.811 3.81-3.811 2.104 0 3.81 1.706 3.81 3.811v68.473zM59.89 215.581c0 2.104-1.706 3.81-3.81 3.81s-3.81-1.706-3.81-3.81v-68.473c0-2.104 1.705-3.811 3.81-3.811 2.104 0 3.81 1.706 3.81 3.811v68.473z"/><path fill="#FFDA00" d="M99.327 167.248v-76.778c-.133-27.316-22.316-49.419-49.663-49.419-27.293 0-49.442 22.177-49.661 49.419l-.002 76.778.012.106h-.012v5.091l4.445 4.725 6.393-6.394 6.393 6.394 6.393-6.394 6.393 6.394 6.393-6.394 6.393 6.394 6.392-6.394 6.393 6.394 6.393-6.394 6.393 6.394 6.392-6.394 6.393 6.394 6.393-6.394 6.393 6.394 5.387-5.271v-4.544h-.011l.005-.107z"/><path opacity=".05" d="M49.392 41.059c-27.168.146-49.173 22.26-49.391 49.412l-.001 76.777.011.107h-.011v5.091l4.444 4.724 6.393-6.393 6.393 6.393 6.393-6.393 6.393 6.393 6.392-6.393 6.394 6.393 6.392-6.393.2.2v-129.918z"/><path fill="#FAA21B" d="M49.664 112.159c-12.284 0-22.278-9.994-22.278-22.278 0-12.285 9.994-22.28 22.278-22.28 12.285 0 22.279 9.995 22.279 22.28 0 12.284-9.994 22.278-22.279 22.278"/><path fill="#fff" d="M70.388 88.095c0 11.445-9.277 20.725-20.724 20.725-11.445 0-20.724-9.279-20.724-20.725 0-11.444 9.278-20.724 20.724-20.724s20.724 9.279 20.724 20.724"/><path fill="#FAA21B" d="M54.858 76.49c0 2.869-2.325 5.194-5.193 5.194-2.869 0-5.195-2.325-5.195-5.194s2.326-5.194 5.195-5.194c2.868 0 5.193 2.325 5.193 5.194"/></svg>