<?xml version="1.0" encoding="utf-8"?>
<!-- Generator: Adobe Illustrator 15.0.0, SVG Export Plug-In . SVG Version: 6.00 Build 0)  -->
<!DOCTYPE svg PUBLIC "-//W3C//DTD SVG 1.1//EN" "http://www.w3.org/Graphics/SVG/1.1/DTD/svg11.dtd">
<svg version="1.1" id="Layer_1" xmlns="http://www.w3.org/2000/svg" xmlns:xlink="http://www.w3.org/1999/xlink" x="0px" y="0px"
	 width="27.833px" height="271.031px" viewBox="-3.031 -2 27.833 271.031" enable-background="new -3.031 -2 27.833 271.031"
	 xml:space="preserve">
<path fill="#4A4434" d="M15.448,100.261c0.359-0.565,0.741-1.142,1.137-1.738c1.398-2.11,2.982-4.502,4.35-7.532
	c2.01-4.44,3.021-9.521,3.007-15.095c0.009-5.052-0.811-9.676-2.43-13.74c-1.152-2.905-2.598-5.302-3.73-7.071
	c-0.398-0.618-0.788-1.208-1.165-1.781c-1.354-2.055-2.525-3.83-3.377-5.745c-0.898-2.029-1.82-4.759-1.835-9.614
	c0.007-3.488,0.467-6.203,1.488-8.798c0.582-1.469,1.321-2.853,2.557-4.78c0.36-0.566,0.742-1.143,1.138-1.739
	c1.397-2.109,2.982-4.5,4.349-7.53c2.01-4.442,3.021-9.524,3.007-15.104L23.935-2H10.541l-0.004,1.996
	c-0.007,3.491-0.466,6.206-1.486,8.797c-0.583,1.469-1.322,2.852-2.559,4.781c-0.361,0.568-0.745,1.146-1.141,1.746
	c-1.396,2.108-2.979,4.497-4.345,7.523C-1.002,27.285-2.013,32.366-2,37.938c-0.007,5.053,0.812,9.677,2.432,13.738
	c1.135,2.867,2.521,5.181,3.729,7.072c0.396,0.615,0.784,1.203,1.16,1.773c1.357,2.058,2.529,3.835,3.383,5.752
	c0.899,2.032,1.821,4.764,1.833,9.614c-0.007,3.489-0.466,6.204-1.486,8.797c-0.583,1.47-1.322,2.853-2.559,4.782
	c-0.359,0.565-0.741,1.142-1.136,1.738c-1.398,2.109-2.982,4.5-4.35,7.531c-2.009,4.442-3.021,9.523-3.007,15.094
	c-0.007,5.053,0.812,9.678,2.432,13.739c1.136,2.868,2.521,5.181,3.729,7.073c0.396,0.611,0.78,1.196,1.154,1.764
	c1.359,2.062,2.534,3.842,3.389,5.76c0.899,2.03,1.821,4.764,1.833,9.616c-0.007,3.488-0.466,6.207-1.486,8.804
	c-0.72,1.815-1.652,3.369-2.558,4.783c-0.358,0.563-0.74,1.14-1.134,1.735c-1.398,2.11-2.984,4.504-4.352,7.537
	c-2.009,4.44-3.021,9.523-3.007,15.101c-0.007,5.051,0.812,9.675,2.432,13.739c1.137,2.869,2.521,5.182,3.729,7.069
	c0.398,0.616,0.786,1.206,1.163,1.777c1.356,2.058,2.527,3.834,3.38,5.749c0.899,2.031,1.821,4.764,1.833,9.615
	c-0.007,3.49-0.466,6.207-1.486,8.803c-0.584,1.471-1.323,2.854-2.559,4.783c-0.36,0.566-0.744,1.146-1.14,1.744
	c-1.396,2.109-2.979,4.5-4.345,7.527c-2.009,4.441-3.021,9.523-3.007,15.1c0,0.437,0.013,0.854,0.023,1.275l0.059,2.107h13.436
	l-0.082-2.078c-0.018-0.426-0.032-0.854-0.033-1.301c0.007-3.489,0.467-6.207,1.488-8.803c0.584-1.473,1.322-2.855,2.558-4.781
	c0.36-0.567,0.744-1.146,1.14-1.745c1.397-2.109,2.98-4.499,4.346-7.526c2.01-4.439,3.021-9.521,3.007-15.097
	c0.009-5.054-0.811-9.677-2.43-13.74c-1.145-2.886-2.526-5.19-3.73-7.071c-0.397-0.617-0.785-1.205-1.162-1.777
	c-1.355-2.058-2.527-3.834-3.38-5.75c-0.898-2.027-1.82-4.758-1.835-9.614c0.007-3.49,0.467-6.207,1.488-8.806
	c0.719-1.812,1.651-3.367,2.557-4.781c0.357-0.562,0.737-1.137,1.131-1.729c1.399-2.113,2.986-4.511,4.354-7.545
	c2.01-4.439,3.021-9.521,3.007-15.099c0.009-5.054-0.811-9.677-2.43-13.74c-1.152-2.907-2.599-5.303-3.73-7.07
	c-0.399-0.619-0.789-1.211-1.168-1.785c-1.354-2.054-2.522-3.828-3.374-5.742c-0.898-2.03-1.82-4.76-1.835-9.615
	c0.007-3.488,0.467-6.203,1.488-8.799C13.474,103.57,14.213,102.187,15.448,100.261z"/>
</svg>
