<svg xmlns="http://www.w3.org/2000/svg" width="161.454" height="214.824" viewBox="0 0 161.454 214.824"><path fill="#009DD0" d="M161.454 7.312c0 9.749-36.143 50.709-80.728 50.709-44.583 0-80.726-40.96-80.726-50.709s161.454-9.75 161.454 0"/><path fill="#007DA6" d="M150.956 8.646c0 2.55-31.441 4.618-70.229 4.618-38.786 0-70.228-2.068-70.228-4.618 0-2.551 31.442-4.618 70.228-4.618 38.787 0 70.229 2.067 70.229 4.618"/><path fill="#009DD0" d="M132.075 112.377c-.131-27.316-22.314-49.419-49.66-49.419-27.293 0-49.443 22.177-49.662 49.419l-.002 76.778c0 1.778 1.456 3.235 3.236 3.235h5.467v15.62c0 3.748 1.31 6.813 2.912 6.813 1.602 0 2.912-3.065 2.912-6.813v-15.62h5.177v16.661c0 2.707 1.31 5.772 2.912 5.772 1.602 0 2.912-3.065 2.912-6.813v-15.62h5.178v15.62c0 3.748 1.311 6.813 2.912 6.813 1.602 0 2.912-3.065 2.912-6.813v-15.62h5.178v15.62c0 3.748 1.31 6.813 2.912 6.813s2.912-3.065 2.912-6.813v-15.62h5.178v15.62c0 3.748 1.311 6.813 2.912 6.813s2.912-3.065 2.912-6.813v-15.62h5.178v15.62c0 3.748 1.309 6.813 2.91 6.813 1.603 0 2.912-3.065 2.912-6.813v-15.62h5.178v15.62c0 3.748 1.311 6.813 2.912 6.813 1.603 0 2.912-3.065 2.912-6.813v-15.62h5.178v15.62c0 3.748 1.312 6.813 2.912 6.813 1.603 0 2.912-3.065 2.912-6.813v-15.62h4.551c1.779 0 3.236-1.457 3.236-3.235l-.001-76.778z"/><path opacity=".1" enable-background="new" d="M82.144 62.964c-27.169.146-49.174 22.26-49.392 49.412l-.001 76.778c0 1.779 1.456 3.236 3.236 3.236h46.157v-129.426z"/><path fill="#007DA6" d="M105.424 111.152c0 12.951-10.5 23.449-23.449 23.449-12.951 0-23.449-10.498-23.449-23.449 0-12.95 10.498-23.448 23.449-23.448 12.949 0 23.449 10.498 23.449 23.448"/><path fill="#fff" d="M102.698 110.002c0 11.445-9.277 20.725-20.724 20.725-11.445 0-20.723-9.278-20.723-20.725 0-11.446 9.278-20.725 20.723-20.725 11.446 0 20.724 9.28 20.724 20.725"/><path fill="#009DD0" d="M87.168 98.397c0 2.869-2.324 5.194-5.193 5.194-2.868 0-5.194-2.325-5.194-5.194s2.326-5.194 5.194-5.194c2.869 0 5.193 2.325 5.193 5.194"/></svg>