<svg xmlns="http://www.w3.org/2000/svg" width="128.108" height="170.303" viewBox="0 0 128.108 170.303"><path fill="#9D2C39" d="M61.146 163.489c0 3.748-1.785 6.813-3.967 6.813s-3.967-3.065-3.967-6.813v-80.358c0-3.747 1.785-6.813 3.967-6.813s3.967 3.066 3.967 6.813v80.358zM76.836 163.489c0 3.748-1.785 6.813-3.966 6.813-2.182 0-3.967-3.065-3.967-6.813v-80.358c0-3.747 1.785-6.813 3.967-6.813 2.181 0 3.966 3.066 3.966 6.813v80.358z"/><path fill="#BB3747" d="M128.108 71.845c0 35.376-28.679 64.054-64.055 64.054s-64.053-28.678-64.053-64.054 28.678-64.055 64.054-64.055 64.054 28.679 64.054 64.055"/><path fill="#B23443" d="M63.514 7.804c-35.126.292-63.514 28.844-63.514 64.04s28.388 63.749 63.514 64.041v-128.081z"/><path fill="#fff" d="M98.026 71.813c0 7.18-5.82 13.001-13.001 13.001-7.18 0-13-5.821-13-13.001s5.82-13.001 13-13.001c7.181 0 13.001 5.822 13.001 13.001"/><path fill="#BB3747" d="M90.484 66.146c0 2.926-2.371 5.297-5.296 5.297s-5.296-2.371-5.296-5.297c0-2.925 2.371-5.296 5.296-5.296s5.296 2.371 5.296 5.296"/><path fill="#fff" d="M55.841 71.813c0 7.18-5.821 13.001-13.001 13.001s-13-5.821-13-13.001 5.82-13.001 13-13.001 13.001 5.822 13.001 13.001"/><path fill="#BB3747" d="M48.299 66.146c0 2.926-2.371 5.297-5.296 5.297s-5.296-2.371-5.296-5.297c0-2.925 2.371-5.296 5.296-5.296s5.296 2.371 5.296 5.296"/><path fill="#9D2C39" d="M69.301 88.879c0 3.012-2.441 5.451-5.451 5.451-3.011 0-5.452-2.439-5.452-5.451 0-3.011 2.441-5.45 5.452-5.45 3.009 0 5.451 2.439 5.451 5.45"/><path fill="#BB3747" d="M115.191 14.697c0 8.117-22.925 14.697-51.201 14.697-28.278 0-51.201-6.58-51.201-14.697s22.923-14.697 51.201-14.697c28.277 0 51.201 6.58 51.201 14.697"/><path fill="#9D2C39" d="M98.564 11.566c0 3.916-15.479 7.091-34.574 7.091s-34.575-3.175-34.575-7.091 15.48-7.091 34.575-7.091 34.574 3.175 34.574 7.091"/></svg>