<svg xmlns="http://www.w3.org/2000/svg" width="1501.473" height="42.223" viewBox="0 0 1501.473 42.223"><path fill="#A3CF69" d="M1501.473 11.308c0-6.244-5.063-11.308-11.308-11.308-4.681 0-8.695 2.843-10.415 6.896-1.72-4.053-5.734-6.896-10.414-6.896-4.681 0-8.695 2.843-10.415 6.896-1.719-4.053-5.734-6.896-10.414-6.896s-8.695 2.843-10.415 6.896c-1.719-4.053-5.735-6.896-10.414-6.896s-8.695 2.843-10.415 6.896c-1.719-4.053-5.735-6.896-10.414-6.896s-8.695 2.843-10.414 6.896c-1.72-4.053-5.735-6.896-10.415-6.896-4.68 0-8.694 2.843-10.415 6.896-1.719-4.053-5.734-6.896-10.415-6.896-4.68 0-8.694 2.843-10.414 6.896-1.72-4.054-5.734-6.896-10.415-6.896-4.68 0-8.694 2.843-10.415 6.896-1.718-4.053-5.733-6.896-10.414-6.896-4.68 0-8.694 2.843-10.413 6.896-1.721-4.053-5.735-6.896-10.415-6.896-4.681 0-8.695 2.843-10.414 6.896-1.721-4.053-5.735-6.896-10.415-6.896-4.681 0-8.695 2.843-10.414 6.896-1.72-4.054-5.735-6.896-10.415-6.896s-8.695 2.843-10.414 6.896c-1.72-4.054-5.735-6.896-10.415-6.896s-8.695 2.843-10.414 6.896c-1.72-4.054-5.735-6.896-10.415-6.896s-8.695 2.843-10.414 6.896c-1.72-4.054-5.734-6.896-10.415-6.896-4.68 0-8.694 2.843-10.414 6.896-1.719-4.053-5.735-6.896-10.416-6.896-4.679 0-8.694 2.843-10.414 6.896-1.718-4.053-5.734-6.896-10.415-6.896-4.68 0-8.694 2.843-10.414 6.896-1.718-4.053-5.734-6.896-10.415-6.896-4.679 0-8.694 2.843-10.414 6.896-1.719-4.053-5.734-6.896-10.414-6.896-4.681 0-8.695 2.843-10.414 6.896-1.72-4.054-5.735-6.896-10.414-6.896-4.681 0-8.696 2.843-10.415 6.896-1.72-4.053-5.735-6.896-10.415-6.896s-8.695 2.843-10.414 6.896c-1.719-4.053-5.735-6.896-10.414-6.896-4.68 0-8.696 2.843-10.415 6.896-1.719-4.053-5.736-6.896-10.415-6.896-4.679 0-8.695 2.843-10.414 6.896-1.719-4.053-5.736-6.896-10.414-6.896-4.68 0-8.696 2.843-10.415 6.896-1.719-4.053-5.736-6.896-10.414-6.896-4.68 0-8.696 2.843-10.415 6.896-1.719-4.053-5.734-6.896-10.415-6.896-4.68 0-8.695 2.843-10.415 6.896-1.718-4.053-5.734-6.896-10.414-6.896s-8.695 2.843-10.415 6.896c-1.718-4.053-5.733-6.896-10.414-6.896-4.68 0-8.695 2.843-10.414 6.896-1.72-4.053-5.734-6.896-10.414-6.896-4.681 0-8.695 2.843-10.415 6.896-1.72-4.053-5.734-6.896-10.414-6.896-4.681 0-8.695 2.843-10.415 6.896-1.719-4.053-5.734-6.896-10.414-6.896s-8.695 2.843-10.415 6.896c-1.719-4.053-5.735-6.896-10.414-6.896s-8.695 2.843-10.415 6.896c-1.719-4.053-5.735-6.896-10.414-6.896s-8.695 2.843-10.415 6.896c-1.719-4.053-5.734-6.896-10.414-6.896s-8.694 2.843-10.415 6.896c-1.719-4.053-5.734-6.896-10.415-6.896-4.68 0-8.694 2.843-10.415 6.896-1.718-4.053-5.733-6.896-10.414-6.896-4.68 0-8.694 2.843-10.415 6.896-1.718-4.053-5.733-6.896-10.413-6.896s-8.695 2.843-10.414 6.896c-1.72-4.053-5.735-6.896-10.415-6.896-4.68 0-8.695 2.843-10.414 6.896-1.72-4.053-5.735-6.896-10.415-6.896-4.68 0-8.695 2.843-10.414 6.896-1.72-4.053-5.735-6.896-10.415-6.896-4.68 0-8.695 2.843-10.414 6.896-1.72-4.053-5.735-6.896-10.415-6.896-4.68 0-8.695 2.843-10.414 6.896-1.72-4.053-5.735-6.896-10.415-6.896s-8.695 2.843-10.414 6.896c-1.72-4.053-5.735-6.896-10.415-6.896-4.68 0-8.695 2.843-10.414 6.896-1.72-4.053-5.735-6.896-10.415-6.896-4.68 0-8.695 2.843-10.414 6.896-1.719-4.053-5.735-6.896-10.415-6.896-4.68 0-8.695 2.843-10.414 6.896-1.719-4.053-5.735-6.896-10.415-6.896s-8.695 2.843-10.414 6.896c-1.719-4.053-5.735-6.896-10.415-6.896s-8.695 2.843-10.414 6.896c-1.719-4.053-5.735-6.896-10.415-6.896-4.68 0-8.695 2.843-10.414 6.896-1.719-4.053-5.735-6.896-10.415-6.896-4.679 0-8.695 2.843-10.414 6.896-1.719-4.053-5.735-6.896-10.414-6.896-4.68 0-8.696 2.843-10.415 6.896-1.719-4.053-5.735-6.896-10.415-6.896-4.679 0-8.695 2.843-10.414 6.896-1.719-4.053-5.735-6.896-10.414-6.896-4.68 0-8.696 2.843-10.415 6.896-1.719-4.053-5.735-6.896-10.415-6.896-4.679 0-8.695 2.843-10.414 6.896-1.719-4.053-5.734-6.896-10.415-6.896-4.68 0-8.696 2.843-10.415 6.896-1.718-4.053-5.734-6.896-10.413-6.896-4.68 0-8.696 2.843-10.415 6.896-1.719-4.053-5.734-6.896-10.414-6.896s-8.696 2.843-10.415 6.896c-1.719-4.053-5.735-6.896-10.414-6.896-4.68 0-8.696 2.843-10.415 6.896-1.719-4.053-5.734-6.896-10.414-6.896s-8.696 2.843-10.415 6.896c-1.719-4.053-5.734-6.896-10.414-6.896s-8.695 2.843-10.415 6.896c-1.719-4.053-5.734-6.896-10.414-6.896s-8.695 2.843-10.415 6.896c-1.719-4.053-5.734-6.896-10.414-6.896s-8.695 2.843-10.415 6.896c-1.719-4.053-5.734-6.896-10.414-6.896s-8.695 2.843-10.415 6.896c-1.719-4.053-5.734-6.896-10.414-6.896s-8.695 2.843-10.415 6.896c-1.719-4.053-5.734-6.896-10.414-6.896s-8.695 2.843-10.415 6.896c-1.719-4.053-5.734-6.896-10.414-6.896s-8.695 2.843-10.415 6.896c-1.719-4.053-5.734-6.896-10.414-6.896s-8.695 2.843-10.414 6.896c-1.72-4.053-5.735-6.896-10.415-6.896-4.68 0-8.695 2.843-10.414 6.896-1.72-4.053-5.735-6.896-10.415-6.896-4.68 0-8.695 2.843-10.414 6.896-1.72-4.053-5.735-6.896-10.415-6.896-4.68 0-8.695 2.843-10.414 6.896-1.72-4.053-5.735-6.896-10.415-6.896-4.68 0-8.695 2.843-10.414 6.896-1.72-4.053-5.735-6.896-10.415-6.896-4.68 0-8.695 2.843-10.414 6.896-1.72-4.053-5.735-6.896-10.415-6.896-6.246 0-11.308 5.063-11.308 11.308 0 2.477.805 4.76 2.155 6.621v24.294h1497.163v-24.294c1.35-1.862 2.155-4.145 2.155-6.621"/></svg>