<svg xmlns="http://www.w3.org/2000/svg" width="190.451" height="213.024" viewBox="0 0 190.451 213.024"><path fill="#9EB13B" d="M81.262 206.345c0 3.689-2.99 6.679-6.679 6.679-3.688 0-6.679-2.989-6.679-6.679v-81.814c0-3.689 2.991-6.68 6.679-6.68 3.689 0 6.679 2.99 6.679 6.68v81.814zM121.014 206.345c0 3.689-2.99 6.679-6.68 6.679-3.688 0-6.679-2.989-6.679-6.679v-81.814c0-3.689 2.991-6.68 6.679-6.68 3.689 0 6.68 2.99 6.68 6.68v81.814z"/><path fill="#82942F" d="M68.475 21.973c-76.32 0-76.32 114.479 0 114.479v-5.573c-68.888 0-68.888-103.332 0-103.332v-5.574zM122.307 21.973c76.32 0 76.32 114.479 0 114.479v-5.573c68.889 0 68.889-103.332 0-103.332v-5.574z"/><path fill="#9EB13B" d="M141.841 192.513c1.78 0 3.235-1.456 3.235-3.236v-76.778c-.133-27.315-22.315-49.419-49.663-49.419-27.293 0-49.443 22.178-49.661 49.419l-.002 76.778c0 1.78 1.456 3.236 3.236 3.236h92.855z"/><path opacity=".1" d="M94.869 63.093c-27.041.296-48.899 22.347-49.116 49.405l-.001 76.778c0 1.78 1.456 3.236 3.235 3.236h45.882v-129.419z"/><path fill="#82942F" d="M137.831 112.999c0 5.987-4.854 10.841-10.841 10.841s-10.84-4.854-10.84-10.841c0-5.986 4.853-10.84 10.84-10.84s10.841 4.853 10.841 10.84"/><path fill="#fff" d="M136.495 111.636c0 5.25-4.256 9.505-9.504 9.505-5.25 0-9.506-4.255-9.506-9.505s4.256-9.505 9.506-9.505c5.248 0 9.504 4.255 9.504 9.505"/><path fill="#82942F" d="M130.981 107.493c0 2.139-1.734 3.872-3.872 3.872-2.14 0-3.872-1.733-3.872-3.872 0-2.14 1.732-3.872 3.872-3.872 2.138 0 3.872 1.732 3.872 3.872M145.077 166.857h-15.232v-21.045h-7.445v21.045h-55.497v-21.045h-7.444v21.045h-13.708v22.42c0 1.78 1.456 3.236 3.236 3.236h92.854c1.781 0 3.236-1.456 3.236-3.236v-22.42"/><path d="M152.704 146.489c-2.569-9.252-27.711-16.515-58.368-16.515-30.648 0-55.785 7.26-58.364 16.509h-.003l.001.003-.001.003h.002c.334 2.192 2.21 3.876 4.495 3.876s4.16-1.684 4.495-3.876h.032c.335 2.192 2.21 3.876 4.495 3.876s4.16-1.684 4.495-3.876h.209c.335 2.192 2.21 3.876 4.495 3.876 2.179 0 3.97-1.538 4.423-3.58.453 2.042 2.244 3.58 4.423 3.58 2.285 0 4.16-1.684 4.495-3.876h.032c.335 2.192 2.21 3.876 4.495 3.876s4.16-1.684 4.495-3.876h.032c.335 2.192 2.21 3.876 4.495 3.876 2.286 0 4.161-1.684 4.495-3.876h.033c.334 2.192 2.209 3.876 4.495 3.876 2.285 0 4.16-1.684 4.494-3.876h.033c.334 2.192 2.209 3.876 4.494 3.876 2.18 0 3.971-1.538 4.424-3.58.453 2.042 2.242 3.58 4.422 3.58 2.285 0 4.16-1.684 4.494-3.876h.033c.334 2.192 2.209 3.876 4.496 3.876 2.284 0 4.159-1.684 4.494-3.876h.032c.335 2.192 2.21 3.876 4.495 3.876s4.16-1.684 4.495-3.876h.032c.334 2.192 2.209 3.876 4.494 3.876 2.049 0 3.76-1.357 4.334-3.218.575 1.86 2.287 3.218 4.336 3.218 2.285 0 4.16-1.684 4.494-3.876h.008z"/><path fill="#82942F" d="M155.665 83.077c0 5.217-26.787-5.038-59.83-5.038s-59.83 10.255-59.83 5.038 26.787-23.933 59.83-23.933c33.042 0 59.83 18.716 59.83 23.933M123.641 63.461c0 7.974-12.449 14.438-27.807 14.438-15.357 0-27.806-6.465-27.806-14.438 0-7.89 9.286-14.302 24.419-14.438.162-.001-.564 5.188 3.387 5.188 3.952 0 3.178-5.189 3.314-5.188 15.169.115 24.493 6.535 24.493 14.438M105.655 110.127c0 5.987-4.853 10.84-10.839 10.84-5.987 0-10.84-4.853-10.84-10.84s4.853-10.84 10.84-10.84c5.986.001 10.839 4.853 10.839 10.84"/><path fill="#fff" d="M104.321 108.764c0 5.25-4.256 9.505-9.505 9.505-5.25 0-9.506-4.255-9.506-9.505s4.256-9.505 9.506-9.505c5.249 0 9.505 4.255 9.505 9.505"/><path fill="#82942F" d="M98.806 104.621c0 2.139-1.734 3.872-3.872 3.872-2.139 0-3.872-1.733-3.872-3.872s1.733-3.872 3.872-3.872c2.138 0 3.872 1.733 3.872 3.872M72.624 113.088c0 5.987-4.853 10.841-10.84 10.841s-10.84-4.854-10.84-10.841c0-5.986 4.853-10.84 10.84-10.84 5.987.001 10.84 4.854 10.84 10.84"/><path fill="#fff" d="M71.289 111.726c0 5.25-4.256 9.505-9.505 9.505-5.25 0-9.506-4.255-9.506-9.505s4.256-9.505 9.506-9.505c5.249 0 9.505 4.255 9.505 9.505"/><path fill="#82942F" d="M65.775 107.583c0 2.139-1.734 3.872-3.872 3.872-2.139 0-3.872-1.733-3.872-3.872 0-2.14 1.733-3.872 3.872-3.872 2.138-.001 3.872 1.732 3.872 3.872"/><path fill="#9EB13B" d="M190.451 8.421c0 2.348-16.079 4.888-18.987 8.997-10.998 15.538 16.229 21.367-76.239 21.367-92.227 0-65.085-5.696-76.152-21.246-2.963-4.163-19.073-6.747-19.073-9.118 0-11.228 190.451-11.228 190.451 0"/><path fill="#82942F" d="M170.475 8.392c0 2.329-33.69 4.218-75.25 4.218s-75.251-1.889-75.251-4.218 33.691-4.218 75.251-4.218 75.25 1.889 75.25 4.218"/></svg>