<svg xmlns="http://www.w3.org/2000/svg" width="139.879" height="177.208" viewBox="0 0 139.879 177.208"><path fill="#F494BE" d="M69.939 0c-57.724 0-69.939 8.362-69.939 8.362s5.946 107.792 57.17 122.808v39.224c0 3.748 1.785 6.814 3.967 6.814 2.182 0 3.966-3.066 3.966-6.814v-37.704c1.418.136 2.857.228 4.337.228 1.162 0 2.297-.057 3.421-.141v37.617c0 3.748 1.783 6.814 3.967 6.814 2.181 0 3.966-3.066 3.966-6.814v-38.949c52.198-13.97 59.085-123.082 59.085-123.082s-12.216-8.363-69.94-8.363z"/><path opacity=".1" enable-background="new" d="M69.185.001c-57.071.074-69.185 8.362-69.185 8.362s6.842 124.21 69.185 124.55v-132.912zm23.951 66.707c0 13.054-10.581 23.636-23.636 23.636-13.054 0-23.636-10.583-23.636-23.636 0-13.054 10.582-23.636 23.636-23.636 13.055 0 23.636 10.581 23.636 23.636"/><path fill="#fff" d="M90.225 63.472c0 11.445-9.279 20.724-20.726 20.724-11.444 0-20.723-9.279-20.723-20.724s9.278-20.724 20.723-20.724c11.446 0 20.726 9.279 20.726 20.724"/><path fill="#F494BE" d="M74.693 51.867c0 2.869-2.325 5.194-5.192 5.194-2.869 0-5.195-2.325-5.195-5.194 0-2.869 2.326-5.194 5.195-5.194 2.867 0 5.192 2.325 5.192 5.194"/><path fill="#9B4A83" d="M129.368 10.222c0 1.899-26.31 3.439-58.763 3.439-32.455 0-58.765-1.54-58.765-3.439s26.31-5.059 58.765-5.059c32.454 0 58.763 3.16 58.763 5.059m-56.298 90.004c.021 1.2.065 4.334-1.463 5.444-1.496 1.172-3.804 1.172-5.3 0-1.528-1.11-1.485-4.244-1.463-5.444-.022-1.241-.066-.087 1.463 1.022 1.496 1.172 3.805 1.172 5.3 0 1.53-1.109 1.486-2.263 1.463-1.022"/><path fill="#fff" d="M67.177 102.391c-.053.172-.089.354-.089.543 0 1.039.842 1.883 1.882 1.883 1.039 0 1.883-.844 1.883-1.883 0-.189-.037-.371-.09-.543-1.125.494-2.461.494-3.586 0"/><path opacity=".2" fill="#fff" enable-background="new" d="M5.41 21.391c1.027 10.268 3.662 30.652 9.897 50.912 4.979 16.151 11.204 29.028 18.736 38.313 1.186 1.461 3.332 1.684 4.793.498 1.46-1.188 1.683-3.332.496-4.794-6.746-8.295-12.718-20.428-17.514-36.022-6.025-19.552-8.635-39.591-9.628-49.583-.187-1.873-1.856-3.239-3.729-3.052-1.87.186-3.237 1.857-3.051 3.728z"/></svg>