<svg xmlns="http://www.w3.org/2000/svg" width="110.229" height="214.037" viewBox="0 0 110.229 214.037"><path fill="#8B9FAA" d="M110.228 125.535l.001-21.316c0-1.779-1.456-3.236-3.236-3.236h-24.713c-1.779 0-3.234 1.457-3.234 3.236v47.265c0 1.779 1.455 3.236 3.234 3.236h24.712c1.779 0 3.236-1.457 3.236-3.236v-25.949zM31.182 125.535l.001-21.316c0-1.779-1.456-3.236-3.236-3.236h-24.712c-1.779 0-3.235 1.457-3.235 3.236v47.265c0 1.779 1.456 3.236 3.235 3.236h24.712c1.779 0 3.236-1.457 3.236-3.236l-.001-25.949zM58.636 67.686c0 .787-.645 1.43-1.43 1.43h-4.184c-.787 0-1.43-.643-1.43-1.43v-21.299c0-.787.643-1.431 1.43-1.431h4.184c.785 0 1.43.644 1.43 1.431v21.299zM63.235 201.715c0 1.813-1.484 3.298-3.299 3.298h-9.645c-1.814 0-3.298-1.484-3.298-3.298v-49.115c0-1.814 1.484-3.299 3.298-3.299h9.645c1.814 0 3.299 1.484 3.299 3.299v49.115z"/><path fill="#ADC6D2" d="M101.541 168.949c1.78 0 3.236-1.456 3.236-3.236l-.001-94.092s-8.674-8.197-49.662-8.197l-49.661 8.197-.002 94.092c0 1.78 1.456 3.236 3.236 3.236h92.854z"/><path opacity=".05" d="M54.847 63.426c-40.753.036-49.394 8.196-49.394 8.196l-.002 94.091c0 1.779 1.456 3.236 3.236 3.236h46.16v-105.523z"/><path d="M72.507 196.644c0 9.606-7.787 17.394-17.393 17.394-9.605 0-17.392-7.787-17.392-17.394s7.787-17.393 17.392-17.393c9.606 0 17.393 7.786 17.393 17.393"/><path fill="#8B9FAA" d="M64.653 196.644c0 5.269-4.271 9.539-9.539 9.539-5.269 0-9.54-4.271-9.54-9.539s4.271-9.539 9.54-9.539c5.268-.001 9.539 4.271 9.539 9.539"/><path d="M56.882 196.644c0 .978-.792 1.769-1.768 1.769-.977 0-1.769-.791-1.769-1.769s.792-1.768 1.769-1.768c.976 0 1.768.79 1.768 1.768"/><path fill="#8B9FAA" d="M30.557 145.277c-1.814 0-3.298-1.484-3.298-3.299v-9.645c0-1.814 1.484-3.298 3.298-3.298h49.114c1.814 0 3.299 1.483 3.299 3.298v9.645c0 1.814-1.484 3.299-3.299 3.299h-49.114z"/><path fill="#fff" d="M30.695 131.704h8.908v3.538h-8.908zM40.679 131.704h8.908v3.538h-8.908zM50.661 131.704h8.908v3.538h-8.908zM60.643 131.704h8.907v3.538h-8.907zM70.624 131.704h8.908v3.538h-8.908zM30.695 139.07h8.908v3.539h-8.908zM40.679 139.07h8.908v3.539h-8.908zM50.661 139.07h8.908v3.539h-8.908zM60.643 139.07h8.907v3.539h-8.907zM70.624 139.07h8.908v3.539h-8.908z"/><path fill="#ADC6D2" d="M104.776 27.669l.001-21.316c0-1.779-1.456-3.236-3.236-3.236h-92.853c-1.78 0-3.236 1.457-3.236 3.236v47.265c0 1.78 1.456 3.236 3.236 3.236h92.854c1.779 0 3.236-1.456 3.236-3.236l-.002-25.949z"/><path opacity=".05" d="M104.777 6.354c0-1.78-1.456-3.236-3.236-3.236h-92.854c-1.78 0-3.236 1.456-3.236 3.236v47.265c0 1.78 1.456 3.236 3.236 3.236l96.09-50.501z"/><path fill="#ADC6D2" d="M108.516 3.06c0-1.683-1.377-3.06-3.061-3.06h-100.683c-1.683 0-3.06 1.377-3.06 3.06v2.166c0 1.683 1.377 3.06 3.06 3.06h100.683c1.684 0 3.061-1.377 3.061-3.06v-2.166z"/><path fill="#8B9FAA" d="M104.776 157.753h-99.324v1.362h99.325v-1.362zm0-60.502h-99.323v1.363h99.324v-1.363zM79.271 97.232c0 13.341-10.814 24.157-24.157 24.157-13.341 0-24.156-10.816-24.156-24.157s10.815-24.157 24.156-24.157c13.342.001 24.157 10.817 24.157 24.157"/><path fill="#fff" d="M75.838 97.232c0 11.445-9.278 20.725-20.724 20.725-11.445 0-20.723-9.279-20.723-20.725 0-11.445 9.278-20.724 20.723-20.724 11.446 0 20.724 9.28 20.724 20.724"/><path fill="#8B9FAA" d="M60.304 84.975c0 2.917-2.363 5.281-5.28 5.281s-5.281-2.364-5.281-5.281 2.364-5.281 5.281-5.281 5.28 2.364 5.28 5.281M89.731 47.964c0 2.176-1.765 3.941-3.941 3.941s-3.941-1.765-3.941-3.941 1.766-3.941 3.941-3.941c2.177 0 3.941 1.765 3.941 3.941M99.977 47.964c0 2.176-1.764 3.941-3.94 3.941s-3.94-1.765-3.94-3.941 1.765-3.941 3.94-3.941c2.176 0 3.94 1.765 3.94 3.941"/></svg>